<svg xmlns="http://www.w3.org/2000/svg" width="263" height="263" viewBox="0 0 263 263" version="1.1"><path d="M 30.187 112.250 L 30.500 115.500 80.250 115.759 L 130 116.019 130 112.509 L 130 109 79.937 109 L 29.873 109 30.187 112.250 M 35.796 137.001 L 35.500 154.003 80.250 154.001 L 125 154 125 137 L 125 120 80.546 120 L 36.091 120 35.796 137.001 M 53 137 L 53 149 63.500 149 L 74 149 74 137 L 74 125 63.500 125 L 53 125 53 137 M 86 137 L 86 149 96.500 149 L 107 149 107 137 L 107 125 96.500 125 L 86 125 86 137 M 30.667 159.667 C 30.300 160.033, 30 161.608, 30 163.167 L 30 166 131.500 166 L 233 166 233 162.500 L 233 159 132.167 159 C 76.708 159, 31.033 159.300, 30.667 159.667 M 36 188.495 L 36 207 78 207 L 120 207 120 192 L 120 177 130.500 177 L 141 177 141 192 L 141 207 184.523 207 L 228.045 207 227.773 188.750 L 227.500 170.500 131.750 170.245 L 36 169.990 36 188.495 M 54 189 L 54 201 64.500 201 L 75 201 75 189 L 75 177 64.500 177 L 54 177 54 189 M 87 189 L 87 201 97.500 201 L 108 201 108 189 L 108 177 97.500 177 L 87 177 87 189 M 153 189 L 153 201 163.500 201 L 174 201 174 189 L 174 177 163.500 177 L 153 177 153 189 M 186 189 L 186 201 196.500 201 L 207 201 207 189 L 207 177 196.500 177 L 186 177 186 189 M 133.323 190.601 C 132.615 192.445, 135.034 194.366, 136.374 193.026 C 137.466 191.934, 136.464 189, 135 189 C 134.415 189, 133.661 189.720, 133.323 190.601 M 131.281 211.754 L 21.063 212.009 33.923 224.004 L 46.784 236 131.524 236 L 216.265 236 227.882 225.310 C 234.272 219.430, 240.148 214.040, 240.940 213.333 C 241.733 212.626, 242.183 211.924, 241.940 211.774 C 241.698 211.623, 191.902 211.614, 131.281 211.754" stroke="none" fill="#070707" fill-rule="evenodd"/><path d="M 0 131.504 L 0 263.007 131.750 262.754 L 263.500 262.500 263.754 131.250 L 264.007 -0 132.004 -0 L 0 0 0 131.504 M 0.485 132 C 0.485 204.325, 0.604 233.913, 0.750 197.750 C 0.895 161.588, 0.895 102.413, 0.750 66.250 C 0.604 30.088, 0.485 59.675, 0.485 132 M 30.187 112.250 L 30.500 115.500 80.250 115.759 L 130 116.019 130 112.509 L 130 109 79.937 109 L 29.873 109 30.187 112.250 M 35.796 137.001 L 35.500 154.003 80.250 154.001 L 125 154 125 137 L 125 120 80.546 120 L 36.091 120 35.796 137.001 M 53 137 L 53 149 63.500 149 L 74 149 74 137 L 74 125 63.500 125 L 53 125 53 137 M 86 137 L 86 149 96.500 149 L 107 149 107 137 L 107 125 96.500 125 L 86 125 86 137 M 30.667 159.667 C 30.300 160.033, 30 161.608, 30 163.167 L 30 166 131.500 166 L 233 166 233 162.500 L 233 159 132.167 159 C 76.708 159, 31.033 159.300, 30.667 159.667 M 36 188.495 L 36 207 78 207 L 120 207 120 192 L 120 177 130.500 177 L 141 177 141 192 L 141 207 184.523 207 L 228.045 207 227.773 188.750 L 227.500 170.500 131.750 170.245 L 36 169.990 36 188.495 M 54 189 L 54 201 64.500 201 L 75 201 75 189 L 75 177 64.500 177 L 54 177 54 189 M 87 189 L 87 201 97.500 201 L 108 201 108 189 L 108 177 97.500 177 L 87 177 87 189 M 153 189 L 153 201 163.500 201 L 174 201 174 189 L 174 177 163.500 177 L 153 177 153 189 M 186 189 L 186 201 196.500 201 L 207 201 207 189 L 207 177 196.500 177 L 186 177 186 189 M 133.323 190.601 C 132.615 192.445, 135.034 194.366, 136.374 193.026 C 137.466 191.934, 136.464 189, 135 189 C 134.415 189, 133.661 189.720, 133.323 190.601 M 131.281 211.754 L 21.063 212.009 33.923 224.004 L 46.784 236 131.524 236 L 216.265 236 227.882 225.310 C 234.272 219.430, 240.148 214.040, 240.940 213.333 C 241.733 212.626, 242.183 211.924, 241.940 211.774 C 241.698 211.623, 191.902 211.614, 131.281 211.754" stroke="none" fill="#fafafa" fill-rule="evenodd"/></svg>