<svg xmlns="http://www.w3.org/2000/svg" width="271" height="260" viewBox="0 0 271 260" version="1.1"><path d="M 0.032 129.250 L 0.063 258.500 2.259 255.500 C 10.934 243.646, 25.772 232.647, 41.472 226.434 L 50.531 222.848 50.256 215.174 C 48.073 154.247, 44.581 110.569, 40.137 88.633 L 38.341 79.766 55.421 67.088 L 72.500 54.409 72.756 135.809 C 72.987 209.431, 73.162 217.152, 74.588 216.605 C 75.454 216.272, 76.577 216, 77.082 216 C 77.632 216, 78 183.720, 78 135.500 C 78 91.225, 78.292 55, 78.649 55 C 79.005 55, 86.911 60.698, 96.216 67.662 C 110.353 78.242, 113.052 80.667, 112.629 82.412 C 109.881 93.748, 106.752 116.976, 104.011 146.377 C 102.256 165.198, 99 207.505, 99 211.481 C 99 212.563, 100.052 213, 102.656 213 L 106.312 213 105.703 191.250 C 105.216 173.838, 105.483 165.312, 107.044 148.500 C 109.680 120.090, 111.663 104.776, 114.553 90.500 L 116.982 78.500 113.241 75.265 C 111.184 73.486, 109.162 72.023, 108.750 72.015 C 106.937 71.979, 108.256 69.919, 111 68.500 C 113.790 67.057, 114 66.557, 114 61.367 C 114 56.448, 113.792 55.870, 112.250 56.495 C 111.287 56.885, 109.285 57.645, 107.799 58.183 C 105.436 59.039, 105.062 59.771, 104.799 64.046 L 104.500 68.930 99.462 65.081 L 94.424 61.232 93.191 51.366 C 92.513 45.940, 91.699 39.906, 91.382 37.958 L 90.806 34.415 112.370 17.958 C 124.231 8.906, 133.950 1.163, 133.967 0.750 C 133.985 0.337, 103.850 0, 67 0 L 0 0 0.032 129.250 M 135.990 1.250 C 135.984 1.938, 135.974 49.525, 135.968 107 C 135.958 199.747, 136.128 211.536, 137.478 211.823 C 138.833 212.111, 139 200.715, 139 108.073 C 139 50.833, 139.338 4.001, 139.750 4.003 C 140.279 4.004, 175.639 31.603, 178.762 34.451 C 178.906 34.583, 177.531 45.859, 175.708 59.509 C 172.859 80.828, 172.117 84.510, 170.442 85.623 C 168.597 86.848, 168.511 86.685, 168.836 82.588 C 169.163 78.488, 169.009 78.199, 165.941 77.129 C 161.378 75.539, 161.297 75.578, 160.558 79.750 C 160.192 81.813, 159.666 84.275, 159.388 85.223 C 159.029 86.447, 159.780 87.316, 161.980 88.223 L 165.078 89.500 161.026 91.994 C 158.288 93.679, 157.164 94.977, 157.561 95.994 C 158.278 97.834, 160.566 115.673, 161.442 126.250 L 162.083 134 159.542 134 C 157.078 134, 157 134.201, 157 140.552 C 157 146.855, 157.108 147.142, 159.848 148.097 L 162.696 149.090 163.344 161.795 C 163.700 168.783, 163.994 183.162, 163.996 193.750 L 164 213 166.500 213 L 169 213 169 200.236 C 169 175.311, 166.117 124.045, 163.420 101 L 162.893 96.500 179.196 85.759 L 195.500 75.018 196 145.759 L 196.500 216.500 198.743 216.819 L 200.987 217.137 201.243 146.127 L 201.500 75.117 215.500 86.573 C 226.228 95.352, 229.477 98.552, 229.400 100.265 C 229.345 101.494, 228.567 107.675, 227.672 114 C 225.097 132.183, 223.999 150.895, 223.317 188.220 C 222.703 221.794, 222.745 222.962, 224.591 223.593 C 230.415 225.582, 242.873 231.277, 247.727 234.169 C 254.854 238.416, 263.784 246.615, 267 251.865 C 268.375 254.110, 269.837 255.958, 270.250 255.973 C 270.663 255.988, 271 198.400, 271 128 L 271 0 203.500 0 C 150.172 0, 135.998 0.262, 135.990 1.250 M 125 28.291 L 120.500 30.500 120.367 37.250 C 120.294 40.962, 120.622 44, 121.097 44 C 121.571 44, 123.769 43.276, 125.980 42.391 L 130 40.783 130 33.391 C 130 29.326, 129.887 26.019, 129.750 26.041 C 129.613 26.064, 127.475 27.076, 125 28.291 M 146 32.967 L 146 39.916 150.338 42.458 C 152.724 43.856, 154.908 45, 155.193 45 C 155.477 45, 155.789 42.122, 155.886 38.605 L 156.062 32.210 151.031 29.114 L 146 26.018 146 32.967 M 106.500 38.170 C 104.300 39.314, 102.394 40.338, 102.265 40.444 C 101.691 40.915, 104.494 52, 105.186 52 C 105.612 52, 107.802 51.263, 110.054 50.362 C 113.411 49.018, 114.053 48.344, 113.622 46.612 C 113.332 45.450, 112.792 42.587, 112.420 40.250 C 112.048 37.913, 111.464 36.020, 111.122 36.044 C 110.780 36.069, 108.700 37.025, 106.500 38.170 M 162.835 42.380 L 162.500 48.759 166.907 50.390 C 169.330 51.287, 171.558 51.775, 171.858 51.476 C 172.157 51.176, 172.675 48.454, 173.008 45.427 L 173.614 39.923 169.180 37.961 C 166.741 36.883, 164.391 36, 163.958 36 C 163.525 36, 163.020 38.871, 162.835 42.380 M 125.500 48.984 C 122.743 50.795, 122.459 51.524, 122 57.990 C 121.575 63.973, 121.724 64.933, 123 64.410 C 123.825 64.072, 125.737 63.347, 127.250 62.800 C 129.913 61.836, 130 61.569, 130 54.402 C 130 50.331, 129.662 47.003, 129.250 47.007 C 128.838 47.010, 127.150 47.900, 125.500 48.984 M 146 53.815 L 146 60.630 149.534 62.315 C 151.478 63.242, 153.278 64, 153.534 64 C 153.790 64, 154 60.933, 154 57.185 L 154 50.370 150.466 48.685 C 148.522 47.758, 146.722 47, 146.466 47 C 146.210 47, 146 50.067, 146 53.815 M 162 58.875 C 162 61.006, 161.736 64.072, 161.412 65.689 C 160.869 68.406, 161.147 68.754, 165.090 70.303 C 167.436 71.225, 169.444 71.871, 169.552 71.739 C 169.661 71.608, 170.175 68.479, 170.694 64.786 L 171.638 58.072 167.799 56.536 C 162.387 54.371, 162 54.527, 162 58.875 M 125.750 68.658 L 122 70.214 122 77.107 C 122 80.898, 122.383 84, 122.851 84 C 123.319 84, 125.119 83.506, 126.851 82.902 L 130 81.804 130 74.402 C 130 70.331, 129.887 67.023, 129.750 67.052 C 129.613 67.080, 127.813 67.803, 125.750 68.658 M 146 73.842 C 146 80.758, 146.023 80.816, 149.557 82.901 C 151.514 84.056, 153.314 85, 153.557 85 C 153.801 85, 154 82.106, 154 78.568 C 154 72.680, 153.768 71.975, 151.250 70.232 C 145.849 66.492, 146 66.389, 146 73.842 M 85 80.383 C 85 85.121, 85.270 85.839, 87.250 86.370 C 90.889 87.345, 91 87.221, 91 82.161 C 91 77.945, 90.672 77.171, 88.453 76.161 C 87.052 75.522, 85.702 75, 85.453 75 C 85.204 75, 85 77.423, 85 80.383 M 99 83.375 C 99 84.681, 98.736 87.069, 98.414 88.681 C 97.874 91.379, 98.129 91.704, 101.613 92.773 C 103.695 93.412, 105.509 93.824, 105.644 93.689 C 105.780 93.554, 106.320 91.530, 106.846 89.191 L 107.801 84.939 103.940 82.970 C 99.090 80.495, 99 80.503, 99 83.375 M 146 93.876 C 146 100.697, 146.105 101.003, 148.950 102.474 C 150.573 103.313, 152.169 104, 152.496 104 C 152.823 104, 152.958 101.055, 152.796 97.455 C 152.517 91.292, 152.310 90.790, 149.250 88.857 L 146 86.804 146 93.876 M 125.250 89.745 C 122.052 91.337, 122 91.473, 122 98.288 C 122 104.213, 122.230 105.126, 123.593 104.603 C 124.469 104.267, 126.269 103.720, 127.593 103.387 C 129.864 102.817, 130 102.366, 130 95.392 C 130 91.326, 129.662 88.029, 129.250 88.064 C 128.838 88.099, 127.037 88.856, 125.250 89.745 M 85.202 95.751 C 85.477 100.926, 85.715 101.422, 88.250 102.096 C 90.991 102.825, 91 102.810, 91 97.633 C 91 92.762, 90.810 92.367, 87.952 91.288 L 84.904 90.138 85.202 95.751 M 205 97.439 C 205 100.855, 205.463 102.177, 206.934 102.965 C 210.212 104.719, 211 104.150, 211 100.026 C 211 96.621, 210.570 95.829, 208 94.500 L 205 92.949 205 97.439 M 98 101.156 C 98 105.101, 98.304 105.676, 100.905 106.658 C 103.797 107.750, 103.813 107.735, 104.480 103.286 C 104.848 100.828, 104.971 98.638, 104.752 98.419 C 104.533 98.200, 102.924 97.735, 101.177 97.385 L 98 96.750 98 101.156 M 216 102.401 C 216 105.239, 216.590 106.150, 219.557 107.901 C 221.514 109.056, 223.314 110, 223.557 110 C 223.801 110, 224 108.206, 224 106.013 C 224 102.377, 223.682 101.894, 220.378 100.513 C 215.728 98.570, 216 98.453, 216 102.401 M 85 111.383 C 85 116.121, 85.270 116.839, 87.250 117.370 C 90.896 118.347, 91 118.225, 91 112.975 C 91 108.502, 90.719 107.844, 88.435 106.975 C 87.024 106.439, 85.674 106, 85.435 106 C 85.196 106, 85 108.423, 85 111.383 M 205 110.339 C 205 114.019, 205.387 114.855, 207.547 115.839 C 211.076 117.447, 211 117.521, 211 112.475 C 211 108.538, 210.667 107.824, 208.435 106.975 C 204.884 105.625, 205 105.511, 205 110.339 M 126.250 109.745 C 123.028 111.349, 123 111.425, 123 118.665 L 123 125.968 126.500 124.299 L 130 122.630 130 115.315 C 130 111.292, 129.887 108.029, 129.750 108.064 C 129.613 108.099, 128.037 108.856, 126.250 109.745 M 146 114.531 C 146 120.203, 146.330 121.455, 148.250 123.056 C 149.488 124.089, 150.838 124.948, 151.250 124.967 C 151.662 124.985, 152 122.145, 152 118.655 C 152 113.851, 151.575 111.945, 150.250 110.807 C 146.251 107.373, 146 107.593, 146 114.531 M 96.625 114.125 C 96.281 115.844, 96 117.997, 96 118.909 C 96 120.698, 101.302 124.364, 102.360 123.307 C 102.712 122.955, 103 120.481, 103 117.809 C 103 113.514, 102.703 112.837, 100.435 111.975 C 99.024 111.439, 97.730 111, 97.560 111 C 97.389 111, 96.969 112.406, 96.625 114.125 M 215 114.990 C 215 118.362, 215.437 119.175, 217.950 120.474 C 221.957 122.546, 222 122.522, 222 118.185 C 222 114.810, 221.597 114.178, 218.500 112.701 L 215 111.032 215 114.990 M 114.354 115.245 C 112.177 116.227, 111 119.717, 111 125.188 C 111 127.901, 111.250 128.103, 114.250 127.813 C 117.199 127.529, 117.528 127.162, 117.804 123.850 C 117.972 121.842, 117.747 118.867, 117.304 117.238 C 116.603 114.657, 116.224 114.401, 114.354 115.245 M 205 122.439 C 205 125.855, 205.463 127.177, 206.934 127.965 C 210.212 129.719, 211 129.150, 211 125.026 C 211 121.621, 210.570 120.829, 208 119.500 L 205 117.949 205 122.439 M 85 126.454 C 85 131.500, 85.171 131.864, 88 132.850 L 91 133.896 91 128.546 C 91 123.500, 90.829 123.136, 88 122.150 L 85 121.104 85 126.454 M 215 127.974 C 215 131.364, 215.434 132.173, 217.950 133.474 C 221.968 135.552, 222 135.533, 222 131.026 C 222 127.636, 221.566 126.827, 219.050 125.526 C 215.032 123.448, 215 123.467, 215 127.974 M 95.524 126.810 C 95.236 127.098, 95 129.073, 95 131.199 C 95 134.289, 95.451 135.235, 97.250 135.915 C 100.434 137.118, 101 136.460, 101 131.558 C 101 127.750, 100.704 127.177, 98.524 126.760 C 97.161 126.499, 95.811 126.522, 95.524 126.810 M 146 134.873 C 146 141.499, 146.156 141.975, 149 144 L 152 146.136 152 139.223 C 152 133.878, 151.603 131.969, 150.250 130.807 C 146.231 127.355, 146 127.576, 146 134.873 M 126.223 130.557 C 124.289 131.911, 124 133.015, 124 139.057 C 124 142.876, 124.241 146, 124.535 146 C 124.830 146, 126.180 145.273, 127.535 144.385 C 129.760 142.927, 130 142.099, 130 135.885 C 130 132.098, 129.650 129, 129.223 129 C 128.795 129, 127.445 129.701, 126.223 130.557 M 205 135.339 C 205 139.019, 205.387 139.855, 207.547 140.839 C 211.069 142.444, 211 142.507, 211 137.661 C 211 133.981, 210.613 133.145, 208.453 132.161 C 204.931 130.556, 205 130.493, 205 135.339 M 114.667 134.667 C 114.300 135.033, 114 137.733, 114 140.667 C 114 145.901, 114.055 146, 116.937 146 C 119.754 146, 119.854 145.846, 119.372 142.250 C 118.466 135.475, 117.978 134, 116.648 134 C 115.925 134, 115.033 134.300, 114.667 134.667 M 85 142.500 C 85 146.581, 85.366 148, 86.418 148 C 87.198 148, 88.548 148.273, 89.418 148.607 C 92.004 149.599, 91.664 139.426, 89.066 138.035 C 85.596 136.178, 85 136.832, 85 142.500 M 215 140.759 C 215 143.932, 215.502 144.865, 218 146.341 L 221 148.113 221 144.082 C 221 140.615, 220.581 139.834, 218 138.500 L 215 136.949 215 140.759 M 94 146 C 94 149.650, 94.383 151, 95.418 151 C 96.198 151, 97.548 151.273, 98.418 151.607 C 99.745 152.116, 100 151.309, 100 146.607 C 100 141.044, 99.977 141, 97 141 C 94.067 141, 94 141.111, 94 146 M 205 147.439 C 205 150.855, 205.463 152.177, 206.934 152.965 C 210.212 154.719, 211 154.150, 211 150.026 C 211 146.621, 210.570 145.829, 208 144.500 L 205 142.949 205 147.439 M 146.209 156.601 C 146.484 165.018, 146.624 165.518, 148.793 165.825 C 151.035 166.143, 151.080 165.978, 150.793 158.443 C 150.536 151.692, 150.216 150.548, 148.209 149.219 L 145.918 147.701 146.209 156.601 M 126.750 150.790 C 124.186 152.350, 124 152.920, 124 159.232 C 124 166.345, 124.743 167.269, 128.296 164.574 C 129.782 163.447, 130.041 161.997, 129.796 156.165 L 129.500 149.118 126.750 150.790 M 215 154.465 C 215 156.867, 215.593 158.247, 216.934 158.965 C 219.818 160.508, 220 160.338, 220 156.107 C 220 153.480, 219.486 152.017, 218.418 151.607 C 215.548 150.505, 215 150.963, 215 154.465 M 85 157.393 C 85 161.388, 85.410 162.943, 86.582 163.393 C 90.270 164.808, 91 164.109, 91 159.161 C 91 154.945, 90.672 154.171, 88.453 153.161 C 87.052 152.522, 85.702 152, 85.453 152 C 85.204 152, 85 154.427, 85 157.393 M 114 160.327 L 114 167.654 117 167.213 L 120 166.773 120 159.887 L 120 153 117 153 L 114 153 114 160.327 M 156 159.893 C 156 166.807, 156.068 167, 158.500 167 C 160.910 167, 161 166.767, 161 160.500 C 161 156.925, 160.587 154, 160.082 154 C 159.577 154, 158.452 153.727, 157.582 153.393 C 156.231 152.875, 156 153.823, 156 159.893 M 93.195 159.750 C 93.451 163.732, 93.823 164.500, 95.500 164.500 C 97.177 164.500, 97.549 163.732, 97.805 159.750 C 98.096 155.219, 97.989 155, 95.500 155 C 93.011 155, 92.904 155.219, 93.195 159.750 M 205 160.339 C 205 164.019, 205.387 164.855, 207.547 165.839 C 211.069 167.444, 211 167.507, 211 162.661 C 211 158.981, 210.613 158.145, 208.453 157.161 C 204.931 155.556, 205 155.493, 205 160.339 M 215 167.732 C 215 170.972, 215.448 171.883, 217.500 172.818 C 219.964 173.941, 220 173.893, 220 169.479 C 220 167.015, 219.587 165, 219.082 165 C 218.577 165, 217.452 164.727, 216.582 164.393 C 215.304 163.903, 215 164.545, 215 167.732 M 85 173.087 C 85 177.525, 85.354 179, 86.418 179 C 87.198 179, 88.548 179.273, 89.418 179.607 C 90.740 180.114, 91 179.328, 91 174.826 C 91 169.758, 90.822 169.371, 88 168.306 L 85 167.174 85 173.087 M 205 172.858 C 205 177.103, 205.304 177.848, 207.250 178.370 C 210.851 179.335, 211 179.202, 211 175.026 C 211 171.621, 210.570 170.829, 208 169.500 L 205 167.949 205 172.858 M 93.701 170.632 C 93.316 171.018, 93 173.283, 93 175.667 C 93 179.647, 93.208 180, 95.555 180 C 97.978 180, 98.094 179.756, 97.805 175.259 C 97.591 171.939, 97.036 170.430, 95.951 170.224 C 95.099 170.063, 94.087 170.246, 93.701 170.632 M 126.250 171.220 C 124.241 172.189, 124 173.040, 124 179.153 C 124 186.201, 124.478 186.885, 128.066 184.965 C 129.694 184.093, 130 182.827, 130 176.965 C 130 169.668, 129.873 169.473, 126.250 171.220 M 146.204 178.750 C 146.473 184.883, 146.706 185.529, 148.750 185.820 C 150.884 186.123, 151 185.806, 151 179.677 C 151 174.706, 150.635 173.074, 149.418 172.607 C 146.254 171.393, 145.911 172.048, 146.204 178.750 M 155.838 178.435 C 155.507 184.856, 156.004 186, 159.127 186 C 159.680 186, 159.965 183.123, 159.796 179.260 C 159.561 173.920, 159.155 172.455, 157.838 172.204 C 156.451 171.940, 156.120 172.974, 155.838 178.435 M 115 179.500 C 115 185.767, 115.090 186, 117.500 186 C 119.910 186, 120 185.767, 120 179.500 C 120 173.233, 119.910 173, 117.500 173 C 115.090 173, 115 173.233, 115 179.500 M 215 180.986 C 215 183.862, 215.524 185.210, 216.934 185.965 C 219.814 187.506, 220 187.336, 220 183.161 C 220 180.035, 219.535 179.109, 217.500 178.182 C 215.063 177.072, 215 177.143, 215 180.986 M 205 185.339 C 205 189.019, 205.387 189.855, 207.547 190.839 C 211.069 192.444, 211 192.507, 211 187.661 C 211 183.981, 210.613 183.145, 208.453 182.161 C 204.931 180.556, 205 180.493, 205 185.339 M 85 188.383 C 85 193.121, 85.270 193.839, 87.250 194.370 C 90.889 195.345, 91 195.221, 91 190.161 C 91 185.945, 90.672 185.171, 88.453 184.161 C 87.052 183.522, 85.702 183, 85.453 183 C 85.204 183, 85 185.423, 85 188.383 M 93 190.500 C 93 194.633, 93.204 195, 95.500 195 C 97.796 195, 98 194.633, 98 190.500 C 98 186.367, 97.796 186, 95.500 186 C 93.204 186, 93 186.367, 93 190.500 M 215.185 194.611 C 215.450 197.767, 215.948 198.487, 218.304 199.112 C 221.077 199.848, 221.105 199.810, 220.804 195.678 C 220.531 191.927, 220.212 191.467, 217.685 191.177 C 214.996 190.869, 214.885 191.022, 215.185 194.611 M 205 197.858 C 205 202.103, 205.304 202.848, 207.250 203.370 C 210.851 204.335, 211 204.202, 211 200.026 C 211 196.621, 210.570 195.829, 208 194.500 L 205 192.949 205 197.858" stroke="none" fill="#f9f9f9" fill-rule="evenodd"/><path d="M 133.341 1.398 C 132.704 2.125, 122.873 9.850, 111.494 18.565 L 90.805 34.410 91.382 37.955 C 91.699 39.905, 92.513 45.940, 93.191 51.366 L 94.424 61.232 99.462 65.081 L 104.500 68.930 104.799 64.046 C 105.062 59.771, 105.436 59.039, 107.799 58.183 C 109.285 57.645, 111.287 56.885, 112.250 56.495 C 113.792 55.870, 114 56.448, 114 61.367 C 114 66.557, 113.790 67.057, 111 68.500 C 108.256 69.919, 106.937 71.979, 108.750 72.015 C 109.162 72.023, 111.184 73.486, 113.241 75.265 L 116.982 78.500 114.553 90.500 C 111.663 104.776, 109.680 120.090, 107.044 148.500 C 105.483 165.312, 105.216 173.838, 105.703 191.250 L 106.312 213 102.656 213 C 100.052 213, 99 212.563, 99 211.481 C 99 207.505, 102.256 165.198, 104.011 146.377 C 106.752 116.976, 109.881 93.748, 112.629 82.412 C 113.052 80.667, 110.353 78.242, 96.216 67.662 C 86.911 60.698, 79.005 55, 78.649 55 C 78.292 55, 78 91.225, 78 135.500 C 78 183.720, 77.632 216, 77.082 216 C 76.577 216, 75.454 216.272, 74.588 216.605 C 73.162 217.152, 72.987 209.431, 72.756 135.809 L 72.500 54.409 55.421 67.088 L 38.341 79.766 40.137 88.633 C 44.581 110.574, 48.069 154.186, 50.257 215.197 L 50.534 222.894 42.071 226.166 C 31.789 230.141, 18.205 238.477, 11.678 244.816 C 7.043 249.317, -0 258.104, -0 259.384 C -0 259.723, 60.948 260, 135.441 260 C 236.550 260, 271.062 259.708, 271.594 258.848 C 271.985 258.215, 271.674 257.202, 270.903 256.598 C 270.131 255.994, 268.181 253.558, 266.569 251.185 C 259.291 240.471, 243.374 230.009, 224.591 223.593 C 222.745 222.962, 222.703 221.794, 223.317 188.220 C 223.999 150.895, 225.097 132.183, 227.672 114 C 228.567 107.675, 229.345 101.494, 229.400 100.265 C 229.477 98.552, 226.228 95.352, 215.500 86.573 L 201.500 75.117 201.243 146.127 L 200.987 217.137 198.743 216.819 L 196.500 216.500 196 145.759 L 195.500 75.018 179.196 85.759 L 162.893 96.500 163.420 101 C 166.117 124.045, 169 175.311, 169 200.236 L 169 213 166.500 213 L 164 213 163.996 193.750 C 163.994 183.162, 163.700 168.783, 163.344 161.795 L 162.696 149.090 159.848 148.097 C 157.108 147.142, 157 146.855, 157 140.552 C 157 134.201, 157.078 134, 159.542 134 L 162.083 134 161.442 126.250 C 160.566 115.673, 158.278 97.834, 157.561 95.994 C 157.164 94.977, 158.288 93.679, 161.026 91.994 L 165.078 89.500 161.980 88.223 C 159.780 87.316, 159.029 86.447, 159.388 85.223 C 159.666 84.275, 160.192 81.813, 160.558 79.750 C 161.297 75.578, 161.378 75.539, 165.941 77.129 C 169.009 78.199, 169.163 78.488, 168.836 82.588 C 168.511 86.685, 168.597 86.848, 170.442 85.623 C 172.117 84.510, 172.859 80.828, 175.708 59.509 C 177.531 45.859, 178.906 34.583, 178.762 34.451 C 175.639 31.603, 140.279 4.004, 139.750 4.003 C 139.338 4.001, 139 50.833, 139 108.073 C 139 200.726, 138.833 212.111, 137.478 211.823 C 136.127 211.536, 135.956 199.621, 135.958 105.750 C 135.959 47.588, 135.632 0.017, 135.230 0.038 C 134.829 0.059, 133.979 0.671, 133.341 1.398 M 125 28.291 L 120.500 30.500 120.367 37.250 C 120.294 40.962, 120.622 44, 121.097 44 C 121.571 44, 123.769 43.276, 125.980 42.391 L 130 40.783 130 33.391 C 130 29.326, 129.887 26.019, 129.750 26.041 C 129.613 26.064, 127.475 27.076, 125 28.291 M 146 32.967 L 146 39.916 150.338 42.458 C 152.724 43.856, 154.908 45, 155.193 45 C 155.477 45, 155.789 42.122, 155.886 38.605 L 156.062 32.210 151.031 29.114 L 146 26.018 146 32.967 M 106.500 38.170 C 104.300 39.314, 102.394 40.338, 102.265 40.444 C 101.691 40.915, 104.494 52, 105.186 52 C 105.612 52, 107.802 51.263, 110.054 50.362 C 113.411 49.018, 114.053 48.344, 113.622 46.612 C 113.332 45.450, 112.792 42.587, 112.420 40.250 C 112.048 37.913, 111.464 36.020, 111.122 36.044 C 110.780 36.069, 108.700 37.025, 106.500 38.170 M 162.835 42.380 L 162.500 48.759 166.907 50.390 C 169.330 51.287, 171.558 51.775, 171.858 51.476 C 172.157 51.176, 172.675 48.454, 173.008 45.427 L 173.614 39.923 169.180 37.961 C 166.741 36.883, 164.391 36, 163.958 36 C 163.525 36, 163.020 38.871, 162.835 42.380 M 125.500 48.984 C 122.743 50.795, 122.459 51.524, 122 57.990 C 121.575 63.973, 121.724 64.933, 123 64.410 C 123.825 64.072, 125.737 63.347, 127.250 62.800 C 129.913 61.836, 130 61.569, 130 54.402 C 130 50.331, 129.662 47.003, 129.250 47.007 C 128.838 47.010, 127.150 47.900, 125.500 48.984 M 146 53.815 L 146 60.630 149.534 62.315 C 151.478 63.242, 153.278 64, 153.534 64 C 153.790 64, 154 60.933, 154 57.185 L 154 50.370 150.466 48.685 C 148.522 47.758, 146.722 47, 146.466 47 C 146.210 47, 146 50.067, 146 53.815 M 162 58.875 C 162 61.006, 161.736 64.072, 161.412 65.689 C 160.869 68.406, 161.147 68.754, 165.090 70.303 C 167.436 71.225, 169.444 71.871, 169.552 71.739 C 169.661 71.608, 170.175 68.479, 170.694 64.786 L 171.638 58.072 167.799 56.536 C 162.387 54.371, 162 54.527, 162 58.875 M 125.750 68.658 L 122 70.214 122 77.107 C 122 80.898, 122.383 84, 122.851 84 C 123.319 84, 125.119 83.506, 126.851 82.902 L 130 81.804 130 74.402 C 130 70.331, 129.887 67.023, 129.750 67.052 C 129.613 67.080, 127.813 67.803, 125.750 68.658 M 146 73.842 C 146 80.758, 146.023 80.816, 149.557 82.901 C 151.514 84.056, 153.314 85, 153.557 85 C 153.801 85, 154 82.106, 154 78.568 C 154 72.680, 153.768 71.975, 151.250 70.232 C 145.849 66.492, 146 66.389, 146 73.842 M 85 80.383 C 85 85.121, 85.270 85.839, 87.250 86.370 C 90.889 87.345, 91 87.221, 91 82.161 C 91 77.945, 90.672 77.171, 88.453 76.161 C 87.052 75.522, 85.702 75, 85.453 75 C 85.204 75, 85 77.423, 85 80.383 M 99 83.375 C 99 84.681, 98.736 87.069, 98.414 88.681 C 97.874 91.379, 98.129 91.704, 101.613 92.773 C 103.695 93.412, 105.509 93.824, 105.644 93.689 C 105.780 93.554, 106.320 91.530, 106.846 89.191 L 107.801 84.939 103.940 82.970 C 99.090 80.495, 99 80.503, 99 83.375 M 146 93.876 C 146 100.697, 146.105 101.003, 148.950 102.474 C 150.573 103.313, 152.169 104, 152.496 104 C 152.823 104, 152.958 101.055, 152.796 97.455 C 152.517 91.292, 152.310 90.790, 149.250 88.857 L 146 86.804 146 93.876 M 125.250 89.745 C 122.052 91.337, 122 91.473, 122 98.288 C 122 104.213, 122.230 105.126, 123.593 104.603 C 124.469 104.267, 126.269 103.720, 127.593 103.387 C 129.864 102.817, 130 102.366, 130 95.392 C 130 91.326, 129.662 88.029, 129.250 88.064 C 128.838 88.099, 127.037 88.856, 125.250 89.745 M 85.202 95.751 C 85.477 100.926, 85.715 101.422, 88.250 102.096 C 90.991 102.825, 91 102.810, 91 97.633 C 91 92.762, 90.810 92.367, 87.952 91.288 L 84.904 90.138 85.202 95.751 M 205 97.439 C 205 100.855, 205.463 102.177, 206.934 102.965 C 210.212 104.719, 211 104.150, 211 100.026 C 211 96.621, 210.570 95.829, 208 94.500 L 205 92.949 205 97.439 M 98 101.156 C 98 105.101, 98.304 105.676, 100.905 106.658 C 103.797 107.750, 103.813 107.735, 104.480 103.286 C 104.848 100.828, 104.971 98.638, 104.752 98.419 C 104.533 98.200, 102.924 97.735, 101.177 97.385 L 98 96.750 98 101.156 M 216 102.401 C 216 105.239, 216.590 106.150, 219.557 107.901 C 221.514 109.056, 223.314 110, 223.557 110 C 223.801 110, 224 108.206, 224 106.013 C 224 102.377, 223.682 101.894, 220.378 100.513 C 215.728 98.570, 216 98.453, 216 102.401 M 85 111.383 C 85 116.121, 85.270 116.839, 87.250 117.370 C 90.896 118.347, 91 118.225, 91 112.975 C 91 108.502, 90.719 107.844, 88.435 106.975 C 87.024 106.439, 85.674 106, 85.435 106 C 85.196 106, 85 108.423, 85 111.383 M 205 110.339 C 205 114.019, 205.387 114.855, 207.547 115.839 C 211.076 117.447, 211 117.521, 211 112.475 C 211 108.538, 210.667 107.824, 208.435 106.975 C 204.884 105.625, 205 105.511, 205 110.339 M 126.250 109.745 C 123.028 111.349, 123 111.425, 123 118.665 L 123 125.968 126.500 124.299 L 130 122.630 130 115.315 C 130 111.292, 129.887 108.029, 129.750 108.064 C 129.613 108.099, 128.037 108.856, 126.250 109.745 M 146 114.531 C 146 120.203, 146.330 121.455, 148.250 123.056 C 149.488 124.089, 150.838 124.948, 151.250 124.967 C 151.662 124.985, 152 122.145, 152 118.655 C 152 113.851, 151.575 111.945, 150.250 110.807 C 146.251 107.373, 146 107.593, 146 114.531 M 96.625 114.125 C 96.281 115.844, 96 117.997, 96 118.909 C 96 120.698, 101.302 124.364, 102.360 123.307 C 102.712 122.955, 103 120.481, 103 117.809 C 103 113.514, 102.703 112.837, 100.435 111.975 C 99.024 111.439, 97.730 111, 97.560 111 C 97.389 111, 96.969 112.406, 96.625 114.125 M 215 114.990 C 215 118.362, 215.437 119.175, 217.950 120.474 C 221.957 122.546, 222 122.522, 222 118.185 C 222 114.810, 221.597 114.178, 218.500 112.701 L 215 111.032 215 114.990 M 114.354 115.245 C 112.177 116.227, 111 119.717, 111 125.188 C 111 127.901, 111.250 128.103, 114.250 127.813 C 117.199 127.529, 117.528 127.162, 117.804 123.850 C 117.972 121.842, 117.747 118.867, 117.304 117.238 C 116.603 114.657, 116.224 114.401, 114.354 115.245 M 205 122.439 C 205 125.855, 205.463 127.177, 206.934 127.965 C 210.212 129.719, 211 129.150, 211 125.026 C 211 121.621, 210.570 120.829, 208 119.500 L 205 117.949 205 122.439 M 85 126.454 C 85 131.500, 85.171 131.864, 88 132.850 L 91 133.896 91 128.546 C 91 123.500, 90.829 123.136, 88 122.150 L 85 121.104 85 126.454 M 215 127.974 C 215 131.364, 215.434 132.173, 217.950 133.474 C 221.968 135.552, 222 135.533, 222 131.026 C 222 127.636, 221.566 126.827, 219.050 125.526 C 215.032 123.448, 215 123.467, 215 127.974 M 95.524 126.810 C 95.236 127.098, 95 129.073, 95 131.199 C 95 134.289, 95.451 135.235, 97.250 135.915 C 100.434 137.118, 101 136.460, 101 131.558 C 101 127.750, 100.704 127.177, 98.524 126.760 C 97.161 126.499, 95.811 126.522, 95.524 126.810 M 146 134.873 C 146 141.499, 146.156 141.975, 149 144 L 152 146.136 152 139.223 C 152 133.878, 151.603 131.969, 150.250 130.807 C 146.231 127.355, 146 127.576, 146 134.873 M 126.223 130.557 C 124.289 131.911, 124 133.015, 124 139.057 C 124 142.876, 124.241 146, 124.535 146 C 124.830 146, 126.180 145.273, 127.535 144.385 C 129.760 142.927, 130 142.099, 130 135.885 C 130 132.098, 129.650 129, 129.223 129 C 128.795 129, 127.445 129.701, 126.223 130.557 M 205 135.339 C 205 139.019, 205.387 139.855, 207.547 140.839 C 211.069 142.444, 211 142.507, 211 137.661 C 211 133.981, 210.613 133.145, 208.453 132.161 C 204.931 130.556, 205 130.493, 205 135.339 M 114.667 134.667 C 114.300 135.033, 114 137.733, 114 140.667 C 114 145.901, 114.055 146, 116.937 146 C 119.754 146, 119.854 145.846, 119.372 142.250 C 118.466 135.475, 117.978 134, 116.648 134 C 115.925 134, 115.033 134.300, 114.667 134.667 M 85 142.500 C 85 146.581, 85.366 148, 86.418 148 C 87.198 148, 88.548 148.273, 89.418 148.607 C 92.004 149.599, 91.664 139.426, 89.066 138.035 C 85.596 136.178, 85 136.832, 85 142.500 M 215 140.759 C 215 143.932, 215.502 144.865, 218 146.341 L 221 148.113 221 144.082 C 221 140.615, 220.581 139.834, 218 138.500 L 215 136.949 215 140.759 M 94 146 C 94 149.650, 94.383 151, 95.418 151 C 96.198 151, 97.548 151.273, 98.418 151.607 C 99.745 152.116, 100 151.309, 100 146.607 C 100 141.044, 99.977 141, 97 141 C 94.067 141, 94 141.111, 94 146 M 205 147.439 C 205 150.855, 205.463 152.177, 206.934 152.965 C 210.212 154.719, 211 154.150, 211 150.026 C 211 146.621, 210.570 145.829, 208 144.500 L 205 142.949 205 147.439 M 146.209 156.601 C 146.484 165.018, 146.624 165.518, 148.793 165.825 C 151.035 166.143, 151.080 165.978, 150.793 158.443 C 150.536 151.692, 150.216 150.548, 148.209 149.219 L 145.918 147.701 146.209 156.601 M 126.750 150.790 C 124.186 152.350, 124 152.920, 124 159.232 C 124 166.345, 124.743 167.269, 128.296 164.574 C 129.782 163.447, 130.041 161.997, 129.796 156.165 L 129.500 149.118 126.750 150.790 M 215 154.465 C 215 156.867, 215.593 158.247, 216.934 158.965 C 219.818 160.508, 220 160.338, 220 156.107 C 220 153.480, 219.486 152.017, 218.418 151.607 C 215.548 150.505, 215 150.963, 215 154.465 M 85 157.393 C 85 161.388, 85.410 162.943, 86.582 163.393 C 90.270 164.808, 91 164.109, 91 159.161 C 91 154.945, 90.672 154.171, 88.453 153.161 C 87.052 152.522, 85.702 152, 85.453 152 C 85.204 152, 85 154.427, 85 157.393 M 114 160.327 L 114 167.654 117 167.213 L 120 166.773 120 159.887 L 120 153 117 153 L 114 153 114 160.327 M 156 159.893 C 156 166.807, 156.068 167, 158.500 167 C 160.910 167, 161 166.767, 161 160.500 C 161 156.925, 160.587 154, 160.082 154 C 159.577 154, 158.452 153.727, 157.582 153.393 C 156.231 152.875, 156 153.823, 156 159.893 M 93.195 159.750 C 93.451 163.732, 93.823 164.500, 95.500 164.500 C 97.177 164.500, 97.549 163.732, 97.805 159.750 C 98.096 155.219, 97.989 155, 95.500 155 C 93.011 155, 92.904 155.219, 93.195 159.750 M 205 160.339 C 205 164.019, 205.387 164.855, 207.547 165.839 C 211.069 167.444, 211 167.507, 211 162.661 C 211 158.981, 210.613 158.145, 208.453 157.161 C 204.931 155.556, 205 155.493, 205 160.339 M 215 167.732 C 215 170.972, 215.448 171.883, 217.500 172.818 C 219.964 173.941, 220 173.893, 220 169.479 C 220 167.015, 219.587 165, 219.082 165 C 218.577 165, 217.452 164.727, 216.582 164.393 C 215.304 163.903, 215 164.545, 215 167.732 M 85 173.087 C 85 177.525, 85.354 179, 86.418 179 C 87.198 179, 88.548 179.273, 89.418 179.607 C 90.740 180.114, 91 179.328, 91 174.826 C 91 169.758, 90.822 169.371, 88 168.306 L 85 167.174 85 173.087 M 205 172.858 C 205 177.103, 205.304 177.848, 207.250 178.370 C 210.851 179.335, 211 179.202, 211 175.026 C 211 171.621, 210.570 170.829, 208 169.500 L 205 167.949 205 172.858 M 93.701 170.632 C 93.316 171.018, 93 173.283, 93 175.667 C 93 179.647, 93.208 180, 95.555 180 C 97.978 180, 98.094 179.756, 97.805 175.259 C 97.591 171.939, 97.036 170.430, 95.951 170.224 C 95.099 170.063, 94.087 170.246, 93.701 170.632 M 126.250 171.220 C 124.241 172.189, 124 173.040, 124 179.153 C 124 186.201, 124.478 186.885, 128.066 184.965 C 129.694 184.093, 130 182.827, 130 176.965 C 130 169.668, 129.873 169.473, 126.250 171.220 M 146.204 178.750 C 146.473 184.883, 146.706 185.529, 148.750 185.820 C 150.884 186.123, 151 185.806, 151 179.677 C 151 174.706, 150.635 173.074, 149.418 172.607 C 146.254 171.393, 145.911 172.048, 146.204 178.750 M 155.838 178.435 C 155.507 184.856, 156.004 186, 159.127 186 C 159.680 186, 159.965 183.123, 159.796 179.260 C 159.561 173.920, 159.155 172.455, 157.838 172.204 C 156.451 171.940, 156.120 172.974, 155.838 178.435 M 115 179.500 C 115 185.767, 115.090 186, 117.500 186 C 119.910 186, 120 185.767, 120 179.500 C 120 173.233, 119.910 173, 117.500 173 C 115.090 173, 115 173.233, 115 179.500 M 215 180.986 C 215 183.862, 215.524 185.210, 216.934 185.965 C 219.814 187.506, 220 187.336, 220 183.161 C 220 180.035, 219.535 179.109, 217.500 178.182 C 215.063 177.072, 215 177.143, 215 180.986 M 205 185.339 C 205 189.019, 205.387 189.855, 207.547 190.839 C 211.069 192.444, 211 192.507, 211 187.661 C 211 183.981, 210.613 183.145, 208.453 182.161 C 204.931 180.556, 205 180.493, 205 185.339 M 85 188.383 C 85 193.121, 85.270 193.839, 87.250 194.370 C 90.889 195.345, 91 195.221, 91 190.161 C 91 185.945, 90.672 185.171, 88.453 184.161 C 87.052 183.522, 85.702 183, 85.453 183 C 85.204 183, 85 185.423, 85 188.383 M 93 190.500 C 93 194.633, 93.204 195, 95.500 195 C 97.796 195, 98 194.633, 98 190.500 C 98 186.367, 97.796 186, 95.500 186 C 93.204 186, 93 186.367, 93 190.500 M 215.185 194.611 C 215.450 197.767, 215.948 198.487, 218.304 199.112 C 221.077 199.848, 221.105 199.810, 220.804 195.678 C 220.531 191.927, 220.212 191.467, 217.685 191.177 C 214.996 190.869, 214.885 191.022, 215.185 194.611 M 205 197.858 C 205 202.103, 205.304 202.848, 207.250 203.370 C 210.851 204.335, 211 204.202, 211 200.026 C 211 196.621, 210.570 195.829, 208 194.500 L 205 192.949 205 197.858" stroke="none" fill="#080808" fill-rule="evenodd"/></svg>