<svg xmlns="http://www.w3.org/2000/svg" width="262" height="261" viewBox="0 0 262 261" version="1.1"><path d="M 162.571 2.571 C 161.707 3.436, 161 4.503, 161 4.942 C 161 5.382, 164.797 9.775, 169.438 14.705 L 177.875 23.668 167.438 34.832 L 157 45.995 157 36.620 C 157 29.826, 156.616 26.927, 155.607 26.089 C 154.685 25.323, 150.374 25.028, 142.857 25.216 L 131.500 25.500 131 50.057 L 130.500 74.614 121.524 84.335 C 111.027 95.703, 110.426 96.604, 112.043 98.552 C 113.932 100.828, 116.603 100.260, 119.347 97 C 120.735 95.350, 122.012 93.999, 122.185 93.998 C 122.358 93.997, 122.363 100.072, 122.196 107.498 L 121.892 121 89.068 121 C 63.554 121, 56.007 121.286, 55.179 122.285 C 54.592 122.992, 53.295 130.979, 52.297 140.035 L 50.482 156.500 29.210 156.770 C 8.269 157.036, 7.925 157.075, 7.018 159.270 C 5.850 162.099, 0.680 198.004, 0.577 204 C 0.505 208.234, 0.691 208.556, 3.733 209.452 L 6.965 210.404 7.233 234.452 L 7.500 258.500 133.946 258.754 C 203.492 258.893, 260.745 258.655, 261.176 258.224 C 261.606 257.794, 262.028 240.796, 262.113 220.451 L 262.267 183.461 259.683 178.361 C 256.542 172.162, 252.512 168.619, 245.952 166.289 L 241 164.531 241 128.765 C 241 109.094, 241.367 93, 241.816 93 C 242.265 93, 244.057 94.610, 245.799 96.577 C 249.083 100.286, 251.526 100.706, 253.313 97.868 C 254.637 95.765, 255.761 97.070, 214.584 52.890 C 170.670 5.774, 166.112 1, 165.039 1 C 164.546 1, 163.436 1.707, 162.571 2.571 M 156.181 57.232 L 129.924 85.500 129.932 119.500 L 129.941 153.500 139.876 153.784 C 146.717 153.979, 150.161 154.489, 150.935 155.421 C 151.678 156.317, 151.964 161.460, 151.779 170.637 L 151.500 184.500 147.750 184.810 L 144 185.121 144 218.560 L 144 252 148.987 252 L 153.973 252 154.237 218.750 L 154.500 185.500 175.428 185.229 C 191.503 185.021, 196.543 185.253, 197.163 186.229 C 197.606 186.928, 197.976 192.740, 197.985 199.144 L 198 210.788 205.750 208.291 C 210.012 206.918, 218.113 205.295, 223.750 204.684 L 234 203.574 234 143.848 L 234 84.123 212.381 60.811 C 200.490 47.990, 188.888 35.579, 186.599 33.232 L 182.438 28.964 156.181 57.232 M 137.796 49.001 C 137.633 58.352, 137.783 66.002, 138.128 66.001 C 138.473 66.001, 141.286 63.118, 144.378 59.596 L 150 53.193 150 42.596 L 150 32 144.046 32 L 138.091 32 137.796 49.001 M 178 44.704 C 175.476 45.622, 171.211 50.075, 169.958 53.101 C 167.341 59.418, 171.931 68.096, 178.878 69.967 C 185.287 71.693, 191.459 68.880, 194.602 62.802 C 199.756 52.835, 188.719 40.803, 178 44.704 M 178.637 52.506 C 174.977 56.166, 175.940 61.266, 180.626 63.048 C 184.586 64.553, 189 61.136, 189 56.566 C 189 52.217, 181.761 49.382, 178.637 52.506 M 139.667 99.667 C 138.395 100.938, 138.900 147.500, 140.200 148.800 C 141.029 149.629, 146.126 150, 156.665 150 C 170.733 150, 172.011 149.848, 172.965 148.066 C 173.587 146.903, 174 137.499, 174 124.500 C 174 111.501, 173.587 102.097, 172.965 100.934 C 172.008 99.147, 170.727 99, 156.131 99 C 147.443 99, 140.033 99.300, 139.667 99.667 M 191.048 100.910 C 189.650 103.522, 189.638 145.456, 191.035 148.066 C 191.990 149.849, 193.258 149.999, 207.285 149.985 C 215.653 149.976, 223.071 149.607, 223.768 149.164 C 224.748 148.542, 224.975 142.807, 224.768 123.930 L 224.500 99.500 208.298 99.225 C 193.082 98.968, 192.033 99.070, 191.048 100.910 M 146 113.500 L 146 121 149.500 121 L 153 121 153 113.500 L 153 106 149.500 106 L 146 106 146 113.500 M 160 113.500 L 160 121 163.500 121 L 167 121 167 113.500 L 167 106 163.500 106 L 160 106 160 113.500 M 197 113.500 L 197 121 200.500 121 L 204 121 204 113.500 L 204 106 200.500 106 L 197 106 197 113.500 M 211 113.500 L 211 121 214.500 121 L 218 121 218 113.500 L 218 106 214.500 106 L 211 106 211 113.500 M 60.558 130.250 C 60.293 131.488, 59.149 141.050, 58.015 151.500 C 56.880 161.950, 55.698 172.188, 55.388 174.250 L 54.824 178 99.912 178 L 145 178 145 169.500 L 145 161 134.475 161 C 124.098 161, 123.937 160.964, 122.975 158.435 C 122.439 157.024, 122 149.599, 122 141.935 L 122 128 91.519 128 L 61.038 128 60.558 130.250 M 146 135.500 L 146 143 149.500 143 L 153 143 153 135.500 L 153 128 149.500 128 L 146 128 146 135.500 M 160 135.500 L 160 143 163.500 143 L 167 143 167 135.500 L 167 128 163.500 128 L 160 128 160 135.500 M 197 135.500 L 197 143 200.500 143 L 204 143 204 135.500 L 204 128 200.500 128 L 197 128 197 135.500 M 211 135.500 L 211 143 214.500 143 L 218 143 218 135.500 L 218 128 214.500 128 L 211 128 211 135.500 M 12.533 167.250 C 11.472 173.429, 8 199.452, 8 201.223 C 8 202.876, 9.669 203, 32 203 L 56 203 56 194 L 56 185 52.469 185 C 47.880 185, 47.523 183.875, 48.640 172.926 L 49.551 164 31.321 164 L 13.091 164 12.533 167.250 M 241 175.300 L 241 178.815 246.501 179.157 C 249.527 179.346, 252.002 179.203, 252.001 178.839 C 252 177.951, 246.068 173, 245.005 173 C 244.542 173, 243.452 172.727, 242.582 172.393 C 241.324 171.910, 241 172.507, 241 175.300 M 63 218.500 L 63 252 100 252 L 137 252 137 218.467 L 137 184.934 125.750 185.217 L 114.500 185.500 114 205 L 113.500 224.500 97.006 224.776 C 82.374 225.021, 80.369 224.858, 79.256 223.335 C 78.356 222.105, 78 216.421, 78 203.309 L 78 185 70.500 185 L 63 185 63 218.500 M 85.667 185.667 C 85.300 186.033, 85 193.458, 85 202.167 L 85 218 89 218 L 93 218 93 201.500 L 93 185 89.667 185 C 87.833 185, 86.033 185.300, 85.667 185.667 M 100 201.500 L 100 218 103.500 218 L 107 218 107 201.500 L 107 185 103.500 185 L 100 185 100 201.500 M 241.667 186.667 C 241.300 187.033, 241 188.158, 241 189.167 C 241 190.770, 241.879 191, 248 191 C 254.800 191, 255 190.929, 255 188.500 C 255 186.096, 254.756 186, 248.667 186 C 245.183 186, 242.033 186.300, 241.667 186.667 M 161 222.059 C 161 241.844, 161.342 251.907, 162 251.500 C 162.550 251.160, 163 250.322, 163 249.638 C 163 248.954, 164.730 244.818, 166.844 240.447 C 171.129 231.588, 178.378 223.028, 185.939 217.899 L 190.948 214.500 190.974 203.250 L 191 192 176 192 L 161 192 161 222.059 M 241 200.500 C 241 202.216, 241.549 202.999, 242.750 202.996 C 244.515 202.992, 251 199.470, 251 198.515 C 251 198.232, 248.750 198, 246 198 C 241.333 198, 241 198.167, 241 200.500 M 0.272 204 C 0.272 206.475, 0.467 207.488, 0.706 206.250 C 0.944 205.012, 0.944 202.988, 0.706 201.750 C 0.467 200.512, 0.272 201.525, 0.272 204 M 249.609 207.897 C 245.479 210.024, 242.759 210.525, 232.109 211.125 C 218.315 211.901, 213.416 212.793, 203.823 216.275 C 190.347 221.167, 178.692 231.617, 172.548 244.319 L 169.074 251.500 211.693 251.761 C 235.133 251.904, 254.475 251.858, 254.675 251.659 C 254.874 251.459, 254.917 240.965, 254.769 228.338 L 254.500 205.380 249.609 207.897 M 14 231 L 14 252 16.500 252 L 19 252 19 231 L 19 210 16.500 210 L 14 210 14 231 M 26 231 L 26 252 28.500 252 L 31 252 31 231 L 31 210 28.500 210 L 26 210 26 231 M 38 231 L 38 252 41 252 L 44 252 44 231 L 44 210 41 210 L 38 210 38 231 M 51 231 L 51 252 53.500 252 L 56 252 56 231 L 56 210 53.500 210 L 51 210 51 231" stroke="none" fill="#0c0c0c" fill-rule="evenodd"/><path d="M 0 100.167 C 0 155.258, 0.212 200.121, 0.471 199.862 C 0.731 199.603, 2.102 190.865, 3.520 180.445 C 4.938 170.025, 6.512 160.496, 7.018 159.270 C 7.925 157.075, 8.269 157.036, 29.210 156.770 L 50.482 156.500 52.297 140.035 C 53.295 130.979, 54.592 122.992, 55.179 122.285 C 56.007 121.286, 63.554 121, 89.068 121 L 121.892 121 122.196 107.498 C 122.363 100.072, 122.358 93.997, 122.185 93.998 C 122.012 93.999, 120.735 95.350, 119.347 97 C 116.603 100.260, 113.932 100.828, 112.043 98.552 C 110.426 96.604, 111.027 95.703, 121.524 84.335 L 130.500 74.614 131 50.057 L 131.500 25.500 142.857 25.216 C 150.374 25.028, 154.685 25.323, 155.607 26.089 C 156.616 26.927, 157 29.826, 157 36.620 L 157 45.995 167.438 34.832 L 177.875 23.668 169.438 14.705 C 164.797 9.775, 161 5.382, 161 4.942 C 161 3.857, 163.927 1, 165.039 1 C 166.112 1, 170.670 5.774, 214.584 52.890 C 255.761 97.070, 254.637 95.765, 253.313 97.868 C 251.526 100.706, 249.083 100.286, 245.799 96.577 C 244.057 94.610, 242.265 93, 241.816 93 C 241.367 93, 241 109.094, 241 128.765 L 241 164.531 245.952 166.289 C 256.730 170.117, 261.185 176.810, 262.068 190.500 C 262.388 195.450, 262.728 154.613, 262.825 99.750 L 263 0 131.500 0 L 0 0 0 100.167 M 0.481 100.500 C 0.481 155.500, 0.602 178.147, 0.750 150.826 C 0.898 123.506, 0.898 78.506, 0.750 50.826 C 0.602 23.147, 0.481 45.500, 0.481 100.500 M 156.181 57.232 L 129.924 85.500 129.932 119.500 L 129.941 153.500 139.876 153.784 C 146.717 153.979, 150.161 154.489, 150.935 155.421 C 151.678 156.317, 151.964 161.460, 151.779 170.637 L 151.500 184.500 147.750 184.810 L 144 185.121 144 218.560 L 144 252 148.987 252 L 153.973 252 154.237 218.750 L 154.500 185.500 175.428 185.229 C 191.503 185.021, 196.543 185.253, 197.163 186.229 C 197.606 186.928, 197.976 192.740, 197.985 199.144 L 198 210.788 205.750 208.291 C 210.012 206.918, 218.113 205.295, 223.750 204.684 L 234 203.574 234 143.848 L 234 84.123 212.381 60.811 C 200.490 47.990, 188.888 35.579, 186.599 33.232 L 182.438 28.964 156.181 57.232 M 137.796 49.001 C 137.633 58.352, 137.783 66.002, 138.128 66.001 C 138.473 66.001, 141.286 63.118, 144.378 59.596 L 150 53.193 150 42.596 L 150 32 144.046 32 L 138.091 32 137.796 49.001 M 178 44.704 C 175.476 45.622, 171.211 50.075, 169.958 53.101 C 167.341 59.418, 171.931 68.096, 178.878 69.967 C 185.287 71.693, 191.459 68.880, 194.602 62.802 C 199.756 52.835, 188.719 40.803, 178 44.704 M 178.637 52.506 C 174.977 56.166, 175.940 61.266, 180.626 63.048 C 184.586 64.553, 189 61.136, 189 56.566 C 189 52.217, 181.761 49.382, 178.637 52.506 M 139.667 99.667 C 138.395 100.938, 138.900 147.500, 140.200 148.800 C 141.029 149.629, 146.126 150, 156.665 150 C 170.733 150, 172.011 149.848, 172.965 148.066 C 173.587 146.903, 174 137.499, 174 124.500 C 174 111.501, 173.587 102.097, 172.965 100.934 C 172.008 99.147, 170.727 99, 156.131 99 C 147.443 99, 140.033 99.300, 139.667 99.667 M 191.048 100.910 C 189.650 103.522, 189.638 145.456, 191.035 148.066 C 191.990 149.849, 193.258 149.999, 207.285 149.985 C 215.653 149.976, 223.071 149.607, 223.768 149.164 C 224.748 148.542, 224.975 142.807, 224.768 123.930 L 224.500 99.500 208.298 99.225 C 193.082 98.968, 192.033 99.070, 191.048 100.910 M 146 113.500 L 146 121 149.500 121 L 153 121 153 113.500 L 153 106 149.500 106 L 146 106 146 113.500 M 160 113.500 L 160 121 163.500 121 L 167 121 167 113.500 L 167 106 163.500 106 L 160 106 160 113.500 M 197 113.500 L 197 121 200.500 121 L 204 121 204 113.500 L 204 106 200.500 106 L 197 106 197 113.500 M 211 113.500 L 211 121 214.500 121 L 218 121 218 113.500 L 218 106 214.500 106 L 211 106 211 113.500 M 60.558 130.250 C 60.293 131.488, 59.149 141.050, 58.015 151.500 C 56.880 161.950, 55.698 172.188, 55.388 174.250 L 54.824 178 99.912 178 L 145 178 145 169.500 L 145 161 134.475 161 C 124.098 161, 123.937 160.964, 122.975 158.435 C 122.439 157.024, 122 149.599, 122 141.935 L 122 128 91.519 128 L 61.038 128 60.558 130.250 M 146 135.500 L 146 143 149.500 143 L 153 143 153 135.500 L 153 128 149.500 128 L 146 128 146 135.500 M 160 135.500 L 160 143 163.500 143 L 167 143 167 135.500 L 167 128 163.500 128 L 160 128 160 135.500 M 197 135.500 L 197 143 200.500 143 L 204 143 204 135.500 L 204 128 200.500 128 L 197 128 197 135.500 M 211 135.500 L 211 143 214.500 143 L 218 143 218 135.500 L 218 128 214.500 128 L 211 128 211 135.500 M 12.533 167.250 C 11.472 173.429, 8 199.452, 8 201.223 C 8 202.876, 9.669 203, 32 203 L 56 203 56 194 L 56 185 52.469 185 C 47.880 185, 47.523 183.875, 48.640 172.926 L 49.551 164 31.321 164 L 13.091 164 12.533 167.250 M 241 175.300 L 241 178.815 246.501 179.157 C 249.527 179.346, 252.002 179.203, 252.001 178.839 C 252 177.951, 246.068 173, 245.005 173 C 244.542 173, 243.452 172.727, 242.582 172.393 C 241.324 171.910, 241 172.507, 241 175.300 M 63 218.500 L 63 252 100 252 L 137 252 137 218.467 L 137 184.934 125.750 185.217 L 114.500 185.500 114 205 L 113.500 224.500 97.006 224.776 C 82.374 225.021, 80.369 224.858, 79.256 223.335 C 78.356 222.105, 78 216.421, 78 203.309 L 78 185 70.500 185 L 63 185 63 218.500 M 85.667 185.667 C 85.300 186.033, 85 193.458, 85 202.167 L 85 218 89 218 L 93 218 93 201.500 L 93 185 89.667 185 C 87.833 185, 86.033 185.300, 85.667 185.667 M 100 201.500 L 100 218 103.500 218 L 107 218 107 201.500 L 107 185 103.500 185 L 100 185 100 201.500 M 241.667 186.667 C 241.300 187.033, 241 188.158, 241 189.167 C 241 190.770, 241.879 191, 248 191 C 254.800 191, 255 190.929, 255 188.500 C 255 186.096, 254.756 186, 248.667 186 C 245.183 186, 242.033 186.300, 241.667 186.667 M 161 222.059 C 161 241.844, 161.342 251.907, 162 251.500 C 162.550 251.160, 163 250.322, 163 249.638 C 163 248.954, 164.730 244.818, 166.844 240.447 C 171.129 231.588, 178.378 223.028, 185.939 217.899 L 190.948 214.500 190.974 203.250 L 191 192 176 192 L 161 192 161 222.059 M 241 200.500 C 241 202.216, 241.549 202.999, 242.750 202.996 C 244.515 202.992, 251 199.470, 251 198.515 C 251 198.232, 248.750 198, 246 198 C 241.333 198, 241 198.167, 241 200.500 M 249.609 207.897 C 245.479 210.024, 242.759 210.525, 232.109 211.125 C 218.315 211.901, 213.416 212.793, 203.823 216.275 C 190.347 221.167, 178.692 231.617, 172.548 244.319 L 169.074 251.500 211.693 251.761 C 235.133 251.904, 254.475 251.858, 254.675 251.659 C 254.874 251.459, 254.917 240.965, 254.769 228.338 L 254.500 205.380 249.609 207.897 M 0 234.653 L -0 261.007 131.250 260.754 L 262.500 260.500 262.534 233.500 L 262.568 206.500 262.034 232.500 L 261.500 258.500 134.500 258.500 L 7.500 258.500 7.233 234.489 L 6.966 210.479 3.483 209.389 L 0 208.298 0 234.653 M 0.438 234.500 C 0.437 249.350, 0.576 255.564, 0.747 248.310 C 0.918 241.055, 0.918 228.905, 0.748 221.310 C 0.578 213.714, 0.438 219.650, 0.438 234.500 M 14 231 L 14 252 16.500 252 L 19 252 19 231 L 19 210 16.500 210 L 14 210 14 231 M 26 231 L 26 252 28.500 252 L 31 252 31 231 L 31 210 28.500 210 L 26 210 26 231 M 38 231 L 38 252 41 252 L 44 252 44 231 L 44 210 41 210 L 38 210 38 231 M 51 231 L 51 252 53.500 252 L 56 252 56 231 L 56 210 53.500 210 L 51 210 51 231" stroke="none" fill="#f9f9f9" fill-rule="evenodd"/></svg>