<svg xmlns="http://www.w3.org/2000/svg" width="252" height="234" viewBox="0 0 252 234" version="1.1"><path d="M 60.747 60.753 L 0 121.506 0 128.753 L 0 136 16.500 136 L 33 136 33 183.800 C 33 219.644, 33.300 231.900, 34.200 232.800 C 35.939 234.539, 211.061 234.539, 212.800 232.800 C 213.700 231.900, 214 219.649, 214 183.822 L 214 136.043 233.250 135.772 L 252.500 135.500 252.642 127.500 C 252.725 122.806, 252.518 120.851, 252.142 122.769 L 251.500 126.038 224.135 98.647 L 196.769 71.256 196.936 46.634 L 197.103 22.012 194.512 19.421 L 191.920 16.829 176.113 17.165 C 157.353 17.563, 157 17.723, 157 25.861 L 157 31.477 141.239 15.738 C 131.450 5.964, 124.722 0, 123.486 0 C 122.185 0, 100.412 21.084, 60.747 60.753 M 66.747 68.753 C 36.086 99.418, 11 124.843, 11 125.253 C 11 125.664, 17.493 126, 25.429 126 C 37.212 126, 40.145 126.288, 41.429 127.571 C 42.813 128.956, 43 134.788, 43 176.571 L 43 224 123.500 224 L 204 224 204 177.223 C 204 136.504, 204.202 130.157, 205.557 128.223 C 207.049 126.092, 207.740 126, 222.299 126 L 237.485 126 211.993 100.493 L 186.500 74.987 186.273 51.243 C 186.148 38.185, 185.810 27.613, 185.523 27.750 C 185.235 27.887, 180.950 28, 176 28 L 167 28 167 36.929 C 167 46.302, 165.905 49, 162.100 49 C 161.133 49, 152.278 40.913, 142.421 31.029 C 132.565 21.145, 124.048 13.045, 123.497 13.029 C 122.945 13.013, 97.407 38.089, 66.747 68.753 M 0.343 128.500 C 0.346 132.900, 0.522 134.576, 0.733 132.224 C 0.945 129.872, 0.942 126.272, 0.727 124.224 C 0.512 122.176, 0.339 124.100, 0.343 128.500" stroke="none" fill="#090909" fill-rule="evenodd"/><path d="M 0 60.747 L 0 121.494 60.500 61 C 93.775 27.728, 121 0.392, 121 0.253 C 121 0.114, 93.775 0, 60.500 0 L 0 0 0 60.747 M 141.012 15.523 L 156.500 31.046 157 25.296 C 157.668 17.611, 158.477 17.280, 177.083 17.084 C 191.843 16.928, 192.046 16.956, 194.560 19.469 L 197.103 22.012 196.936 46.639 L 196.769 71.265 224.385 98.880 L 252 126.495 252 63.248 L 252 0 188.762 -0 L 125.524 -0 141.012 15.523 M 66.747 68.753 C 36.086 99.418, 11 124.843, 11 125.253 C 11 125.664, 17.493 126, 25.429 126 C 37.212 126, 40.145 126.288, 41.429 127.571 C 42.813 128.956, 43 134.788, 43 176.571 L 43 224 123.500 224 L 204 224 204 177.223 C 204 136.504, 204.202 130.157, 205.557 128.223 C 207.049 126.092, 207.740 126, 222.299 126 L 237.485 126 211.993 100.493 L 186.500 74.987 186.273 51.243 C 186.148 38.185, 185.810 27.613, 185.523 27.750 C 185.235 27.887, 180.950 28, 176 28 L 167 28 167 36.929 C 167 46.302, 165.905 49, 162.100 49 C 161.133 49, 152.278 40.913, 142.421 31.029 C 132.565 21.145, 124.048 13.045, 123.497 13.029 C 122.945 13.013, 97.407 38.089, 66.747 68.753 M 0 185 L 0 234 17.700 234 C 31.467 234, 35.133 233.733, 34.200 232.800 C 33.300 231.900, 33 219.644, 33 183.800 L 33 136 16.500 136 L 0 136 0 185 M 214 183.800 C 214 219.644, 213.700 231.900, 212.800 232.800 C 211.867 233.733, 216.089 234, 231.800 234 L 252 234 252 185 L 252 136 233 136 L 214 136 214 183.800" stroke="none" fill="#fafafa" fill-rule="evenodd"/></svg>