<svg xmlns="http://www.w3.org/2000/svg" width="191" height="195" viewBox="0 0 191 195" version="1.1"><path d="M 139.585 42.863 C 139.187 43.506, 140.957 45.222, 143.855 47.006 C 148.026 49.572, 152 53.660, 152 55.384 C 152 55.634, 150.318 55.374, 148.261 54.807 C 139.555 52.403, 120.482 55.642, 114.312 60.573 C 110.420 63.684, 112.010 64.605, 118.838 63.194 C 125.970 61.721, 134.247 61.775, 139.378 63.327 L 143.256 64.500 138.123 67.825 C 132.733 71.316, 130.487 74.220, 131.379 76.545 C 131.831 77.723, 132.447 77.711, 135.424 76.467 C 137.355 75.660, 140.561 75, 142.548 75 L 146.160 75 140.248 80.912 C 133.079 88.081, 127.103 97.825, 123.416 108.357 L 120.665 116.213 116.082 115.634 C 113.562 115.315, 107.338 114.752, 102.250 114.383 L 93 113.713 93 106.357 L 93 99 96.531 99 C 103.534 99, 102.230 96.733, 85.896 80.496 C 77.428 72.079, 69.447 64.881, 68.159 64.500 C 66.121 63.897, 63.738 65.877, 49.756 79.783 C 32.709 96.737, 31.380 99, 38.469 99 L 42 99 42 110.552 L 42 122.104 38.750 123.228 C 27.495 127.120, 1.534 142.861, 0.330 146.523 C 0.138 147.107, 3.523 147.513, 8.754 147.532 C 15.801 147.557, 18.471 148.019, 22.500 149.911 C 25.977 151.544, 29.991 152.409, 35.676 152.751 C 43.018 153.193, 44.730 152.925, 52.478 150.121 C 63.857 146.004, 70.499 145.981, 81.952 150.020 C 93.451 154.075, 100.586 154.043, 112.513 149.883 C 120.156 147.218, 122.469 146.832, 128.476 147.221 C 132.837 147.503, 137.395 148.544, 140.500 149.967 C 143.893 151.522, 148.119 152.417, 153.648 152.750 C 160.911 153.187, 162.777 152.901, 170.809 150.120 C 177.063 147.955, 181.684 147, 185.910 147 C 189.530 147, 192 146.570, 192 145.941 C 192 145.359, 191.589 145.136, 191.087 145.446 C 190.585 145.756, 186.544 143.510, 182.108 140.453 C 172.100 133.560, 156.601 126.098, 143.649 121.938 L 133.798 118.774 134.502 113.137 C 135.852 102.325, 142.202 89.222, 150.197 80.750 C 152.186 78.643, 154.692 77, 155.919 77 C 158.845 77, 161.178 82.652, 161.492 90.500 C 161.678 95.164, 162.100 96.573, 163.388 96.828 C 165.602 97.265, 168.982 89.578, 169.720 82.425 C 170.211 77.663, 170.550 77, 172.491 77 C 175.892 77, 181.071 79.026, 185.680 82.159 C 187.979 83.721, 190.117 85, 190.430 85 C 190.744 85, 191 83.545, 191 81.767 C 191 79.135, 189.965 77.562, 185.436 73.314 C 182.376 70.443, 179.001 67.818, 177.936 67.480 C 175.214 66.616, 175.515 65.831, 179.578 63.198 C 181.533 61.931, 182.960 60.381, 182.751 59.752 C 182.140 57.920, 176.939 56.862, 171 57.363 L 165.500 57.827 162.500 53.244 C 160.597 50.337, 157.646 47.627, 154.431 45.836 C 148.836 42.718, 140.683 41.085, 139.585 42.863 M -0 147 C -0 147.733, 0.300 148.033, 0.667 147.667 C 1.033 147.300, 1.033 146.700, 0.667 146.333 C 0.300 145.967, -0 146.267, -0 147" stroke="none" fill="#060606" fill-rule="evenodd"/><path d="M 0 73.018 L 0 146.036 7.250 140.472 C 14.018 135.278, 31.364 125.782, 38.750 123.228 L 42 122.104 42 110.552 L 42 99 38.469 99 C 31.380 99, 32.709 96.737, 49.756 79.783 C 63.738 65.877, 66.121 63.897, 68.159 64.500 C 69.447 64.881, 77.428 72.079, 85.896 80.496 C 102.230 96.733, 103.534 99, 96.531 99 L 93 99 93 106.357 L 93 113.713 102.250 114.383 C 107.338 114.752, 113.562 115.315, 116.082 115.634 L 120.665 116.213 123.416 108.357 C 127.103 97.825, 133.079 88.081, 140.248 80.912 L 146.160 75 142.548 75 C 140.561 75, 137.355 75.660, 135.424 76.467 C 132.447 77.711, 131.831 77.723, 131.379 76.545 C 130.487 74.220, 132.733 71.316, 138.123 67.825 L 143.256 64.500 139.378 63.327 C 134.247 61.775, 125.970 61.721, 118.838 63.194 C 112.010 64.605, 110.420 63.684, 114.312 60.573 C 120.482 55.642, 139.555 52.403, 148.261 54.807 C 150.318 55.374, 152 55.634, 152 55.384 C 152 53.649, 148.012 49.564, 143.772 46.955 C 137.818 43.291, 138.407 41.384, 145.179 42.400 C 151.753 43.385, 159.703 48.386, 162.829 53.501 L 165.500 57.872 171 57.385 C 176.925 56.862, 182.137 57.912, 182.751 59.752 C 182.960 60.381, 181.533 61.931, 179.578 63.198 C 175.515 65.831, 175.214 66.616, 177.936 67.480 C 179.001 67.818, 182.376 70.443, 185.436 73.314 C 189.965 77.562, 191 79.135, 191 81.767 C 191 83.545, 190.744 85, 190.430 85 C 190.117 85, 187.979 83.721, 185.680 82.159 C 181.071 79.026, 175.892 77, 172.491 77 C 170.550 77, 170.211 77.663, 169.720 82.425 C 168.982 89.578, 165.602 97.265, 163.388 96.828 C 162.100 96.573, 161.678 95.164, 161.492 90.500 C 161.178 82.652, 158.845 77, 155.919 77 C 154.692 77, 152.186 78.643, 150.197 80.750 C 142.202 89.222, 135.852 102.325, 134.502 113.137 L 133.798 118.774 143.649 121.938 C 156.601 126.098, 172.100 133.560, 182.108 140.453 C 186.544 143.510, 190.585 145.756, 191.087 145.446 C 191.624 145.114, 192 115.044, 192 72.441 L 192 0 96 0 L 0 0 0 73.018 M 0.474 73.500 C 0.475 113.650, 0.598 129.929, 0.750 109.676 C 0.901 89.423, 0.901 56.573, 0.750 36.676 C 0.598 16.779, 0.474 33.350, 0.474 73.500 M 0.750 147.564 C 0.337 147.987, -0 158.836, -0 171.672 L 0 195.010 95.750 194.755 L 191.500 194.500 191.768 170.750 L 192.036 147 185.928 147 C 181.682 147, 177.074 147.951, 170.809 150.120 C 162.777 152.901, 160.911 153.187, 153.648 152.750 C 148.119 152.417, 143.893 151.522, 140.500 149.967 C 137.395 148.544, 132.837 147.503, 128.476 147.221 C 122.469 146.832, 120.156 147.218, 112.513 149.883 C 100.586 154.043, 93.451 154.075, 81.952 150.020 C 70.499 145.981, 63.857 146.004, 52.478 150.121 C 44.730 152.925, 43.018 153.193, 35.676 152.751 C 30.086 152.415, 25.918 151.529, 22.500 149.953 C 17.392 147.597, 2.330 145.943, 0.750 147.564 M 0.431 171.500 C 0.432 184.700, 0.574 189.962, 0.747 183.193 C 0.921 176.424, 0.920 165.624, 0.746 159.193 C 0.572 152.762, 0.431 158.300, 0.431 171.500" stroke="none" fill="#fafafa" fill-rule="evenodd"/></svg>