<svg xmlns="http://www.w3.org/2000/svg" width="234" height="234" viewBox="0 0 234 234" version="1.1"><path d="M 89.500 61.588 C 72.450 75.103, 57.953 86.687, 57.285 87.330 C 56.355 88.226, 58.059 88.417, 64.554 88.147 L 73.037 87.793 72.769 111.016 L 72.500 134.238 59 137.038 C 43.465 140.260, 26.059 145.272, 11.034 150.850 L 0.568 154.735 21.534 154.236 C 56.375 153.407, 71.780 156.762, 74.355 165.742 C 75.146 168.499, 74.695 170.155, 71.137 177.570 C 68.862 182.312, 67 186.808, 67 187.561 C 67 191.306, 76.872 191.980, 96.042 189.544 C 142.676 183.619, 188.818 185.375, 223.991 194.413 C 229.211 195.754, 233.658 196.675, 233.874 196.459 C 235.043 195.290, 224.548 180.447, 217.574 173.403 C 206.565 162.286, 185.822 148.968, 172.019 144.156 L 169 143.104 169 115.476 L 169 87.848 177.003 88.174 C 181.404 88.353, 184.892 88.194, 184.753 87.820 C 184.614 87.447, 179.887 83.496, 174.250 79.041 L 164 70.942 164 58.971 L 164 47 155.403 47 L 146.807 47 147.153 52.012 C 147.408 55.686, 147.170 56.897, 146.265 56.549 C 145.585 56.288, 139.683 51.782, 133.148 46.537 C 126.614 41.292, 121.094 37.004, 120.884 37.008 C 120.673 37.012, 106.550 48.073, 89.500 61.588 M 107 119 L 107 132 113.750 132.009 C 117.463 132.013, 122.862 132.301, 125.750 132.648 L 131 133.279 131 119.639 L 131 106 119 106 L 107 106 107 119" stroke="none" fill="#040404" fill-rule="evenodd"/><path d="M 0 117.004 L 0 234.008 117.250 233.754 L 234.500 233.500 234.754 116.750 L 235.008 0 117.504 0 L 0 0 0 117.004 M 0.482 117.500 C 0.479 181.850, 0.599 216.677, 0.750 194.894 L 1.023 155.287 7.761 154.651 C 11.468 154.301, 21.475 154.020, 30 154.027 C 58.636 154.050, 72.015 157.584, 74.355 165.742 C 75.146 168.499, 74.695 170.155, 71.137 177.570 C 68.862 182.312, 67 186.808, 67 187.561 C 67 191.306, 76.872 191.980, 96.042 189.544 C 145.195 183.299, 192.103 185.465, 228.728 195.672 L 233.955 197.129 234.252 215.314 C 234.415 225.317, 234.539 180.850, 234.529 116.500 C 234.511 6.535, 234.494 5.392, 234.247 97.500 L 233.983 195.500 229.787 188.500 C 221.364 174.451, 202.505 158.598, 182.769 148.977 C 178.516 146.905, 173.679 144.735, 172.019 144.156 L 169 143.104 169 115.476 L 169 87.848 177.003 88.174 C 181.404 88.353, 184.892 88.194, 184.753 87.820 C 184.614 87.447, 179.888 83.496, 174.250 79.041 L 164 70.942 164 58.971 L 164 47 155.403 47 L 146.807 47 147.153 52.012 C 147.408 55.686, 147.170 56.897, 146.265 56.549 C 145.585 56.288, 139.618 51.731, 133.005 46.422 C 124.421 39.532, 120.626 37.048, 119.741 37.739 C 105.713 48.692, 59.036 85.720, 57.777 86.894 C 56.188 88.376, 56.710 88.473, 64.546 88.147 L 73.037 87.793 72.769 111.016 L 72.500 134.238 59 137.045 C 42.842 140.406, 27.834 144.682, 13.376 150.046 C 7.514 152.221, 2.334 154, 1.865 154 C 1.396 154, 0.894 119.462, 0.750 77.250 C 0.606 35.037, 0.485 53.150, 0.482 117.500 M 0.484 117.500 C 0.484 181.850, 0.603 208.028, 0.750 175.673 C 0.896 143.318, 0.896 90.668, 0.750 58.673 C 0.603 26.678, 0.484 53.150, 0.484 117.500 M 107 119 L 107 132 113.750 132.009 C 117.463 132.013, 122.862 132.301, 125.750 132.648 L 131 133.279 131 119.639 L 131 106 119 106 L 107 106 107 119" stroke="none" fill="#fbfbfb" fill-rule="evenodd"/></svg>