<svg xmlns="http://www.w3.org/2000/svg" width="227" height="234" viewBox="0 0 227 234" version="1.1"><path d="M 91.912 59.250 C 89.615 63.237, 86.895 67.903, 85.868 69.618 C 84.840 71.333, 84 73.020, 84 73.368 C 84 73.716, 89.625 74, 96.500 74 C 103.375 74, 109 73.740, 109 73.422 C 109 72.639, 96.911 52, 96.452 52 C 96.252 52, 94.209 55.263, 91.912 59.250 M 79.657 80.225 C 74.500 88.475, 51 130.187, 51 131.090 C 51 131.701, 57.412 143.398, 65.250 157.084 L 79.500 181.968 96.250 181.984 L 113 182 113 158.500 L 113 135 105.969 135 C 100.657 135, 98.797 134.635, 98.365 133.508 C 98 132.557, 102.137 126.820, 109.776 117.687 C 116.367 109.806, 122.323 102.456, 123.012 101.352 C 124.111 99.593, 123.525 98.067, 118.244 88.923 L 112.223 78.500 96.651 78.225 C 81.393 77.955, 81.050 77.996, 79.657 80.225 M 171 103 C 171 110.295, 171.338 113.020, 172.250 113.072 C 172.938 113.112, 175.188 113.225, 177.251 113.322 L 181.001 113.500 181.001 103.250 L 181 93 176 93 L 171 93 171 103 M 117.764 115.547 C 111.569 123.022, 106.387 129.444, 106.250 129.819 C 106.112 130.193, 128.500 130.500, 156 130.500 C 183.500 130.500, 206 130.333, 206 130.129 C 206 129.925, 201.613 124.525, 196.250 118.129 L 186.500 106.500 186 112 L 185.500 117.500 176.293 117.787 L 167.085 118.074 166.793 110.287 L 166.500 102.500 147.764 102.228 L 129.029 101.956 117.764 115.547 M 117.449 136.273 C 117.180 136.973, 117.082 147.660, 117.230 160.023 L 117.500 182.500 155.750 182.762 L 194 183.024 194 159.012 L 194 135 155.969 135 C 126.105 135, 117.832 135.273, 117.449 136.273 M 44.767 140.500 L 42.049 145 47.454 145 L 52.859 145 50.344 140.500 C 48.961 138.025, 47.752 136, 47.657 136 C 47.563 136, 46.262 138.025, 44.767 140.500 M 126 156.500 L 126 169 138.500 169 L 151 169 151 156.500 L 151 144 138.500 144 L 126 144 126 156.500 M 161 156.500 L 161 169 173.500 169 L 186 169 186 156.500 L 186 144 173.500 144 L 161 144 161 156.500 M 130.419 149.349 C 130.135 150.091, 130.036 153.804, 130.201 157.599 C 130.491 164.299, 130.580 164.509, 133.250 164.816 L 136 165.133 136 156.566 C 136 148.067, 135.980 148, 133.469 148 C 132.076 148, 130.704 148.607, 130.419 149.349 M 141 156.500 L 141 165.133 143.750 164.816 C 146.494 164.501, 146.500 164.484, 146.500 156.500 C 146.500 148.516, 146.494 148.499, 143.750 148.184 L 141 147.867 141 156.500 M 165.419 149.349 C 165.135 150.091, 165.036 153.804, 165.201 157.599 C 165.491 164.299, 165.580 164.509, 168.250 164.816 L 171 165.133 171 156.566 C 171 148.067, 170.980 148, 168.469 148 C 167.076 148, 165.704 148.607, 165.419 149.349 M 176 156.500 L 176 165.133 178.750 164.816 C 181.494 164.501, 181.500 164.484, 181.500 156.500 C 181.500 148.516, 181.494 148.499, 178.750 148.184 L 176 147.867 176 156.500 M 30.237 165.965 C 25.157 174.746, 21 182.171, 21 182.465 C 21 182.759, 32.925 183, 47.500 183 C 62.075 183, 74 182.708, 74 182.350 C 74 181.993, 69.897 174.568, 64.883 165.850 L 55.766 150 47.620 150 L 39.473 150 30.237 165.965" stroke="none" fill="#090909" fill-rule="evenodd"/><path d="M 0 117.004 L 0 234.009 113.750 233.754 L 227.500 233.500 227.754 116.750 L 228.008 0 114.004 0 L 0 0 0 117.004 M 0.484 117.500 C 0.484 181.850, 0.603 208.028, 0.750 175.673 C 0.896 143.318, 0.896 90.668, 0.750 58.673 C 0.603 26.678, 0.484 53.150, 0.484 117.500 M 91.912 59.250 C 89.615 63.237, 86.895 67.903, 85.868 69.618 C 84.840 71.333, 84 73.020, 84 73.368 C 84 73.716, 89.625 74, 96.500 74 C 103.375 74, 109 73.740, 109 73.422 C 109 72.639, 96.911 52, 96.452 52 C 96.252 52, 94.209 55.263, 91.912 59.250 M 79.657 80.225 C 74.500 88.475, 51 130.187, 51 131.090 C 51 131.701, 57.412 143.398, 65.250 157.084 L 79.500 181.968 96.250 181.984 L 113 182 113 158.500 L 113 135 105.969 135 C 100.657 135, 98.797 134.635, 98.365 133.508 C 98 132.557, 102.137 126.820, 109.776 117.687 C 116.367 109.806, 122.323 102.456, 123.012 101.352 C 124.111 99.593, 123.525 98.067, 118.244 88.923 L 112.223 78.500 96.651 78.225 C 81.393 77.955, 81.050 77.996, 79.657 80.225 M 171 103 C 171 110.295, 171.338 113.020, 172.250 113.072 C 172.938 113.112, 175.188 113.225, 177.251 113.322 L 181.001 113.500 181.001 103.250 L 181 93 176 93 L 171 93 171 103 M 117.764 115.547 C 111.569 123.022, 106.387 129.444, 106.250 129.819 C 106.112 130.193, 128.500 130.500, 156 130.500 C 183.500 130.500, 206 130.333, 206 130.129 C 206 129.925, 201.613 124.525, 196.250 118.129 L 186.500 106.500 186 112 L 185.500 117.500 176.293 117.787 L 167.085 118.074 166.793 110.287 L 166.500 102.500 147.764 102.228 L 129.029 101.956 117.764 115.547 M 117.449 136.273 C 117.180 136.973, 117.082 147.660, 117.230 160.023 L 117.500 182.500 155.750 182.762 L 194 183.024 194 159.012 L 194 135 155.969 135 C 126.105 135, 117.832 135.273, 117.449 136.273 M 44.767 140.500 L 42.049 145 47.454 145 L 52.859 145 50.344 140.500 C 48.961 138.025, 47.752 136, 47.657 136 C 47.563 136, 46.262 138.025, 44.767 140.500 M 126 156.500 L 126 169 138.500 169 L 151 169 151 156.500 L 151 144 138.500 144 L 126 144 126 156.500 M 161 156.500 L 161 169 173.500 169 L 186 169 186 156.500 L 186 144 173.500 144 L 161 144 161 156.500 M 130.419 149.349 C 130.135 150.091, 130.036 153.804, 130.201 157.599 C 130.491 164.299, 130.580 164.509, 133.250 164.816 L 136 165.133 136 156.566 C 136 148.067, 135.980 148, 133.469 148 C 132.076 148, 130.704 148.607, 130.419 149.349 M 141 156.500 L 141 165.133 143.750 164.816 C 146.494 164.501, 146.500 164.484, 146.500 156.500 C 146.500 148.516, 146.494 148.499, 143.750 148.184 L 141 147.867 141 156.500 M 165.419 149.349 C 165.135 150.091, 165.036 153.804, 165.201 157.599 C 165.491 164.299, 165.580 164.509, 168.250 164.816 L 171 165.133 171 156.566 C 171 148.067, 170.980 148, 168.469 148 C 167.076 148, 165.704 148.607, 165.419 149.349 M 176 156.500 L 176 165.133 178.750 164.816 C 181.494 164.501, 181.500 164.484, 181.500 156.500 C 181.500 148.516, 181.494 148.499, 178.750 148.184 L 176 147.867 176 156.500 M 30.237 165.965 C 25.157 174.746, 21 182.171, 21 182.465 C 21 182.759, 32.925 183, 47.500 183 C 62.075 183, 74 182.708, 74 182.350 C 74 181.993, 69.897 174.568, 64.883 165.850 L 55.766 150 47.620 150 L 39.473 150 30.237 165.965" stroke="none" fill="#fafafa" fill-rule="evenodd"/></svg>