<svg xmlns="http://www.w3.org/2000/svg" width="278" height="278" viewBox="0 0 278 278" version="1.1"><path d="M 131.866 8.375 C 85.004 40.582, 32.448 78.387, 32.173 80.087 C 31.788 82.471, 33.623 85, 35.738 85 C 36.560 85, 39.317 83.497, 41.866 81.659 C 44.415 79.821, 47.063 77.995, 47.750 77.600 C 48.737 77.033, 49 82.674, 49 104.421 L 49 131.961 27.358 132.230 C 8.011 132.471, 5.599 132.686, 4.613 134.250 C 3.809 135.526, 3.809 136.474, 4.614 137.750 C 5.656 139.402, 13.152 139.500, 139 139.500 C 264.848 139.500, 272.344 139.402, 273.386 137.750 C 274.190 136.475, 274.191 135.525, 273.387 134.250 C 272.411 132.699, 269.848 132.443, 250.893 132 L 229.500 131.500 229.234 104.250 C 229.088 89.262, 229.225 77, 229.539 77 C 229.853 77, 232.784 78.816, 236.053 81.036 C 240.814 84.269, 242.371 84.872, 243.881 84.064 C 246.638 82.588, 247.132 80.366, 245.200 78.136 C 242.407 74.914, 140.519 4, 138.682 4 C 138.435 4, 135.368 5.969, 131.866 8.375 M 98.108 41.832 L 57.073 70.500 57.036 101.250 L 57 132 86.484 132 L 115.968 132 116.234 104.250 L 116.500 76.500 138.374 76.230 C 153.666 76.041, 160.661 76.304, 161.624 77.103 C 162.730 78.021, 163 83.524, 163 105.122 L 163 132 192 132 L 221 132 220.979 101.250 L 220.959 70.500 180.051 41.832 L 139.144 13.165 98.108 41.832 M 124 108.026 L 124 132.052 139.250 131.776 L 154.500 131.500 154.768 107.750 L 155.036 84 139.518 84 L 124 84 124 108.026 M 4.981 161.522 C 4.005 162.699, 3.970 163.639, 4.832 165.530 C 5.781 167.613, 6.648 168, 10.362 168 L 14.766 168 13.365 172.068 C 8.676 185.677, 11.827 205.786, 19.607 211.905 C 22.228 213.967, 23.043 214, 71.489 214 L 120.708 214 123.413 211.493 C 128.016 207.227, 130.269 200.604, 130.792 189.800 C 131.211 181.168, 130.487 175.039, 128.411 169.629 C 127.898 168.292, 128.500 168, 131.771 168 C 136.263 168, 138.314 166.241, 137.827 162.805 L 137.500 160.500 71.878 160.243 C 13.863 160.016, 6.109 160.164, 4.981 161.522 M 194 167.442 C 182.572 169.101, 174.201 171.010, 163.482 174.403 C 153.283 177.631, 151.504 178.888, 152.353 182.271 C 153.240 185.803, 155.398 186.030, 163 183.388 C 182.147 176.736, 197.023 174.580, 218.825 175.296 C 236.948 175.892, 244.779 177.238, 260.500 182.462 C 271.281 186.044, 274 185.868, 274 181.587 C 274 178.381, 272.897 177.689, 262.097 174.120 C 241.145 167.197, 214.014 164.536, 194 167.442 M 22.989 171.250 C 21.899 173.037, 21.006 175.054, 21.004 175.732 C 21.001 176.666, 26.723 177.029, 44.642 177.232 C 65.895 177.473, 68.395 177.677, 69.387 179.250 C 70.191 180.525, 70.191 181.475, 69.387 182.750 C 68.401 184.315, 65.707 184.553, 43.892 185 L 19.500 185.500 19.822 191.500 C 19.999 194.800, 20.987 199.412, 22.016 201.750 L 23.888 206 64.944 206 C 87.525 206, 105.995 205.887, 105.989 205.750 C 105.983 205.613, 105.308 203.291, 104.489 200.591 C 102.163 192.922, 102.585 179.067, 105.413 170.250 L 106.135 168 65.553 168 L 24.971 168 22.989 171.250 M 114.629 170.188 C 112.050 174.166, 110.728 181.736, 111.197 189.834 C 111.679 198.168, 114.395 205.500, 117 205.500 C 117.825 205.500, 119.400 203.700, 120.500 201.500 C 122.119 198.262, 122.500 195.500, 122.500 187 C 122.500 178.482, 122.123 175.755, 120.500 172.554 C 118.063 167.747, 116.595 167.155, 114.629 170.188 M 123.673 220.660 C 122.581 221.752, 122.903 225.503, 124.200 226.800 C 124.940 227.540, 128.568 228, 133.656 228 L 141.911 228 140.319 232.250 C 139.238 235.133, 138.720 239.878, 138.709 247 C 138.688 259.280, 141.099 267.223, 146.133 271.458 L 149.153 274 198.442 274 C 254.492 274, 250.583 274.603, 255.037 265.272 C 258.689 257.621, 258.957 238.090, 255.524 229.790 C 254.893 228.266, 255.762 228.049, 263.553 227.790 C 270.580 227.557, 272.504 227.158, 273.389 225.750 C 274.190 224.476, 274.189 223.524, 273.386 222.250 C 272.353 220.613, 267.511 220.483, 198.314 220.244 C 157.632 220.103, 124.043 220.290, 123.673 220.660 M 242.131 229.561 C 239.329 233.123, 237.647 242.230, 238.316 250.218 C 238.890 257.081, 242.060 266, 243.923 266 C 244.493 266, 245.981 264.087, 247.230 261.750 C 249.195 258.071, 249.500 256.022, 249.500 246.500 C 249.500 236.978, 249.195 234.929, 247.230 231.250 C 245.981 228.912, 244.776 227, 244.552 227 C 244.328 227, 243.239 228.152, 242.131 229.561 M 151.144 229.327 C 147.969 233.152, 146.471 240.667, 146.871 250.750 L 147 254 170.066 254 C 184.053 254, 193.893 254.407, 195.066 255.035 C 196.163 255.623, 197 257.121, 197 258.500 C 197 259.879, 196.163 261.377, 195.066 261.965 C 193.903 262.587, 184.481 263, 171.443 263 C 152.278 263, 149.900 263.175, 151 264.500 C 152.069 265.788, 157.940 266, 192.525 266 L 232.804 266 231.312 261.250 C 229.371 255.069, 229.381 239.029, 231.330 232.750 L 232.804 228 192.525 228 C 160.279 228, 152.025 228.265, 151.144 229.327 M 46.500 238.076 C 29.211 240.137, 5.623 247.461, 4.459 251.129 C 3.753 253.355, 5.514 256, 7.702 256 C 8.504 256, 12.977 254.653, 17.642 253.006 C 32.483 247.768, 44.696 245.730, 61.500 245.688 C 78.874 245.645, 89.001 247.273, 105.154 252.705 C 116.836 256.634, 119.311 256.553, 118.817 252.258 C 118.468 249.229, 115.886 247.667, 105.360 244.121 C 89.302 238.712, 63.445 236.056, 46.500 238.076" stroke="none" fill="#0a0a0a" fill-rule="evenodd"/><path d="M 0 139.003 L 0 278.007 139.250 277.753 L 278.500 277.500 278.754 138.750 L 279.007 -0 139.504 -0 L 0 0 0 139.003 M 0.486 139.500 C 0.486 215.950, 0.605 247.077, 0.750 208.672 C 0.895 170.266, 0.895 107.716, 0.750 69.672 C 0.605 31.627, 0.486 63.050, 0.486 139.500 M 131.866 8.375 C 85.004 40.582, 32.448 78.387, 32.173 80.087 C 31.788 82.471, 33.623 85, 35.738 85 C 36.560 85, 39.317 83.497, 41.866 81.659 C 44.415 79.821, 47.063 77.995, 47.750 77.600 C 48.737 77.033, 49 82.674, 49 104.421 L 49 131.961 27.358 132.230 C 8.011 132.471, 5.599 132.686, 4.613 134.250 C 3.809 135.526, 3.809 136.474, 4.614 137.750 C 5.656 139.402, 13.152 139.500, 139 139.500 C 264.848 139.500, 272.344 139.402, 273.386 137.750 C 274.190 136.475, 274.191 135.525, 273.387 134.250 C 272.411 132.699, 269.848 132.443, 250.893 132 L 229.500 131.500 229.234 104.250 C 229.088 89.262, 229.225 77, 229.539 77 C 229.853 77, 232.784 78.816, 236.053 81.036 C 240.814 84.269, 242.371 84.872, 243.881 84.064 C 246.638 82.588, 247.132 80.366, 245.200 78.136 C 242.407 74.914, 140.519 4, 138.682 4 C 138.435 4, 135.368 5.969, 131.866 8.375 M 98.108 41.832 L 57.073 70.500 57.036 101.250 L 57 132 86.484 132 L 115.968 132 116.234 104.250 L 116.500 76.500 138.374 76.230 C 153.666 76.041, 160.661 76.304, 161.624 77.103 C 162.730 78.021, 163 83.524, 163 105.122 L 163 132 192 132 L 221 132 220.979 101.250 L 220.959 70.500 180.051 41.832 L 139.144 13.165 98.108 41.832 M 124 108.026 L 124 132.052 139.250 131.776 L 154.500 131.500 154.768 107.750 L 155.036 84 139.518 84 L 124 84 124 108.026 M 4.981 161.522 C 4.005 162.699, 3.970 163.639, 4.832 165.530 C 5.781 167.613, 6.648 168, 10.362 168 L 14.766 168 13.365 172.068 C 8.676 185.677, 11.827 205.786, 19.607 211.905 C 22.228 213.967, 23.043 214, 71.489 214 L 120.708 214 123.413 211.493 C 128.016 207.227, 130.269 200.604, 130.792 189.800 C 131.211 181.168, 130.487 175.039, 128.411 169.629 C 127.898 168.292, 128.500 168, 131.771 168 C 136.263 168, 138.314 166.241, 137.827 162.805 L 137.500 160.500 71.878 160.243 C 13.863 160.016, 6.109 160.164, 4.981 161.522 M 194 167.442 C 182.572 169.101, 174.201 171.010, 163.482 174.403 C 153.283 177.631, 151.504 178.888, 152.353 182.271 C 153.240 185.803, 155.398 186.030, 163 183.388 C 182.147 176.736, 197.023 174.580, 218.825 175.296 C 236.948 175.892, 244.779 177.238, 260.500 182.462 C 271.281 186.044, 274 185.868, 274 181.587 C 274 178.381, 272.897 177.689, 262.097 174.120 C 241.145 167.197, 214.014 164.536, 194 167.442 M 22.989 171.250 C 21.899 173.037, 21.006 175.054, 21.004 175.732 C 21.001 176.666, 26.723 177.029, 44.642 177.232 C 65.895 177.473, 68.395 177.677, 69.387 179.250 C 70.191 180.525, 70.191 181.475, 69.387 182.750 C 68.401 184.315, 65.707 184.553, 43.892 185 L 19.500 185.500 19.822 191.500 C 19.999 194.800, 20.987 199.412, 22.016 201.750 L 23.888 206 64.944 206 C 87.525 206, 105.995 205.887, 105.989 205.750 C 105.983 205.613, 105.308 203.291, 104.489 200.591 C 102.163 192.922, 102.585 179.067, 105.413 170.250 L 106.135 168 65.553 168 L 24.971 168 22.989 171.250 M 114.629 170.188 C 112.050 174.166, 110.728 181.736, 111.197 189.834 C 111.679 198.168, 114.395 205.500, 117 205.500 C 117.825 205.500, 119.400 203.700, 120.500 201.500 C 122.119 198.262, 122.500 195.500, 122.500 187 C 122.500 178.482, 122.123 175.755, 120.500 172.554 C 118.063 167.747, 116.595 167.155, 114.629 170.188 M 123.673 220.660 C 122.581 221.752, 122.903 225.503, 124.200 226.800 C 124.940 227.540, 128.568 228, 133.656 228 L 141.911 228 140.319 232.250 C 139.238 235.133, 138.720 239.878, 138.709 247 C 138.688 259.280, 141.099 267.223, 146.133 271.458 L 149.153 274 198.442 274 C 254.492 274, 250.583 274.603, 255.037 265.272 C 258.689 257.621, 258.957 238.090, 255.524 229.790 C 254.893 228.266, 255.762 228.049, 263.553 227.790 C 270.580 227.557, 272.504 227.158, 273.389 225.750 C 274.190 224.476, 274.189 223.524, 273.386 222.250 C 272.353 220.613, 267.511 220.483, 198.314 220.244 C 157.632 220.103, 124.043 220.290, 123.673 220.660 M 242.131 229.561 C 239.329 233.123, 237.647 242.230, 238.316 250.218 C 238.890 257.081, 242.060 266, 243.923 266 C 244.493 266, 245.981 264.087, 247.230 261.750 C 249.195 258.071, 249.500 256.022, 249.500 246.500 C 249.500 236.978, 249.195 234.929, 247.230 231.250 C 245.981 228.912, 244.776 227, 244.552 227 C 244.328 227, 243.239 228.152, 242.131 229.561 M 151.144 229.327 C 147.969 233.152, 146.471 240.667, 146.871 250.750 L 147 254 170.066 254 C 184.053 254, 193.893 254.407, 195.066 255.035 C 196.163 255.623, 197 257.121, 197 258.500 C 197 259.879, 196.163 261.377, 195.066 261.965 C 193.903 262.587, 184.481 263, 171.443 263 C 152.278 263, 149.900 263.175, 151 264.500 C 152.069 265.788, 157.940 266, 192.525 266 L 232.804 266 231.312 261.250 C 229.371 255.069, 229.381 239.029, 231.330 232.750 L 232.804 228 192.525 228 C 160.279 228, 152.025 228.265, 151.144 229.327 M 46.500 238.076 C 29.211 240.137, 5.623 247.461, 4.459 251.129 C 3.753 253.355, 5.514 256, 7.702 256 C 8.504 256, 12.977 254.653, 17.642 253.006 C 32.483 247.768, 44.696 245.730, 61.500 245.688 C 78.874 245.645, 89.001 247.273, 105.154 252.705 C 116.836 256.634, 119.311 256.553, 118.817 252.258 C 118.468 249.229, 115.886 247.667, 105.360 244.121 C 89.302 238.712, 63.445 236.056, 46.500 238.076" stroke="none" fill="#f9f9f9" fill-rule="evenodd"/></svg>