<svg xmlns="http://www.w3.org/2000/svg" width="226" height="234" viewBox="0 0 226 234" version="1.1"><path d="M 89.020 19.055 L 69.067 38.110 68.783 26.805 L 68.500 15.500 54.500 15.500 L 40.500 15.500 40.233 41.400 L 39.966 67.301 19.983 87.665 L 0 108.030 0 116.655 C 0 123.696, 0.321 125.523, 1.750 126.608 C 4.585 128.760, 10.324 128.269, 14.360 125.530 L 18 123.060 18.004 173.280 C 18.007 221.628, 18.082 223.621, 19.995 226.759 C 21.088 228.552, 23.448 230.912, 25.241 232.005 C 28.425 233.947, 30.443 233.993, 113 233.993 C 195.557 233.993, 197.575 233.947, 200.759 232.005 C 202.552 230.912, 204.912 228.552, 206.005 226.759 C 207.919 223.621, 207.993 221.628, 207.996 173.214 L 208 122.928 211.732 125.464 C 215.994 128.360, 219.800 128.672, 224.050 126.474 C 226.984 124.957, 227 124.901, 227 115.974 C 227 111.038, 226.662 107.094, 226.250 107.210 C 225.838 107.325, 205.094 86.963, 180.154 61.960 C 155.213 36.957, 130.820 12.787, 125.947 8.250 C 117.869 0.729, 116.728 0, 113.030 0 C 109.129 0, 108.213 0.726, 89.020 19.055 M 57.252 61.278 C 27.413 91.131, 3 116.074, 3 116.707 C 3 118.158, 5.792 121, 7.218 121 C 7.810 121, 31.601 97.825, 60.087 69.500 C 88.573 41.175, 112.414 18, 113.068 18 C 113.721 18, 137.519 41.175, 165.952 69.500 C 194.385 97.825, 218.145 121, 218.753 121 C 220.206 121, 223 118.170, 223 116.698 C 223 114.977, 114.709 7, 112.982 7 C 112.169 7, 87.090 31.425, 57.252 61.278 M 47 41.225 L 47 60.450 54.500 53 L 62 45.550 62 33.775 L 62 22 54.500 22 L 47 22 47 41.225 M 68.746 71.754 L 25 115.508 25 154.595 C 25 176.093, 25.296 200.529, 25.659 208.897 C 26.317 224.112, 26.317 224.113, 28.998 225.499 C 31.094 226.583, 38.143 226.904, 61.339 226.970 L 91 227.055 91 198.727 C 91 178.028, 91.323 170.077, 92.200 169.200 C 93.895 167.505, 132.105 167.505, 133.800 169.200 C 134.677 170.077, 135 178.037, 135 198.765 L 135 227.130 165.966 226.815 C 194.104 226.529, 197.094 226.337, 198.716 224.715 C 200.375 223.055, 200.523 219.175, 200.834 169.303 L 201.168 115.676 157.338 71.838 C 133.232 47.727, 113.280 28, 113 28 C 112.720 28, 92.806 47.689, 68.746 71.754 M 0.360 117 C 0.360 122.225, 0.529 124.362, 0.735 121.750 C 0.941 119.138, 0.941 114.862, 0.735 112.250 C 0.529 109.638, 0.360 111.775, 0.360 117 M 48.200 118.200 C 46.518 119.882, 46.518 151.118, 48.200 152.800 C 49.882 154.482, 81.118 154.482, 82.800 152.800 C 84.482 151.118, 84.482 119.882, 82.800 118.200 C 81.118 116.518, 49.882 116.518, 48.200 118.200 M 143.200 118.200 C 142.366 119.034, 142 124.311, 142 135.500 C 142 146.689, 142.366 151.966, 143.200 152.800 C 144.882 154.482, 176.118 154.482, 177.800 152.800 C 179.482 151.118, 179.482 119.882, 177.800 118.200 C 176.118 116.518, 144.882 116.518, 143.200 118.200 M 54.812 135.002 L 54.500 146.004 65.250 146.002 L 76 146 76 135 L 76 124 65.562 124 L 55.125 124 54.812 135.002 M 150 134.966 L 150 146 161.034 146 L 172.068 146 171.784 135.250 L 171.500 124.500 160.750 124.216 L 150 123.932 150 134.966 M 98 201.500 L 98 227 113 227 L 128 227 128 201.500 L 128 176 113 176 L 98 176 98 201.500" stroke="none" fill="#0b0b0b" fill-rule="evenodd"/><path d="M 0 54.021 L 0 108.041 19.750 87.898 L 39.500 67.755 40 41.627 L 40.500 15.500 54.500 15.500 L 68.500 15.500 68.783 26.818 L 69.067 38.137 88.783 19.374 C 99.628 9.054, 108.687 0.473, 108.917 0.305 C 109.146 0.137, 84.733 0, 54.667 0 L 0 0 0 54.021 M 125.951 8.250 C 130.826 12.787, 155.332 37.044, 180.408 62.154 L 226 107.807 226 53.904 L 226 0 171.543 0 L 117.086 0 125.951 8.250 M 57.252 61.278 C 27.413 91.131, 3 116.074, 3 116.707 C 3 118.158, 5.792 121, 7.218 121 C 7.810 121, 31.601 97.825, 60.087 69.500 C 88.573 41.175, 112.414 18, 113.068 18 C 113.721 18, 137.519 41.175, 165.952 69.500 C 194.385 97.825, 218.145 121, 218.753 121 C 220.206 121, 223 118.170, 223 116.698 C 223 114.977, 114.709 7, 112.982 7 C 112.169 7, 87.090 31.425, 57.252 61.278 M 47 41.225 L 47 60.450 54.500 53 L 62 45.550 62 33.775 L 62 22 54.500 22 L 47 22 47 41.225 M 68.746 71.754 L 25 115.508 25 154.595 C 25 176.093, 25.296 200.529, 25.659 208.897 C 26.317 224.112, 26.317 224.113, 28.998 225.499 C 31.094 226.583, 38.143 226.904, 61.339 226.970 L 91 227.055 91 198.727 C 91 178.028, 91.323 170.077, 92.200 169.200 C 93.895 167.505, 132.105 167.505, 133.800 169.200 C 134.677 170.077, 135 178.037, 135 198.765 L 135 227.130 165.966 226.815 C 194.104 226.529, 197.094 226.337, 198.716 224.715 C 200.375 223.055, 200.523 219.175, 200.834 169.303 L 201.168 115.676 157.338 71.838 C 133.232 47.727, 113.280 28, 113 28 C 112.720 28, 92.806 47.689, 68.746 71.754 M 48.200 118.200 C 46.518 119.882, 46.518 151.118, 48.200 152.800 C 49.882 154.482, 81.118 154.482, 82.800 152.800 C 84.482 151.118, 84.482 119.882, 82.800 118.200 C 81.118 116.518, 49.882 116.518, 48.200 118.200 M 143.200 118.200 C 142.366 119.034, 142 124.311, 142 135.500 C 142 146.689, 142.366 151.966, 143.200 152.800 C 144.882 154.482, 176.118 154.482, 177.800 152.800 C 179.482 151.118, 179.482 119.882, 177.800 118.200 C 176.118 116.518, 144.882 116.518, 143.200 118.200 M 14.102 125.710 C 10.582 128.083, 3.646 128.854, 2.500 127 C 0.305 123.448, 0 129.904, 0 180 L 0 234 14.250 233.996 L 28.500 233.993 25.304 232.044 C 18.255 227.746, 18.555 230.129, 18 174.005 L 17.500 123.419 14.102 125.710 M 207.996 173.236 C 207.993 221.628, 207.919 223.621, 206.005 226.759 C 204.912 228.552, 202.552 230.912, 200.759 232.005 L 197.500 233.993 211.750 233.996 L 226 234 226 179.893 C 226 128.740, 225.904 125.827, 224.250 126.545 C 219.723 128.510, 215.926 128.217, 211.970 125.599 L 208 122.972 207.996 173.236 M 54.812 135.002 L 54.500 146.004 65.250 146.002 L 76 146 76 135 L 76 124 65.562 124 L 55.125 124 54.812 135.002 M 150 134.966 L 150 146 161.034 146 L 172.068 146 171.784 135.250 L 171.500 124.500 160.750 124.216 L 150 123.932 150 134.966 M 98 201.500 L 98 227 113 227 L 128 227 128 201.500 L 128 176 113 176 L 98 176 98 201.500" stroke="none" fill="#fafafa" fill-rule="evenodd"/></svg>