<svg xmlns="http://www.w3.org/2000/svg" width="248" height="248" viewBox="0 0 248 248" version="1.1"><path d="M 96.813 20.725 C 93.066 24.710, 90.008 30.133, 90.004 32.800 C 89.990 41.161, 100.956 46.126, 106.327 40.191 C 110.921 35.114, 109.791 28.321, 103.267 21.796 L 99.421 17.951 96.813 20.725 M 144.821 21.750 C 140.220 26.564, 139 29.021, 139 33.480 C 139 40.571, 146.517 44.845, 152.940 41.406 C 159.851 37.706, 159.240 28.501, 151.590 21.087 L 148.405 18.001 144.821 21.750 M 98.336 31.567 C 97.545 33.629, 99.618 35.782, 101.033 34.367 C 102.178 33.222, 101.314 30, 99.862 30 C 99.353 30, 98.667 30.705, 98.336 31.567 M 147.085 31.841 C 145.990 33.887, 146.547 35, 148.667 35 C 150.185 35, 150.492 31.422, 149.050 30.531 C 148.528 30.208, 147.644 30.797, 147.085 31.841 M 55.613 48.139 C 50.850 53.704, 49.264 58.809, 50.998 62.995 C 52.400 66.380, 56.490 69, 60.374 69 C 63.667 69, 68.630 64.699, 69.303 61.261 C 70.024 57.579, 67.114 51.318, 62.760 47.184 L 59.269 43.868 55.613 48.139 M 184.221 47.750 C 177.169 56.723, 176.607 61.808, 182.150 66.473 C 185.981 69.696, 190.019 69.696, 193.850 66.473 C 197.927 63.042, 198.640 59.174, 196.109 54.215 C 193.849 49.784, 189.254 44, 187.995 44 C 187.540 44, 185.842 45.688, 184.221 47.750 M 111.577 59.500 C 105.224 64.725, 99.701 69, 99.305 69 C 98.909 69, 96.838 67.313, 94.703 65.250 L 90.822 61.500 86.382 66.500 C 80.909 72.664, 78 78.487, 78 83.276 C 78 86.802, 77.336 87.468, 57.750 103.565 C 46.612 112.719, 37.339 120.644, 37.143 121.176 C 36.946 121.708, 37.807 123.230, 39.055 124.559 L 41.325 126.975 45.581 123.487 C 47.921 121.569, 49.986 120, 50.168 120 C 50.667 120, 50.156 170.228, 49.637 172.250 C 49.034 174.598, 44.368 174.557, 43.103 172.193 C 42.366 170.815, 41.270 170.487, 38.491 170.811 C 36.487 171.045, 34.608 171.858, 34.316 172.618 C 33.560 174.589, 29.222 174.328, 27.913 172.233 C 27.092 170.918, 25.830 170.559, 22.991 170.830 C 19.252 171.186, 19.193 171.254, 20.180 174.088 C 20.735 175.679, 22.577 178.149, 24.274 179.577 C 26.947 181.826, 27.969 182.091, 31.929 181.558 C 37.805 180.768, 40.511 180.770, 45.804 181.570 C 50.043 182.211, 50.103 182.275, 49.804 185.860 C 49.544 188.973, 49.111 189.545, 46.817 189.810 C 44.927 190.028, 43.809 189.511, 43.032 188.060 C 41.536 185.264, 35.964 185.226, 34.232 188 C 32.629 190.567, 29.371 190.567, 27.768 188 C 26.579 186.096, 21.188 185.145, 19.748 186.585 C 18.751 187.583, 20.992 192.644, 23.457 194.959 C 26.527 197.844, 33.182 198.766, 36.279 196.737 C 38.263 195.437, 38.956 195.413, 41.050 196.572 C 42.398 197.319, 44.990 197.945, 46.810 197.965 C 50.019 197.999, 50.111 198.115, 49.810 201.750 C 49.563 204.735, 49.051 205.564, 47.298 205.813 C 45.917 206.010, 44.615 205.357, 43.807 204.063 C 42.045 201.241, 35.980 201.201, 34.232 204 C 32.629 206.567, 29.371 206.567, 27.768 204 C 26.523 202.006, 20.667 201.112, 19.648 202.760 C 18.641 204.390, 22.054 210.062, 25.193 211.977 C 29.125 214.374, 32.084 214.525, 35.949 212.526 C 38.480 211.218, 39.153 211.230, 41.962 212.631 C 43.702 213.499, 46.205 214.003, 47.523 213.751 C 49.865 213.303, 49.928 213.472, 50.211 220.896 L 50.500 228.500 124.250 228.756 L 198 229.013 198 221.145 C 198 213.445, 198.050 213.287, 200.331 213.723 C 201.612 213.968, 204.231 213.513, 206.149 212.711 C 209.212 211.431, 209.981 211.434, 212.463 212.734 C 217.824 215.544, 224.418 212.960, 227.602 206.802 C 229.708 202.730, 229.349 202, 225.241 202 C 222.564 202, 221.121 202.576, 220.232 204 C 218.629 206.567, 215.371 206.567, 213.768 204 C 212.260 201.586, 206.244 201.200, 205.376 203.462 C 204.584 205.527, 201.174 206.390, 199.452 204.960 C 198.653 204.297, 198 202.460, 198 200.878 C 198 198.305, 198.344 197.996, 201.250 197.965 C 203.037 197.945, 205.573 197.335, 206.884 196.608 C 208.885 195.498, 209.741 195.523, 212.221 196.760 C 218.219 199.752, 227.528 195.238, 228.222 189 C 228.464 186.826, 228.062 186.458, 225.144 186.179 C 222.647 185.940, 221.417 186.388, 220.337 187.929 C 218.497 190.556, 215.385 190.590, 213.768 188 C 212.036 185.226, 206.464 185.264, 204.968 188.060 C 204.191 189.511, 203.073 190.028, 201.183 189.810 C 198.872 189.543, 198.457 188.980, 198.190 185.750 C 197.880 182.014, 197.894 182, 201.717 182 C 203.828 182, 206.454 181.370, 207.554 180.600 C 209.267 179.400, 209.826 179.400, 211.468 180.600 C 213.950 182.415, 219.348 182.388, 222.915 180.544 C 225.689 179.109, 229.571 172.732, 228.613 171.183 C 227.823 169.905, 220.898 171.103, 220.316 172.618 C 219.546 174.624, 215.212 174.312, 213.864 172.154 C 212.460 169.906, 206.287 170.225, 204.523 172.637 C 203.875 173.524, 202.339 174.042, 200.944 173.845 L 198.500 173.500 198.233 146.616 L 197.967 119.732 202.349 123.323 L 206.732 126.914 209.083 124.412 C 210.770 122.616, 211.160 121.511, 210.467 120.497 C 209.935 119.719, 203.891 114.515, 197.035 108.931 C 185.210 99.302, 184.584 98.608, 184.856 95.446 C 185.260 90.757, 181.953 83.933, 176.398 77.994 L 171.654 72.923 167.401 77.098 L 163.147 81.272 144.071 65.636 C 133.579 57.036, 124.575 50, 124.062 50 C 123.549 50, 117.931 54.275, 111.577 59.500 M 58.607 57.582 C 57.655 60.064, 57.883 61, 59.441 61 C 61.334 61, 62.155 59.568, 61.396 57.590 C 60.617 55.559, 59.385 55.555, 58.607 57.582 M 186.574 57.667 C 185.754 59.805, 187.585 61.815, 189.033 60.367 C 190.120 59.280, 189.344 56, 188 56 C 187.568 56, 186.926 56.750, 186.574 57.667 M 113.418 68.092 C 107.249 73.176, 103.601 76.877, 103.767 77.883 C 103.914 78.772, 104.273 80.850, 104.565 82.500 C 105.656 88.665, 98.330 97, 91.820 97 C 90.234 97, 87.308 96.320, 85.319 95.489 L 81.702 93.978 74.101 100.207 C 69.920 103.633, 64.588 108.008, 62.250 109.930 L 58 113.424 58 142.512 C 58 163.803, 58.322 171.922, 59.200 172.800 C 60.809 174.409, 63.492 174.318, 64.913 172.605 C 66.803 170.327, 72.957 170.051, 74.103 172.193 C 75.241 174.319, 79.551 174.602, 80.700 172.625 C 81.140 171.869, 83.188 171.060, 85.250 170.826 C 88.659 170.440, 89 170.620, 89 172.801 C 89 174.196, 87.577 176.623, 85.600 178.600 C 81.792 182.408, 77.052 183.112, 72.182 180.594 C 69.846 179.386, 69.192 179.386, 67.540 180.594 C 66.483 181.367, 63.904 182, 61.809 182 C 58.304 182, 58 182.223, 58 184.800 C 58 189.824, 62.774 191.936, 65.232 188 C 66.062 186.672, 67.564 186, 69.705 186 C 71.906 186, 73.269 186.635, 74 188 C 75.400 190.615, 79.600 190.615, 81 188 C 81.754 186.591, 83.094 186, 85.535 186 C 89.477 186, 89.910 187.340, 87.483 192.033 C 84.728 197.361, 77.711 199.453, 72.182 196.594 C 69.846 195.386, 69.192 195.386, 67.540 196.594 C 66.483 197.367, 63.904 198, 61.809 198 C 58.304 198, 58 198.223, 58 200.800 C 58 205.824, 62.774 207.936, 65.232 204 C 66.097 202.616, 67.564 202, 70 202 C 72.436 202, 73.903 202.616, 74.768 204 C 75.455 205.100, 76.897 206, 77.973 206 C 79.049 206, 80.411 205.100, 81 204 C 82.353 201.471, 89 201.097, 89 203.550 C 89 206.731, 85.766 211.200, 82.466 212.579 C 78.196 214.363, 76.212 214.359, 72.767 212.562 C 70.379 211.316, 69.645 211.331, 66.943 212.678 C 65.095 213.600, 62.675 213.985, 60.926 213.635 C 58.084 213.067, 58 213.164, 58 217.025 L 58 221 81.500 221 L 105 221 105 197.500 L 105 174 124 174 L 143 174 143.115 195.750 C 143.179 207.713, 143.291 218.175, 143.365 219 C 143.480 220.278, 146.941 220.540, 166.750 220.768 L 190 221.037 190 217.192 C 190 213.527, 189.865 213.366, 187.132 213.767 C 185.555 213.999, 182.958 213.512, 181.361 212.687 C 178.874 211.401, 178.101 211.382, 175.979 212.557 C 172.716 214.363, 169.520 214.341, 165.607 212.484 C 162.335 210.931, 159 206.445, 159 203.596 C 159 201.093, 166.159 201.423, 167.768 204 C 168.455 205.100, 169.897 206, 170.973 206 C 172.049 206, 173.411 205.100, 174 204 C 175.465 201.262, 181.058 201.262, 182.768 204 C 185.226 207.936, 190 205.824, 190 200.800 C 190 198.309, 189.641 197.999, 186.750 197.994 C 184.963 197.990, 182.329 197.377, 180.898 196.630 C 178.727 195.497, 177.897 195.492, 175.898 196.600 C 170.648 199.510, 163.247 197.312, 160.517 192.033 C 158.090 187.340, 158.523 186, 162.465 186 C 164.906 186, 166.246 186.591, 167 188 C 167.619 189.158, 169.094 190, 170.500 190 C 171.906 190, 173.381 189.158, 174 188 C 175.465 185.262, 181.058 185.262, 182.768 188 C 185.226 191.936, 190 189.824, 190 184.800 C 190 182.227, 189.693 182, 186.223 182 C 184.145 182, 181.546 181.370, 180.446 180.600 C 178.733 179.400, 178.174 179.400, 176.532 180.600 C 173.935 182.499, 167.490 182.367, 164.414 180.352 C 161.976 178.754, 159 174.190, 159 172.050 C 159 171.472, 160.800 171, 163 171 C 165.200 171, 167 171.434, 167 171.965 C 167 172.495, 167.890 173.406, 168.977 173.988 C 170.535 174.821, 171.357 174.643, 172.853 173.147 C 175.541 170.459, 181.462 169.909, 182.901 172.213 C 184.282 174.425, 188.571 174.560, 189.393 172.418 C 189.727 171.548, 190 157.894, 190 142.075 L 190 113.313 185.087 109.171 C 180.330 105.159, 180.085 105.075, 177.337 106.508 C 173.344 108.591, 168.313 108.357, 164.344 105.903 C 159.551 102.942, 157.648 98.776, 158.248 92.566 L 158.737 87.500 142.171 74 C 133.060 66.575, 125.094 60.369, 124.470 60.209 C 123.846 60.049, 118.872 63.596, 113.418 68.092 M 89.693 74.787 C 87.452 77.263, 85.160 83.192, 85.745 85 C 86.454 87.193, 89.070 89, 91.536 89 C 94.096 89, 97 86.082, 97 83.509 C 97 81.912, 92.431 73, 91.613 73 C 91.446 73, 90.582 73.804, 89.693 74.787 M 168.655 87.557 C 165.176 92.677, 165.078 97.623, 168.426 99.148 C 176.293 102.733, 179.852 94.208, 173.676 86.575 L 171.310 83.651 168.655 87.557 M 85.667 128.667 C 85.300 129.033, 85 134.208, 85 140.167 L 85 151 98.500 151 L 112 151 112 139.500 L 112 128 99.167 128 C 92.108 128, 86.033 128.300, 85.667 128.667 M 136 139.500 L 136 151 149.500 151 L 163 151 163 139.500 L 163 128 149.500 128 L 136 128 136 139.500 M 93 139.500 L 93 143 99 143 L 105 143 105 139.500 L 105 136 99 136 L 93 136 93 139.500 M 143.667 136.667 C 143.300 137.033, 143 138.608, 143 140.167 C 143 142.963, 143.078 143, 149 143 L 155 143 155 139.500 L 155 136 149.667 136 C 146.733 136, 144.033 136.300, 143.667 136.667 M 112.667 182.667 C 112.300 183.033, 112 191.808, 112 202.167 L 112 221 124 221 L 136 221 136 201.500 L 136 182 124.667 182 C 118.433 182, 113.033 182.300, 112.667 182.667" stroke="none" fill="#0d0d0d" fill-rule="evenodd"/><path d="M 0 124.004 L 0 248.008 124.250 247.754 L 248.500 247.500 248.754 123.750 L 249.008 -0 124.504 -0 L 0 0 0 124.004 M 0.485 124.500 C 0.485 192.700, 0.604 220.453, 0.750 186.172 C 0.896 151.892, 0.896 96.092, 0.750 62.172 C 0.604 28.253, 0.484 56.300, 0.485 124.500 M 96.813 20.725 C 93.066 24.710, 90.008 30.133, 90.004 32.800 C 89.990 41.161, 100.956 46.126, 106.327 40.191 C 110.921 35.114, 109.791 28.321, 103.267 21.796 L 99.421 17.951 96.813 20.725 M 144.821 21.750 C 140.220 26.564, 139 29.021, 139 33.480 C 139 40.571, 146.517 44.845, 152.940 41.406 C 159.851 37.706, 159.240 28.501, 151.590 21.087 L 148.405 18.001 144.821 21.750 M 98.336 31.567 C 97.545 33.629, 99.618 35.782, 101.033 34.367 C 102.178 33.222, 101.314 30, 99.862 30 C 99.353 30, 98.667 30.705, 98.336 31.567 M 147.085 31.841 C 145.990 33.887, 146.547 35, 148.667 35 C 150.185 35, 150.492 31.422, 149.050 30.531 C 148.528 30.208, 147.644 30.797, 147.085 31.841 M 55.613 48.139 C 50.850 53.704, 49.264 58.809, 50.998 62.995 C 52.400 66.380, 56.490 69, 60.374 69 C 63.667 69, 68.630 64.699, 69.303 61.261 C 70.024 57.579, 67.114 51.318, 62.760 47.184 L 59.269 43.868 55.613 48.139 M 184.221 47.750 C 177.169 56.723, 176.607 61.808, 182.150 66.473 C 185.981 69.696, 190.019 69.696, 193.850 66.473 C 197.927 63.042, 198.640 59.174, 196.109 54.215 C 193.849 49.784, 189.254 44, 187.995 44 C 187.540 44, 185.842 45.688, 184.221 47.750 M 111.577 59.500 C 105.224 64.725, 99.701 69, 99.305 69 C 98.909 69, 96.838 67.313, 94.703 65.250 L 90.822 61.500 86.382 66.500 C 80.909 72.664, 78 78.487, 78 83.276 C 78 86.802, 77.336 87.468, 57.750 103.565 C 46.612 112.719, 37.339 120.644, 37.143 121.176 C 36.946 121.708, 37.807 123.230, 39.055 124.559 L 41.325 126.975 45.581 123.487 C 47.921 121.569, 49.986 120, 50.168 120 C 50.667 120, 50.156 170.228, 49.637 172.250 C 49.034 174.598, 44.368 174.557, 43.103 172.193 C 42.366 170.815, 41.270 170.487, 38.491 170.811 C 36.487 171.045, 34.608 171.858, 34.316 172.618 C 33.560 174.589, 29.222 174.328, 27.913 172.233 C 27.092 170.918, 25.830 170.559, 22.991 170.830 C 19.252 171.186, 19.193 171.254, 20.180 174.088 C 20.735 175.679, 22.577 178.149, 24.274 179.577 C 26.947 181.826, 27.969 182.091, 31.929 181.558 C 37.805 180.768, 40.511 180.770, 45.804 181.570 C 50.043 182.211, 50.103 182.275, 49.804 185.860 C 49.544 188.973, 49.111 189.545, 46.817 189.810 C 44.927 190.028, 43.809 189.511, 43.032 188.060 C 41.536 185.264, 35.964 185.226, 34.232 188 C 32.629 190.567, 29.371 190.567, 27.768 188 C 26.579 186.096, 21.188 185.145, 19.748 186.585 C 18.751 187.583, 20.992 192.644, 23.457 194.959 C 26.527 197.844, 33.182 198.766, 36.279 196.737 C 38.263 195.437, 38.956 195.413, 41.050 196.572 C 42.398 197.319, 44.990 197.945, 46.810 197.965 C 50.019 197.999, 50.111 198.115, 49.810 201.750 C 49.563 204.735, 49.051 205.564, 47.298 205.813 C 45.917 206.010, 44.615 205.357, 43.807 204.063 C 42.045 201.241, 35.980 201.201, 34.232 204 C 32.629 206.567, 29.371 206.567, 27.768 204 C 26.523 202.006, 20.667 201.112, 19.648 202.760 C 18.641 204.390, 22.054 210.062, 25.193 211.977 C 29.125 214.374, 32.084 214.525, 35.949 212.526 C 38.480 211.218, 39.153 211.230, 41.962 212.631 C 43.702 213.499, 46.205 214.003, 47.523 213.751 C 49.865 213.303, 49.928 213.472, 50.211 220.896 L 50.500 228.500 124.250 228.756 L 198 229.013 198 221.145 C 198 213.445, 198.050 213.287, 200.331 213.723 C 201.612 213.968, 204.231 213.513, 206.149 212.711 C 209.212 211.431, 209.981 211.434, 212.463 212.734 C 217.824 215.544, 224.418 212.960, 227.602 206.802 C 229.708 202.730, 229.349 202, 225.241 202 C 222.564 202, 221.121 202.576, 220.232 204 C 218.629 206.567, 215.371 206.567, 213.768 204 C 212.260 201.586, 206.244 201.200, 205.376 203.462 C 204.584 205.527, 201.174 206.390, 199.452 204.960 C 198.653 204.297, 198 202.460, 198 200.878 C 198 198.305, 198.344 197.996, 201.250 197.965 C 203.037 197.945, 205.573 197.335, 206.884 196.608 C 208.885 195.498, 209.741 195.523, 212.221 196.760 C 218.219 199.752, 227.528 195.238, 228.222 189 C 228.464 186.826, 228.062 186.458, 225.144 186.179 C 222.647 185.940, 221.417 186.388, 220.337 187.929 C 218.497 190.556, 215.385 190.590, 213.768 188 C 212.036 185.226, 206.464 185.264, 204.968 188.060 C 204.191 189.511, 203.073 190.028, 201.183 189.810 C 198.872 189.543, 198.457 188.980, 198.190 185.750 C 197.880 182.014, 197.894 182, 201.717 182 C 203.828 182, 206.454 181.370, 207.554 180.600 C 209.267 179.400, 209.826 179.400, 211.468 180.600 C 213.950 182.415, 219.348 182.388, 222.915 180.544 C 225.689 179.109, 229.571 172.732, 228.613 171.183 C 227.823 169.905, 220.898 171.103, 220.316 172.618 C 219.546 174.624, 215.212 174.312, 213.864 172.154 C 212.460 169.906, 206.287 170.225, 204.523 172.637 C 203.875 173.524, 202.339 174.042, 200.944 173.845 L 198.500 173.500 198.233 146.616 L 197.967 119.732 202.349 123.323 L 206.732 126.914 209.083 124.412 C 210.770 122.616, 211.160 121.511, 210.467 120.497 C 209.935 119.719, 203.891 114.515, 197.035 108.931 C 185.210 99.302, 184.584 98.608, 184.856 95.446 C 185.260 90.757, 181.953 83.933, 176.398 77.994 L 171.654 72.923 167.401 77.098 L 163.147 81.272 144.071 65.636 C 133.579 57.036, 124.575 50, 124.062 50 C 123.549 50, 117.931 54.275, 111.577 59.500 M 58.607 57.582 C 57.655 60.064, 57.883 61, 59.441 61 C 61.334 61, 62.155 59.568, 61.396 57.590 C 60.617 55.559, 59.385 55.555, 58.607 57.582 M 186.574 57.667 C 185.754 59.805, 187.585 61.815, 189.033 60.367 C 190.120 59.280, 189.344 56, 188 56 C 187.568 56, 186.926 56.750, 186.574 57.667 M 113.418 68.092 C 107.249 73.176, 103.601 76.877, 103.767 77.883 C 103.914 78.772, 104.273 80.850, 104.565 82.500 C 105.656 88.665, 98.330 97, 91.820 97 C 90.234 97, 87.308 96.320, 85.319 95.489 L 81.702 93.978 74.101 100.207 C 69.920 103.633, 64.588 108.008, 62.250 109.930 L 58 113.424 58 142.512 C 58 163.803, 58.322 171.922, 59.200 172.800 C 60.809 174.409, 63.492 174.318, 64.913 172.605 C 66.803 170.327, 72.957 170.051, 74.103 172.193 C 75.241 174.319, 79.551 174.602, 80.700 172.625 C 81.140 171.869, 83.188 171.060, 85.250 170.826 C 88.659 170.440, 89 170.620, 89 172.801 C 89 174.196, 87.577 176.623, 85.600 178.600 C 81.792 182.408, 77.052 183.112, 72.182 180.594 C 69.846 179.386, 69.192 179.386, 67.540 180.594 C 66.483 181.367, 63.904 182, 61.809 182 C 58.304 182, 58 182.223, 58 184.800 C 58 189.824, 62.774 191.936, 65.232 188 C 66.062 186.672, 67.564 186, 69.705 186 C 71.906 186, 73.269 186.635, 74 188 C 75.400 190.615, 79.600 190.615, 81 188 C 81.754 186.591, 83.094 186, 85.535 186 C 89.477 186, 89.910 187.340, 87.483 192.033 C 84.728 197.361, 77.711 199.453, 72.182 196.594 C 69.846 195.386, 69.192 195.386, 67.540 196.594 C 66.483 197.367, 63.904 198, 61.809 198 C 58.304 198, 58 198.223, 58 200.800 C 58 205.824, 62.774 207.936, 65.232 204 C 66.097 202.616, 67.564 202, 70 202 C 72.436 202, 73.903 202.616, 74.768 204 C 75.455 205.100, 76.897 206, 77.973 206 C 79.049 206, 80.411 205.100, 81 204 C 82.353 201.471, 89 201.097, 89 203.550 C 89 206.731, 85.766 211.200, 82.466 212.579 C 78.196 214.363, 76.212 214.359, 72.767 212.562 C 70.379 211.316, 69.645 211.331, 66.943 212.678 C 65.095 213.600, 62.675 213.985, 60.926 213.635 C 58.084 213.067, 58 213.164, 58 217.025 L 58 221 81.500 221 L 105 221 105 197.500 L 105 174 124 174 L 143 174 143.115 195.750 C 143.179 207.713, 143.291 218.175, 143.365 219 C 143.480 220.278, 146.941 220.540, 166.750 220.768 L 190 221.037 190 217.192 C 190 213.527, 189.865 213.366, 187.132 213.767 C 185.555 213.999, 182.958 213.512, 181.361 212.687 C 178.874 211.401, 178.101 211.382, 175.979 212.557 C 172.716 214.363, 169.520 214.341, 165.607 212.484 C 162.335 210.931, 159 206.445, 159 203.596 C 159 201.093, 166.159 201.423, 167.768 204 C 168.455 205.100, 169.897 206, 170.973 206 C 172.049 206, 173.411 205.100, 174 204 C 175.465 201.262, 181.058 201.262, 182.768 204 C 185.226 207.936, 190 205.824, 190 200.800 C 190 198.309, 189.641 197.999, 186.750 197.994 C 184.963 197.990, 182.329 197.377, 180.898 196.630 C 178.727 195.497, 177.897 195.492, 175.898 196.600 C 170.648 199.510, 163.247 197.312, 160.517 192.033 C 158.090 187.340, 158.523 186, 162.465 186 C 164.906 186, 166.246 186.591, 167 188 C 167.619 189.158, 169.094 190, 170.500 190 C 171.906 190, 173.381 189.158, 174 188 C 175.465 185.262, 181.058 185.262, 182.768 188 C 185.226 191.936, 190 189.824, 190 184.800 C 190 182.227, 189.693 182, 186.223 182 C 184.145 182, 181.546 181.370, 180.446 180.600 C 178.733 179.400, 178.174 179.400, 176.532 180.600 C 173.935 182.499, 167.490 182.367, 164.414 180.352 C 161.976 178.754, 159 174.190, 159 172.050 C 159 171.472, 160.800 171, 163 171 C 165.200 171, 167 171.434, 167 171.965 C 167 172.495, 167.890 173.406, 168.977 173.988 C 170.535 174.821, 171.357 174.643, 172.853 173.147 C 175.541 170.459, 181.462 169.909, 182.901 172.213 C 184.282 174.425, 188.571 174.560, 189.393 172.418 C 189.727 171.548, 190 157.894, 190 142.075 L 190 113.313 185.087 109.171 C 180.330 105.159, 180.085 105.075, 177.337 106.508 C 173.344 108.591, 168.313 108.357, 164.344 105.903 C 159.551 102.942, 157.648 98.776, 158.248 92.566 L 158.737 87.500 142.171 74 C 133.060 66.575, 125.094 60.369, 124.470 60.209 C 123.846 60.049, 118.872 63.596, 113.418 68.092 M 89.693 74.787 C 87.452 77.263, 85.160 83.192, 85.745 85 C 86.454 87.193, 89.070 89, 91.536 89 C 94.096 89, 97 86.082, 97 83.509 C 97 81.912, 92.431 73, 91.613 73 C 91.446 73, 90.582 73.804, 89.693 74.787 M 168.655 87.557 C 165.176 92.677, 165.078 97.623, 168.426 99.148 C 176.293 102.733, 179.852 94.208, 173.676 86.575 L 171.310 83.651 168.655 87.557 M 85.667 128.667 C 85.300 129.033, 85 134.208, 85 140.167 L 85 151 98.500 151 L 112 151 112 139.500 L 112 128 99.167 128 C 92.108 128, 86.033 128.300, 85.667 128.667 M 136 139.500 L 136 151 149.500 151 L 163 151 163 139.500 L 163 128 149.500 128 L 136 128 136 139.500 M 93 139.500 L 93 143 99 143 L 105 143 105 139.500 L 105 136 99 136 L 93 136 93 139.500 M 143.667 136.667 C 143.300 137.033, 143 138.608, 143 140.167 C 143 142.963, 143.078 143, 149 143 L 155 143 155 139.500 L 155 136 149.667 136 C 146.733 136, 144.033 136.300, 143.667 136.667 M 112.667 182.667 C 112.300 183.033, 112 191.808, 112 202.167 L 112 221 124 221 L 136 221 136 201.500 L 136 182 124.667 182 C 118.433 182, 113.033 182.300, 112.667 182.667" stroke="none" fill="#fafafa" fill-rule="evenodd"/></svg>