<svg xmlns="http://www.w3.org/2000/svg" width="224" height="234" viewBox="0 0 224 234" version="1.1"><path d="M 109.276 5.202 C 107.146 7.838, 98 27.027, 98 28.859 C 98 29.902, 98.646 31.291, 99.436 31.947 C 101.912 34.002, 104.430 31.565, 108.065 23.598 C 109.954 19.457, 111.725 16.054, 112 16.037 C 112.518 16.005, 197.006 185.038, 197.002 186.100 C 197.001 186.430, 195.703 186.655, 194.118 186.600 C 191.320 186.503, 190.112 184.259, 152.868 110 C 120.783 46.028, 114.137 33.448, 112.284 33.185 C 110.278 32.900, 106.411 40.182, 71.533 109.935 C 33.337 186.322, 32.971 187, 29.999 187 C 28.349 187, 27 186.774, 27 186.497 C 27 186.221, 42.750 154.497, 62 116 C 81.250 77.503, 97 45.159, 97 44.125 C 97 41.625, 94.673 39.805, 92.530 40.627 C 91.493 41.025, 76.084 70.799, 53.903 115.262 L 17 189.236 17 208.036 C 17 218.376, 17.273 227.548, 17.607 228.418 C 18.521 230.801, 37.774 230.752, 38.691 228.364 C 39.972 225.024, 37.619 223.515, 30.646 223.204 L 24 222.909 24 208.454 L 24 194 51.500 194 L 79 194 79 208.500 L 79 223 63.535 223 C 48.934 223, 48.009 223.115, 46.966 225.064 C 44.237 230.163, 42.001 230.032, 127.377 229.756 L 206.500 229.500 206.771 209.288 L 207.041 189.075 179.521 134.041 L 152 79.007 152 44.039 C 152 3.572, 153.052 7, 140.637 7 C 130.159 7, 130.010 7.214, 129.956 22.321 L 129.913 34.500 122.206 19.500 C 116.374 8.148, 113.992 4.427, 112.412 4.202 C 111.264 4.038, 109.853 4.488, 109.276 5.202 M 138.049 33.250 L 138.097 51.500 141.500 58 L 144.903 64.500 144.951 39.750 L 145 15 141.500 15 L 138 15 138.049 33.250 M 116 79.434 L 116 106 129 106 C 136.150 106, 142 105.788, 142 105.528 C 142 105.269, 136.150 93.314, 129 78.962 L 116 52.868 116 79.434 M 94.741 79.505 C 87.733 93.533, 82 105.233, 82 105.505 C 82 105.777, 87.850 106, 95 106 L 108 106 108 80 C 108 65.700, 107.883 54, 107.741 54 C 107.598 54, 101.748 65.477, 94.741 79.505 M 79.456 114.255 C 79.191 114.946, 79.092 131.483, 79.237 151.005 L 79.500 186.500 82.750 186.813 C 84.920 187.023, 86.006 186.690, 86.018 185.813 C 86.028 185.091, 86.043 172.902, 86.052 158.727 C 86.060 144.552, 86.491 131.839, 87.009 130.477 L 87.950 128 111.940 128 C 134.634 128, 135.986 128.104, 136.965 129.934 C 137.546 131.021, 138 138.439, 138 146.863 C 138 159.161, 137.717 162.140, 136.429 163.429 C 134.455 165.402, 133.545 165.402, 131.571 163.429 C 130.299 162.156, 130 159.303, 130 148.429 L 130 135 123 135 L 116 135 116 161 L 116 187 123 187 L 130 187 130 181.434 C 130 174.994, 131.269 172, 134 172 C 136.731 172, 138 174.994, 138 181.434 L 138 187 141.500 187 L 145 187 145 150 L 145 113 112.469 113 C 87.294 113, 79.828 113.284, 79.456 114.255 M 56.750 155.487 C 48.638 171.724, 42 185.457, 42 186.004 C 42 187.582, 70.940 187.321, 71.547 185.738 C 71.813 185.045, 71.911 171.312, 71.765 155.221 L 71.500 125.965 56.750 155.487 M 152.296 156 L 152.500 186.500 167.250 186.777 C 178.714 186.992, 181.988 186.769, 181.946 185.777 C 181.916 185.075, 175.187 171.225, 166.992 155 L 152.091 125.500 152.296 156 M 94 161 L 94 187 101 187 L 108 187 108 161 L 108 135 101 135 L 94 135 94 161 M 86.622 199.250 L 86.744 204.500 112.372 204.767 L 138 205.034 138 199.517 L 138 194 112.250 194 L 86.500 194 86.622 199.250 M 145 208.500 L 145 223 172.500 223 L 200 223 200 208.500 L 200 194 172.500 194 L 145 194 145 208.500 M 86.843 217.501 L 86.500 223.003 112.250 223.001 L 138 223 138 217.500 L 138 212 112.593 212 L 87.185 212 86.843 217.501" stroke="none" fill="#0a0a0a" fill-rule="evenodd"/><path d="M -0 117.004 L -0 234.009 112.250 233.754 L 224.500 233.500 224.754 116.750 L 225.008 0 112.504 0 L 0 0 -0 117.004 M 0.484 117.500 C 0.484 181.850, 0.603 208.028, 0.750 175.673 C 0.896 143.318, 0.896 90.668, 0.750 58.673 C 0.603 26.678, 0.484 53.150, 0.484 117.500 M 109.276 5.202 C 107.146 7.838, 98 27.027, 98 28.859 C 98 29.902, 98.646 31.291, 99.436 31.947 C 101.912 34.002, 104.430 31.565, 108.065 23.598 C 109.954 19.457, 111.725 16.054, 112 16.037 C 112.518 16.005, 197.006 185.038, 197.002 186.100 C 197.001 186.430, 195.703 186.655, 194.118 186.600 C 191.320 186.503, 190.112 184.259, 152.868 110 C 120.783 46.028, 114.137 33.448, 112.284 33.185 C 110.278 32.900, 106.411 40.182, 71.533 109.935 C 33.337 186.322, 32.971 187, 29.999 187 C 28.349 187, 27 186.774, 27 186.497 C 27 186.221, 42.750 154.497, 62 116 C 81.250 77.503, 97 45.159, 97 44.125 C 97 41.625, 94.673 39.805, 92.530 40.627 C 91.493 41.025, 76.084 70.799, 53.903 115.262 L 17 189.236 17 208.036 C 17 218.376, 17.273 227.548, 17.607 228.418 C 18.521 230.801, 37.774 230.752, 38.691 228.364 C 39.972 225.024, 37.619 223.515, 30.646 223.204 L 24 222.909 24 208.454 L 24 194 51.500 194 L 79 194 79 208.500 L 79 223 63.535 223 C 48.934 223, 48.009 223.115, 46.966 225.064 C 44.237 230.163, 42.001 230.032, 127.377 229.756 L 206.500 229.500 206.771 209.288 L 207.041 189.075 179.521 134.041 L 152 79.007 152 44.039 C 152 3.572, 153.052 7, 140.637 7 C 130.159 7, 130.010 7.214, 129.956 22.321 L 129.913 34.500 122.206 19.500 C 116.374 8.148, 113.992 4.427, 112.412 4.202 C 111.264 4.038, 109.853 4.488, 109.276 5.202 M 138.049 33.250 L 138.097 51.500 141.500 58 L 144.903 64.500 144.951 39.750 L 145 15 141.500 15 L 138 15 138.049 33.250 M 116 79.434 L 116 106 129 106 C 136.150 106, 142 105.788, 142 105.528 C 142 105.269, 136.150 93.314, 129 78.962 L 116 52.868 116 79.434 M 94.741 79.505 C 87.733 93.533, 82 105.233, 82 105.505 C 82 105.777, 87.850 106, 95 106 L 108 106 108 80 C 108 65.700, 107.883 54, 107.741 54 C 107.598 54, 101.748 65.477, 94.741 79.505 M 79.456 114.255 C 79.191 114.946, 79.092 131.483, 79.237 151.005 L 79.500 186.500 82.750 186.813 C 84.920 187.023, 86.006 186.690, 86.018 185.813 C 86.028 185.091, 86.043 172.902, 86.052 158.727 C 86.060 144.552, 86.491 131.839, 87.009 130.477 L 87.950 128 111.940 128 C 134.634 128, 135.986 128.104, 136.965 129.934 C 137.546 131.021, 138 138.439, 138 146.863 C 138 159.161, 137.717 162.140, 136.429 163.429 C 134.455 165.402, 133.545 165.402, 131.571 163.429 C 130.299 162.156, 130 159.303, 130 148.429 L 130 135 123 135 L 116 135 116 161 L 116 187 123 187 L 130 187 130 181.434 C 130 174.994, 131.269 172, 134 172 C 136.731 172, 138 174.994, 138 181.434 L 138 187 141.500 187 L 145 187 145 150 L 145 113 112.469 113 C 87.294 113, 79.828 113.284, 79.456 114.255 M 56.750 155.487 C 48.638 171.724, 42 185.457, 42 186.004 C 42 187.582, 70.940 187.321, 71.547 185.738 C 71.813 185.045, 71.911 171.312, 71.765 155.221 L 71.500 125.965 56.750 155.487 M 152.296 156 L 152.500 186.500 167.250 186.777 C 178.714 186.992, 181.988 186.769, 181.946 185.777 C 181.916 185.075, 175.187 171.225, 166.992 155 L 152.091 125.500 152.296 156 M 94 161 L 94 187 101 187 L 108 187 108 161 L 108 135 101 135 L 94 135 94 161 M 86.622 199.250 L 86.744 204.500 112.372 204.767 L 138 205.034 138 199.517 L 138 194 112.250 194 L 86.500 194 86.622 199.250 M 145 208.500 L 145 223 172.500 223 L 200 223 200 208.500 L 200 194 172.500 194 L 145 194 145 208.500 M 86.843 217.501 L 86.500 223.003 112.250 223.001 L 138 223 138 217.500 L 138 212 112.593 212 L 87.185 212 86.843 217.501" stroke="none" fill="#f9f9f9" fill-rule="evenodd"/></svg>