<svg xmlns="http://www.w3.org/2000/svg" width="97" height="96" viewBox="0 0 97 96" version="1.1"><path d="" stroke="none" fill="#080404" fill-rule="evenodd"/><path d="M 4.667 3.667 C 3.701 4.632, 3.875 90.255, 4.846 91.784 C 5.450 92.736, 8.617 92.995, 17.080 92.784 L 28.500 92.500 28.816 89.750 L 29.133 87 62.066 87 L 95 87 95 84 C 95 82, 94.500 81, 93.500 81 C 92.197 81, 92 76.667, 92 48 C 92 19.333, 92.197 15, 93.500 15 C 94.500 15, 95 14, 95 12 L 95 9 65.125 9 L 35.250 9 34.650 6 L 34.050 3 19.692 3 C 11.795 3, 5.033 3.300, 4.667 3.667 M 11 26.608 L 11 44.217 13.750 43.548 C 17.965 42.523, 23.255 37.864, 25.750 32.980 C 27.630 29.300, 28 26.967, 28 18.788 L 28 9 19.500 9 L 11 9 11 26.608 M 34.813 23.339 C 34.448 30.289, 33.870 32.578, 31.335 37.089 C 29.663 40.065, 26.462 43.910, 24.222 45.634 L 20.149 48.768 22.824 51.315 C 25.274 53.646, 25.711 53.743, 28 52.466 C 31.636 50.437, 37.970 50.684, 41.774 53.004 C 43.575 54.102, 45.702 55, 46.500 55 C 47.298 55, 49.425 54.102, 51.226 53.004 C 55.427 50.442, 61.573 50.442, 65.774 53.004 C 69.865 55.498, 71.135 55.498, 75.226 53.004 C 77.027 51.906, 79.963 51.006, 81.750 51.004 L 85 51 85 33 L 85 15 60.125 15 L 35.251 15 34.813 23.339 M 60.923 26.923 C 57.197 30.650, 57.082 34.756, 60.589 38.923 C 64.190 43.203, 69.886 43.268, 74.077 39.077 C 77.803 35.350, 77.918 31.244, 74.411 27.077 C 70.810 22.797, 65.114 22.732, 60.923 26.923 M 66.250 30.731 C 65.563 30.970, 65 31.981, 65 32.976 C 65 34.921, 66.725 35.976, 68.750 35.269 C 69.438 35.030, 70 34.019, 70 33.024 C 70 31.079, 68.275 30.024, 66.250 30.731 M 11 69.500 L 11 87 16.500 87 L 22 87 22 74.901 C 22 61.100, 20.818 57.287, 15.526 54.016 C 13.732 52.907, 11.980 52, 11.632 52 C 11.284 52, 11 59.875, 11 69.500 M 30.735 58.767 C 29.179 59.732, 28.196 61.067, 28.485 61.822 C 28.768 62.560, 29 63.918, 29 64.839 C 29 66.211, 29.815 66.450, 33.497 66.157 C 36.752 65.898, 38.977 66.379, 41.554 67.900 C 45.962 70.500, 47.111 70.513, 51.226 68.004 C 55.427 65.442, 61.573 65.442, 65.774 68.004 C 69.865 70.498, 71.135 70.498, 75.226 68.004 C 77.027 66.906, 79.963 66.006, 81.750 66.004 C 84.879 66, 85 65.849, 85 61.969 C 85 56.740, 83.311 56.148, 77.729 59.419 C 72.155 62.685, 68.987 62.670, 63.081 59.350 L 58.367 56.701 53.846 59.350 C 48.226 62.644, 44.634 62.688, 39.500 59.526 C 34.738 56.593, 34.303 56.555, 30.735 58.767 M 31.223 73.557 C 29.782 74.566, 29 76.149, 29 78.057 L 29 81 57 81 L 85 81 85 76.969 C 85 71.740, 83.311 71.148, 77.729 74.419 C 72.155 77.685, 68.987 77.670, 63.081 74.350 L 58.367 71.701 53.846 74.350 C 48.226 77.644, 44.634 77.688, 39.500 74.526 C 34.750 71.601, 34.121 71.527, 31.223 73.557" stroke="none" fill="#040404" fill-rule="evenodd"/></svg>