<svg xmlns="http://www.w3.org/2000/svg" width="228" height="234" viewBox="0 0 228 234" version="1.1"><path d="M 122.697 31.024 C 120.298 32.911, 119.444 32.984, 110.053 32.100 C 84.280 29.675, 60.128 36.394, 39.415 51.753 C 32.131 57.153, 31.312 58.109, 30.343 62.343 L 29.278 66.998 32.889 67.947 C 34.875 68.470, 43.839 70.732, 52.809 72.975 L 69.118 77.052 71.963 75.026 C 75.576 72.454, 75.528 72.445, 76.970 75.928 C 78.425 79.440, 77.495 79.054, 94.096 83.026 C 101.468 84.789, 107.810 86.518, 108.188 86.866 C 108.567 87.215, 103.147 110.450, 96.144 138.500 L 83.411 189.500 73.956 189.664 C 53.229 190.024, 42.278 191.678, 44.684 194.084 C 45.363 194.763, 47.788 194.753, 52.097 194.054 C 72.574 190.731, 112.370 194.803, 135.152 202.552 C 141.882 204.841, 145.783 204.695, 142.792 202.265 C 139.227 199.369, 112.602 192.802, 98.765 191.406 C 92.115 190.735, 92.039 190.694, 92.693 188.113 C 93.057 186.676, 98.602 164.011, 105.014 137.746 C 111.427 111.482, 116.914 89.752, 117.208 89.458 C 117.502 89.164, 124.355 90.579, 132.436 92.602 L 147.129 96.280 150.143 94.052 C 151.801 92.827, 153.290 91.976, 153.451 92.162 C 153.613 92.348, 154.431 93.850, 155.269 95.500 C 156.729 98.373, 157.626 98.707, 176.442 103.371 C 187.250 106.050, 196.336 107.997, 196.635 107.699 C 196.933 107.400, 197.605 105.254, 198.127 102.930 C 199.013 98.985, 198.746 98.031, 194.111 88.602 C 182.944 65.885, 163.614 48.323, 139.532 39.012 C 133.457 36.664, 131 35.224, 131 34.012 C 131 32.188, 128.014 29, 126.306 29 C 125.736 29, 124.112 29.911, 122.697 31.024 M 124.500 34 C 124.840 34.550, 125.766 35, 126.559 35 C 127.352 35, 128 34.550, 128 34 C 128 33.450, 127.073 33, 125.941 33 C 124.809 33, 124.160 33.450, 124.500 34 M 80.717 36.619 C 64.922 40.009, 47.705 48.097, 38.621 56.396 C 30.302 63.996, 30.473 64.188, 49.716 68.898 C 68.331 73.455, 69.276 73.578, 70.873 71.653 C 71.784 70.555, 69.019 69.594, 55.882 66.441 C 41.782 63.056, 37.412 61.254, 39.133 59.533 C 39.343 59.324, 47.520 61.082, 57.306 63.440 L 75.099 67.726 77.190 63.613 C 83.413 51.374, 92.422 41.651, 101.500 37.375 L 106.500 35.020 97 35.091 C 91.775 35.131, 84.448 35.818, 80.717 36.619 M 107.994 37.876 C 104.236 39.106, 98.900 41.992, 95.240 44.775 C 91.318 47.756, 83.678 57.729, 80.476 64.047 L 78.157 68.623 113.829 77.373 C 133.448 82.185, 150.287 86.350, 151.250 86.629 C 152.761 87.066, 152.999 86.410, 152.992 81.817 C 152.965 62.315, 145.130 46.636, 132.269 40.343 C 127.883 38.197, 125.013 37.567, 118.608 37.341 C 114.149 37.184, 109.372 37.425, 107.994 37.876 M 145.193 46.596 C 151.168 53.038, 155.949 68.343, 155.983 81.132 L 156 87.763 173.250 92.017 C 182.738 94.357, 190.913 96.645, 191.417 97.103 C 194.065 99.504, 187.273 98.817, 172.972 95.237 C 164.188 93.038, 157 91.549, 157 91.928 C 157 94.567, 160.963 96.267, 175.705 99.951 C 184.618 102.178, 192.553 104, 193.338 104 C 197.717 104, 193.679 91.872, 184.969 78.866 C 178.662 69.449, 163.814 55.338, 154.368 49.785 C 143.676 43.500, 141.679 42.806, 145.193 46.596 M 79.850 74.124 C 80.642 76.263, 83.605 77.185, 113.566 84.614 C 139.608 91.071, 146.785 92.527, 148.207 91.639 C 149.193 91.023, 149.998 90.290, 149.995 90.009 C 149.993 89.729, 134.580 85.727, 115.745 81.115 C 96.910 76.504, 80.934 72.517, 80.241 72.255 C 79.310 71.903, 79.209 72.390, 79.850 74.124 M 111.073 91.750 C 105.407 112.900, 86.962 189.296, 87.412 189.746 C 87.736 190.069, 88.262 190.072, 88.581 189.752 C 88.901 189.432, 94.527 167.208, 101.084 140.365 C 107.641 113.522, 113.259 90.758, 113.570 89.779 C 113.881 88.801, 113.672 88, 113.106 88 C 112.540 88, 111.625 89.688, 111.073 91.750" stroke="none" fill="#2c2c2c" fill-rule="evenodd"/><path d="M 0 117.004 L 0 234.008 114.250 233.754 L 228.500 233.500 228.754 116.750 L 229.008 0 114.504 0 L 0 0 0 117.004 M 0.484 117.500 C 0.484 181.850, 0.603 208.028, 0.750 175.673 C 0.896 143.318, 0.896 90.668, 0.750 58.673 C 0.603 26.678, 0.484 53.150, 0.484 117.500 M 122.697 31.024 C 120.298 32.911, 119.444 32.984, 110.053 32.100 C 84.280 29.675, 60.128 36.394, 39.415 51.753 C 32.131 57.153, 31.312 58.109, 30.343 62.343 L 29.278 66.998 32.889 67.947 C 34.875 68.470, 43.839 70.732, 52.809 72.975 L 69.118 77.052 71.963 75.026 C 75.576 72.454, 75.528 72.445, 76.970 75.928 C 78.425 79.440, 77.495 79.054, 94.096 83.026 C 101.468 84.789, 107.810 86.518, 108.188 86.866 C 108.567 87.215, 103.147 110.450, 96.144 138.500 L 83.411 189.500 73.956 189.664 C 53.229 190.024, 42.278 191.678, 44.684 194.084 C 45.363 194.763, 47.788 194.753, 52.097 194.054 C 72.574 190.731, 112.370 194.803, 135.152 202.552 C 141.882 204.841, 145.783 204.695, 142.792 202.265 C 139.227 199.369, 112.602 192.802, 98.765 191.406 C 92.115 190.735, 92.039 190.694, 92.693 188.113 C 93.057 186.676, 98.602 164.011, 105.014 137.746 C 111.427 111.482, 116.914 89.752, 117.208 89.458 C 117.502 89.164, 124.355 90.579, 132.436 92.602 L 147.129 96.280 150.143 94.052 C 151.801 92.827, 153.290 91.976, 153.451 92.162 C 153.613 92.348, 154.431 93.850, 155.269 95.500 C 156.729 98.373, 157.626 98.707, 176.442 103.371 C 187.250 106.050, 196.336 107.997, 196.635 107.699 C 196.933 107.400, 197.605 105.254, 198.127 102.930 C 199.013 98.985, 198.746 98.031, 194.111 88.602 C 182.944 65.885, 163.614 48.323, 139.532 39.012 C 133.457 36.664, 131 35.224, 131 34.012 C 131 32.188, 128.014 29, 126.306 29 C 125.736 29, 124.112 29.911, 122.697 31.024 M 124.500 34 C 124.840 34.550, 125.766 35, 126.559 35 C 127.352 35, 128 34.550, 128 34 C 128 33.450, 127.073 33, 125.941 33 C 124.809 33, 124.160 33.450, 124.500 34 M 80.717 36.619 C 64.922 40.009, 47.705 48.097, 38.621 56.396 C 30.302 63.996, 30.473 64.188, 49.716 68.898 C 68.331 73.455, 69.276 73.578, 70.873 71.653 C 71.784 70.555, 69.019 69.594, 55.882 66.441 C 41.782 63.056, 37.412 61.254, 39.133 59.533 C 39.343 59.324, 47.520 61.082, 57.306 63.440 L 75.099 67.726 77.190 63.613 C 83.413 51.374, 92.422 41.651, 101.500 37.375 L 106.500 35.020 97 35.091 C 91.775 35.131, 84.448 35.818, 80.717 36.619 M 107.994 37.876 C 104.236 39.106, 98.900 41.992, 95.240 44.775 C 91.318 47.756, 83.678 57.729, 80.476 64.047 L 78.157 68.623 113.829 77.373 C 133.448 82.185, 150.287 86.350, 151.250 86.629 C 152.761 87.066, 152.999 86.410, 152.992 81.817 C 152.965 62.315, 145.130 46.636, 132.269 40.343 C 127.883 38.197, 125.013 37.567, 118.608 37.341 C 114.149 37.184, 109.372 37.425, 107.994 37.876 M 145.193 46.596 C 151.168 53.038, 155.949 68.343, 155.983 81.132 L 156 87.763 173.250 92.017 C 182.738 94.357, 190.913 96.645, 191.417 97.103 C 194.065 99.504, 187.273 98.817, 172.972 95.237 C 164.188 93.038, 157 91.549, 157 91.928 C 157 94.567, 160.963 96.267, 175.705 99.951 C 184.618 102.178, 192.553 104, 193.338 104 C 197.717 104, 193.679 91.872, 184.969 78.866 C 178.662 69.449, 163.814 55.338, 154.368 49.785 C 143.676 43.500, 141.679 42.806, 145.193 46.596 M 79.850 74.124 C 80.642 76.263, 83.605 77.185, 113.566 84.614 C 139.608 91.071, 146.785 92.527, 148.207 91.639 C 149.193 91.023, 149.998 90.290, 149.995 90.009 C 149.993 89.729, 134.580 85.727, 115.745 81.115 C 96.910 76.504, 80.934 72.517, 80.241 72.255 C 79.310 71.903, 79.209 72.390, 79.850 74.124 M 111.073 91.750 C 105.407 112.900, 86.962 189.296, 87.412 189.746 C 87.736 190.069, 88.262 190.072, 88.581 189.752 C 88.901 189.432, 94.527 167.208, 101.084 140.365 C 107.641 113.522, 113.259 90.758, 113.570 89.779 C 113.881 88.801, 113.672 88, 113.106 88 C 112.540 88, 111.625 89.688, 111.073 91.750" stroke="none" fill="#fafafa" fill-rule="evenodd"/></svg>