<svg xmlns="http://www.w3.org/2000/svg" width="210" height="234" viewBox="0 0 210 234" version="1.1"><path d="M 98.710 3.088 C 93.638 7.268, 86.535 21.980, 79.872 42.107 C 76.978 50.848, 74.345 58, 74.021 58 C 73.696 58, 72.693 56.763, 71.790 55.250 C 70.887 53.737, 68.357 50.762, 66.167 48.638 C 61.156 43.777, 55.287 42.768, 50.286 45.908 C 37.967 53.645, 20.208 96.568, 4.957 155.470 L 0 174.617 0.103 195.059 C 0.174 209.122, 0.484 214.408, 1.095 212 C 1.584 210.075, 4.201 198.825, 6.911 187 C 17.823 139.383, 32.301 93.367, 43.251 71.500 C 47.450 63.113, 52.864 55.143, 55.216 53.884 C 58.026 52.381, 61.637 56.104, 67.501 66.553 C 73.147 76.613, 74.227 77.673, 77.366 76.243 C 79.197 75.409, 80.248 73.164, 82.465 65.352 C 89.278 41.344, 98.262 18.191, 103.361 11.500 L 104.885 9.500 106.871 11.500 C 114.705 19.385, 125.969 53.601, 138.060 106.238 C 143.817 131.302, 143.641 130.738, 146.118 132.063 C 149.634 133.945, 151.392 131.570, 155.906 118.841 C 160.651 105.463, 167.383 90.757, 169.609 88.910 C 171.579 87.275, 173.550 89.161, 176.957 95.940 C 186.010 113.953, 197.362 152.900, 206.341 196.751 C 208.171 205.689, 209.968 213.301, 210.334 213.668 C 210.700 214.034, 211 205.142, 211 193.908 L 211 173.483 206.497 155.314 C 197.104 117.424, 186.106 88.942, 178.058 81.672 C 172.361 76.524, 168.931 76.666, 163.579 82.270 C 159.707 86.322, 153.777 97.082, 150.913 105.250 C 150.190 107.313, 149.337 109, 149.019 109 C 148.700 109, 146.714 101.688, 144.606 92.750 C 132.950 43.342, 121.552 12.249, 111.901 3.530 C 106.983 -0.914, 103.698 -1.024, 98.710 3.088 M 98.324 173.383 C 85.055 177.711, 76.091 188.906, 67.001 212.500 L 62.377 224.500 31.189 224.764 L 0 225.028 0 229.514 L 0 234 34.386 234 L 68.772 234 70.266 230.750 C 71.087 228.963, 72.765 224.350, 73.994 220.500 C 77.258 210.279, 84.381 196.190, 88.990 190.838 C 96.165 182.506, 105.839 179.837, 113.918 183.958 C 122.262 188.215, 130.829 201.923, 137.970 222.448 C 139.682 227.369, 141.575 231.987, 142.175 232.711 C 143.046 233.760, 150.068 233.973, 176.883 233.763 L 210.500 233.500 210.795 229 L 211.090 224.500 179.916 224.500 L 148.742 224.500 144.584 213.500 C 139.057 198.879, 134.879 191.312, 128.351 184.098 C 119.526 174.347, 107.991 170.230, 98.324 173.383 M 0.425 194 C 0.425 205.825, 0.569 210.662, 0.746 204.750 C 0.923 198.838, 0.923 189.162, 0.746 183.250 C 0.569 177.338, 0.425 182.175, 0.425 194 M 0.286 229.500 C 0.294 232.250, 0.488 233.256, 0.718 231.736 C 0.947 230.216, 0.941 227.966, 0.704 226.736 C 0.467 225.506, 0.279 226.750, 0.286 229.500" stroke="none" fill="#080808" fill-rule="evenodd"/><path d="M 0.071 86.750 L 0.142 173.500 5.022 154.932 C 20.624 95.567, 38.051 53.591, 50.286 45.908 C 55.287 42.768, 61.156 43.777, 66.167 48.638 C 68.357 50.762, 70.887 53.738, 71.790 55.250 C 72.693 56.763, 73.696 58, 74.021 58 C 74.345 58, 76.978 50.848, 79.872 42.107 C 86.535 21.980, 93.638 7.268, 98.710 3.088 L 102.456 0 51.228 0 L 0 0 0.071 86.750 M 111.901 3.530 C 121.552 12.249, 132.950 43.342, 144.606 92.750 C 146.714 101.688, 148.700 109, 149.019 109 C 149.337 109, 150.190 107.312, 150.913 105.250 C 153.777 97.082, 159.707 86.322, 163.579 82.270 C 168.931 76.666, 172.361 76.524, 178.058 81.672 C 185.862 88.722, 196.138 114.808, 205.566 151.500 L 209.934 168.500 209.967 84.250 L 210 0 158.997 0 L 107.994 0 111.901 3.530 M 102.755 12.251 C 97.297 20.581, 89.032 42.212, 82.465 65.352 C 80.248 73.164, 79.197 75.409, 77.366 76.243 C 74.227 77.673, 73.147 76.613, 67.501 66.553 C 61.637 56.104, 58.026 52.381, 55.216 53.884 C 52.864 55.143, 47.450 63.113, 43.251 71.500 C 33.794 90.385, 18.506 137.285, 9.932 173.709 C 3.465 201.183, -0 217.735, 0 221.157 L 0 225.028 31.189 224.764 L 62.377 224.500 67.001 212.500 C 72.629 197.892, 76.716 190.566, 83.191 183.482 C 96.830 168.558, 114.506 168.799, 128.351 184.098 C 134.879 191.312, 139.057 198.879, 144.584 213.500 L 148.742 224.500 179.621 224.500 L 210.500 224.500 210.817 220.059 C 210.991 217.617, 210.702 214.692, 210.174 213.559 C 209.646 212.427, 207.765 204.300, 205.995 195.500 C 197.543 153.492, 186.013 113.959, 176.957 95.940 C 173.550 89.161, 171.579 87.275, 169.609 88.910 C 167.383 90.757, 160.651 105.463, 155.906 118.841 C 151.583 131.029, 149.789 133.624, 146.545 132.379 C 144.006 131.405, 143.444 129.677, 138.111 106.461 C 130.596 73.744, 125.930 56.630, 119.399 37.826 C 114.206 22.875, 107.526 10, 104.960 10 C 104.559 10, 103.566 11.013, 102.755 12.251 M 97.230 184.115 C 94.882 185.278, 91.164 188.315, 88.968 190.864 C 84.161 196.446, 77.238 210.372, 73.491 222 C 71.984 226.675, 70.358 230.927, 69.876 231.450 C 69.394 231.972, 69 232.760, 69 233.200 C 69 233.640, 85.705 234, 106.122 234 C 136.501 234, 143.049 233.763, 142.164 232.698 C 141.570 231.982, 139.682 227.369, 137.970 222.448 C 126.416 189.242, 112.784 176.416, 97.230 184.115 M 0.300 220 C 0.300 223.025, 0.487 224.262, 0.716 222.750 C 0.945 221.238, 0.945 218.762, 0.716 217.250 C 0.487 215.738, 0.300 216.975, 0.300 220" stroke="none" fill="#fafafa" fill-rule="evenodd"/></svg>