<svg xmlns="http://www.w3.org/2000/svg" width="219" height="234" viewBox="0 0 219 234" version="1.1"><path d="M 72.200 1.200 C 70.541 2.859, 70.541 26.141, 72.200 27.800 C 73.783 29.383, 77.480 29.331, 78.828 27.707 C 80.407 25.805, 80.546 3.363, 78.990 1.488 C 77.503 -0.303, 73.858 -0.458, 72.200 1.200 M 33.200 12.200 C 31.004 14.396, 31.950 17.477, 37.754 27.030 C 43.665 36.758, 46.240 38.705, 49.555 35.954 C 51.701 34.173, 51.341 31.922, 47.866 25.391 C 40.764 12.044, 36.864 8.536, 33.200 12.200 M 108.623 16.250 C 99.609 30.366, 98.402 35.310, 103.651 36.627 C 106.832 37.426, 107.657 36.582, 113.953 26.090 C 119.076 17.555, 119.960 14.360, 117.800 12.200 C 115.111 9.511, 112.069 10.854, 108.623 16.250 M 4.655 40.829 C 1.753 44.036, 2.727 45.865, 9.750 50.389 C 20.524 57.329, 24.735 59.212, 26.897 58.055 C 29.617 56.599, 30.257 54.041, 28.552 51.439 C 27.008 49.083, 10.084 39, 7.672 39 C 6.923 39, 5.565 39.823, 4.655 40.829 M 65 40.431 C 45.190 45.943, 32 62.958, 32 83 C 32 100.374, 41.560 115.225, 57.570 122.723 C 63.020 125.275, 64.471 125.500, 75.500 125.500 C 86.933 125.500, 87.820 125.348, 94.274 122.291 C 103.058 118.131, 110.595 110.600, 115.065 101.521 C 118.379 94.789, 118.500 94.133, 118.500 82.969 C 118.500 71.607, 118.432 71.258, 114.741 63.790 C 105.603 45.300, 83.985 35.148, 65 40.431 M 132.273 44.558 C 122.365 50.451, 120.754 52.222, 122.086 55.750 C 123.329 59.041, 127.174 58.625, 134.904 54.364 C 147.639 47.345, 150.171 44.314, 146.429 40.571 C 144.001 38.144, 142.203 38.651, 132.273 44.558 M 65.324 50.380 C 50.806 55.126, 42 67.773, 42 83.878 C 42 90.567, 42.433 92.547, 45.036 97.757 C 48.636 104.959, 54.165 110.247, 61.880 113.865 C 66.580 116.068, 68.892 116.498, 76 116.490 C 83.394 116.481, 85.253 116.099, 90.290 113.558 C 97.207 110.068, 103.253 103.802, 106.562 96.695 C 108.525 92.478, 108.982 89.883, 108.990 82.910 C 108.999 75.338, 108.641 73.601, 105.973 68.262 C 102.455 61.222, 95.823 54.699, 89.176 51.741 C 83.320 49.136, 71.240 48.447, 65.324 50.380 M 0 83 L 0 88 9.345 88 C 17.356 88, 18.943 87.720, 20.464 86.040 C 22.759 83.504, 21.828 79.455, 18.761 78.633 C 17.517 78.300, 12.787 78.021, 8.250 78.014 L 0 78 0 83 M 130.557 80.223 C 128.553 83.083, 128.592 83.592, 131 86 C 132.732 87.732, 134.333 88, 142.935 88 C 155.148 88, 158 87.096, 158 83.225 C 158 78.512, 156.615 78, 143.857 78 C 132.855 78, 132.015 78.140, 130.557 80.223 M 18.560 110.432 C 3.707 118.174, 0.232 122.140, 5.357 125.499 C 7.685 127.024, 8.103 126.990, 12.169 124.947 C 20.431 120.794, 28.016 115.839, 29.040 113.924 C 30.222 111.717, 28.971 108.587, 26.535 107.652 C 25.699 107.331, 22.110 108.582, 18.560 110.432 M 123.697 108.149 C 122.699 108.708, 122 110.314, 122 112.048 C 122 115.255, 124.970 117.559, 137.676 124.211 C 143.749 127.391, 143.886 127.414, 145.926 125.567 C 150.123 121.769, 148.036 118.962, 136 112.221 C 128.217 107.861, 125.700 107.028, 123.697 108.149 M 163.417 111.384 L 159.500 114.768 159 145.134 L 158.500 175.500 153.536 175.500 C 148.935 175.500, 148.565 175.317, 148.471 173 C 148.193 166.159, 147.774 164.812, 144.907 161.547 C 136.165 151.590, 122.506 156, 119.716 169.681 L 118.490 175.691 109.995 175.888 C 98.351 176.157, 84.247 178.518, 74.196 181.879 L 65.789 184.691 56.644 179.168 C 40.299 169.295, 15.560 158.855, 3.250 156.636 L 0 156.050 0 160.877 L 0 165.703 6.750 167.514 C 15.327 169.814, 31.864 176.702, 42.926 182.580 C 60.980 192.175, 72.652 201.089, 81.293 211.884 C 83.404 214.520, 87.705 214.448, 89.396 211.747 C 90.986 209.208, 86.882 201.978, 80.689 196.411 C 77.957 193.954, 75.934 191.733, 76.192 191.475 C 78.296 189.371, 106.864 185, 118.509 185 C 119.180 185, 120.472 186.947, 121.381 189.327 C 123.363 194.518, 127.925 199.404, 133.447 202.249 C 136.574 203.861, 139.956 204.443, 148.250 204.797 L 159 205.257 159 218.428 C 159 227.340, 159.388 231.988, 160.200 232.800 C 160.997 233.597, 165.343 234, 173.143 234 C 188.620 234, 188 234.866, 188 213.265 L 188 196.975 195.250 200.618 C 199.238 202.622, 205.972 206.227, 210.215 208.631 C 214.459 211.034, 218.171 213, 218.465 213 C 218.759 213, 218.988 210.412, 218.973 207.250 L 218.946 201.500 203.533 194 L 188.119 186.500 188.060 181.365 L 188 176.230 203.250 175.365 L 218.500 174.500 219.100 169 C 219.430 165.975, 219.475 155.520, 219.200 145.767 L 218.701 128.035 215.350 127.406 C 209.625 126.332, 205.481 127.725, 201.591 132.031 C 198.946 134.958, 198 136.906, 198 139.421 C 198 145.118, 197.248 146, 192.393 146 L 188 146 188 132.450 C 188 117.526, 187.342 115.149, 181.959 110.619 C 179.390 108.457, 177.841 108, 173.090 108 C 167.987 108, 166.889 108.384, 163.417 111.384 M 169.655 118.829 C 168.190 120.448, 168 124.213, 168 151.629 C 168 174.384, 167.682 182.918, 166.800 183.800 C 165.997 184.603, 161.541 185, 153.335 185 C 139.055 185, 139 184.962, 139 175.137 C 139 166.660, 134.864 163.178, 130.510 167.989 C 128.999 169.658, 128.798 171.146, 129.260 177.239 C 129.919 185.917, 131.185 189.010, 135.363 192.145 C 138.196 194.272, 139.808 194.548, 152 195.002 C 159.425 195.278, 166.063 195.868, 166.750 196.311 C 167.647 196.890, 168 200.883, 168 210.458 L 168 223.799 172.571 224.162 C 175.084 224.362, 177.334 224.332, 177.571 224.096 C 177.807 223.860, 178 211.232, 178 196.033 C 178 175.874, 178.325 168.075, 179.200 167.200 C 180.034 166.366, 185.306 166, 196.477 166 C 217.710 166, 217 166.489, 217 151.878 C 217 140.129, 216.137 137, 212.899 137 C 207.992 137, 207 138.597, 207 146.500 C 207 152.822, 206.712 154.084, 205.066 154.965 C 202.245 156.474, 181.771 156.300, 179.766 154.750 C 178.419 153.708, 178.097 150.742, 177.825 136.903 C 177.488 119.677, 176.843 117, 173.033 117 C 172.085 117, 170.565 117.823, 169.655 118.829 M 39.615 135.750 C 31.900 147.737, 30.651 151.251, 33.200 153.800 C 35.268 155.868, 38.754 155.156, 40.796 152.250 C 44.535 146.928, 51 134.801, 51 133.110 C 51 130.723, 49.021 129, 46.280 129 C 44.511 129, 42.927 130.605, 39.615 135.750 M 100.850 131.430 C 99.894 133.529, 100.325 134.928, 104.010 141.680 C 110.477 153.533, 111.811 155.161, 114.757 154.806 C 116.155 154.638, 117.784 153.724, 118.378 152.775 C 119.780 150.536, 118.638 147.524, 112.429 137.087 C 108.218 130.008, 107.266 129, 104.788 129 C 102.761 129, 101.643 129.690, 100.850 131.430 M 72.200 138.200 C 71.403 138.997, 71 143.340, 71 151.129 C 71 160.458, 71.322 163.179, 72.571 164.429 C 74.414 166.271, 75.438 166.371, 78.066 164.965 C 79.817 164.028, 80 162.767, 80 151.665 C 80 138.789, 79.451 137, 75.500 137 C 74.345 137, 72.860 137.540, 72.200 138.200 M 0.300 161 C 0.300 164.025, 0.487 165.262, 0.716 163.750 C 0.945 162.238, 0.945 159.762, 0.716 158.250 C 0.487 156.738, 0.300 157.975, 0.300 161" stroke="none" fill="#090909" fill-rule="evenodd"/><path d="M 0 39 L 0 78 8.250 78.014 C 12.787 78.021, 17.517 78.300, 18.761 78.633 C 21.828 79.455, 22.759 83.504, 20.464 86.040 C 18.943 87.720, 17.356 88, 9.345 88 L 0 88 0 121.981 L 0 155.962 2.750 156.520 C 16.543 159.320, 40.345 169.322, 56.644 179.168 L 65.789 184.691 74.196 181.879 C 84.247 178.518, 98.351 176.157, 109.995 175.888 L 118.490 175.691 119.716 169.681 C 122.506 156, 136.165 151.590, 144.907 161.547 C 147.774 164.812, 148.193 166.159, 148.471 173 C 148.565 175.317, 148.935 175.500, 153.536 175.500 L 158.500 175.500 159 145.134 L 159.500 114.768 163.417 111.384 C 166.889 108.384, 167.987 108, 173.090 108 C 177.841 108, 179.390 108.457, 181.959 110.619 C 187.342 115.149, 188 117.526, 188 132.450 L 188 146 192.393 146 C 197.248 146, 198 145.118, 198 139.421 C 198 136.906, 198.946 134.958, 201.591 132.031 C 205.506 127.698, 209.626 126.332, 215.472 127.429 L 218.944 128.080 219.232 141.790 C 219.391 149.331, 219.615 120.513, 219.731 77.750 L 219.942 0 148.849 0 C 86.012 0, 77.899 0.173, 78.990 1.488 C 80.546 3.363, 80.407 25.805, 78.828 27.707 C 77.480 29.331, 73.783 29.383, 72.200 27.800 C 70.541 26.141, 70.541 2.859, 72.200 1.200 C 73.133 0.267, 65.244 -0, 36.700 -0 L 0 0 0 39 M 0.455 39.500 C 0.455 60.950, 0.587 69.583, 0.749 58.684 C 0.911 47.785, 0.910 30.235, 0.748 19.684 C 0.587 9.133, 0.454 18.050, 0.455 39.500 M 33.200 12.200 C 31.004 14.396, 31.950 17.477, 37.754 27.030 C 43.665 36.758, 46.240 38.705, 49.555 35.954 C 51.701 34.173, 51.341 31.922, 47.866 25.391 C 40.764 12.044, 36.864 8.536, 33.200 12.200 M 108.623 16.250 C 99.609 30.366, 98.402 35.310, 103.651 36.627 C 106.832 37.426, 107.657 36.582, 113.953 26.090 C 119.076 17.555, 119.960 14.360, 117.800 12.200 C 115.111 9.511, 112.069 10.854, 108.623 16.250 M 4.655 40.829 C 1.753 44.036, 2.727 45.865, 9.750 50.389 C 20.524 57.329, 24.735 59.212, 26.897 58.055 C 29.617 56.599, 30.257 54.041, 28.552 51.439 C 27.008 49.083, 10.084 39, 7.672 39 C 6.923 39, 5.565 39.823, 4.655 40.829 M 65 40.431 C 45.190 45.943, 32 62.958, 32 83 C 32 100.374, 41.560 115.225, 57.570 122.723 C 63.020 125.275, 64.471 125.500, 75.500 125.500 C 86.933 125.500, 87.820 125.348, 94.274 122.291 C 103.058 118.131, 110.595 110.600, 115.065 101.521 C 118.379 94.789, 118.500 94.133, 118.500 82.969 C 118.500 71.607, 118.432 71.258, 114.741 63.790 C 105.603 45.300, 83.985 35.148, 65 40.431 M 132.273 44.558 C 122.365 50.451, 120.754 52.222, 122.086 55.750 C 123.329 59.041, 127.174 58.625, 134.904 54.364 C 147.639 47.345, 150.171 44.314, 146.429 40.571 C 144.001 38.144, 142.203 38.651, 132.273 44.558 M 65.324 50.380 C 50.806 55.126, 42 67.773, 42 83.878 C 42 90.567, 42.433 92.547, 45.036 97.757 C 48.636 104.959, 54.165 110.247, 61.880 113.865 C 66.580 116.068, 68.892 116.498, 76 116.490 C 83.394 116.481, 85.253 116.099, 90.290 113.558 C 97.207 110.068, 103.253 103.802, 106.562 96.695 C 108.525 92.478, 108.982 89.883, 108.990 82.910 C 108.999 75.338, 108.641 73.601, 105.973 68.262 C 102.455 61.222, 95.823 54.699, 89.176 51.741 C 83.320 49.136, 71.240 48.447, 65.324 50.380 M 130.557 80.223 C 128.553 83.083, 128.592 83.592, 131 86 C 132.732 87.732, 134.333 88, 142.935 88 C 155.148 88, 158 87.096, 158 83.225 C 158 78.512, 156.615 78, 143.857 78 C 132.855 78, 132.015 78.140, 130.557 80.223 M 0.450 122 C 0.450 140.975, 0.584 148.738, 0.748 139.250 C 0.913 129.762, 0.913 114.237, 0.748 104.750 C 0.584 95.262, 0.450 103.025, 0.450 122 M 18.560 110.432 C 3.707 118.174, 0.232 122.140, 5.357 125.499 C 7.685 127.024, 8.103 126.990, 12.169 124.947 C 20.431 120.794, 28.016 115.839, 29.040 113.924 C 30.222 111.717, 28.971 108.587, 26.535 107.652 C 25.699 107.331, 22.110 108.582, 18.560 110.432 M 123.697 108.149 C 122.699 108.708, 122 110.314, 122 112.048 C 122 115.255, 124.970 117.559, 137.676 124.211 C 143.749 127.391, 143.886 127.414, 145.926 125.567 C 150.123 121.769, 148.036 118.962, 136 112.221 C 128.217 107.861, 125.700 107.028, 123.697 108.149 M 169.655 118.829 C 168.190 120.448, 168 124.213, 168 151.629 C 168 174.384, 167.682 182.918, 166.800 183.800 C 165.997 184.603, 161.541 185, 153.335 185 C 139.055 185, 139 184.962, 139 175.137 C 139 166.660, 134.864 163.178, 130.510 167.989 C 128.999 169.658, 128.798 171.146, 129.260 177.239 C 129.919 185.917, 131.185 189.010, 135.363 192.145 C 138.196 194.272, 139.808 194.548, 152 195.002 C 159.425 195.278, 166.063 195.868, 166.750 196.311 C 167.647 196.890, 168 200.883, 168 210.458 L 168 223.799 172.571 224.162 C 175.084 224.362, 177.334 224.332, 177.571 224.096 C 177.807 223.860, 178 211.232, 178 196.033 C 178 175.874, 178.325 168.075, 179.200 167.200 C 180.034 166.366, 185.306 166, 196.477 166 C 217.710 166, 217 166.489, 217 151.878 C 217 140.129, 216.137 137, 212.899 137 C 207.992 137, 207 138.597, 207 146.500 C 207 152.822, 206.712 154.084, 205.066 154.965 C 202.245 156.474, 181.771 156.300, 179.766 154.750 C 178.419 153.708, 178.097 150.742, 177.825 136.903 C 177.488 119.677, 176.843 117, 173.033 117 C 172.085 117, 170.565 117.823, 169.655 118.829 M 39.615 135.750 C 31.900 147.737, 30.651 151.251, 33.200 153.800 C 35.268 155.868, 38.754 155.156, 40.796 152.250 C 44.535 146.928, 51 134.801, 51 133.110 C 51 130.723, 49.021 129, 46.280 129 C 44.511 129, 42.927 130.605, 39.615 135.750 M 100.850 131.430 C 99.894 133.529, 100.325 134.928, 104.010 141.680 C 110.477 153.533, 111.811 155.161, 114.757 154.806 C 116.155 154.638, 117.784 153.724, 118.378 152.775 C 119.780 150.536, 118.638 147.524, 112.429 137.087 C 108.218 130.008, 107.266 129, 104.788 129 C 102.761 129, 101.643 129.690, 100.850 131.430 M 72.200 138.200 C 71.403 138.997, 71 143.340, 71 151.129 C 71 160.458, 71.322 163.179, 72.571 164.429 C 74.414 166.271, 75.438 166.371, 78.066 164.965 C 79.817 164.028, 80 162.767, 80 151.665 C 80 138.789, 79.451 137, 75.500 137 C 74.345 137, 72.860 137.540, 72.200 138.200 M 0 200 L 0 234 80.700 234 C 143.467 234, 161.133 233.733, 160.200 232.800 C 159.388 231.988, 159 227.340, 159 218.428 L 159 205.257 148.250 204.797 C 139.956 204.443, 136.574 203.861, 133.447 202.249 C 127.925 199.404, 123.363 194.518, 121.381 189.327 C 120.472 186.947, 119.180 185, 118.509 185 C 106.864 185, 78.296 189.371, 76.192 191.475 C 75.934 191.733, 77.957 193.954, 80.689 196.411 C 86.882 201.978, 90.986 209.208, 89.396 211.747 C 87.705 214.448, 83.404 214.520, 81.293 211.884 C 69.958 197.725, 49.885 184.378, 23.500 173.456 C 15.542 170.162, 2.845 166, 0.753 166 C 0.339 166, 0 181.300, 0 200 M 203.250 175.365 L 188 176.230 188.065 181.365 L 188.130 186.500 203.102 193.879 C 211.337 197.938, 218.296 201.037, 218.567 200.766 C 218.838 200.495, 218.934 194.474, 218.780 187.387 L 218.500 174.500 203.250 175.365 M 188 213.190 C 188 226.383, 187.698 229.986, 186.443 231.777 L 184.887 234 201.943 234 L 219 234 218.994 223.750 L 218.987 213.500 215.744 211.630 C 213.960 210.602, 206.988 206.850, 200.250 203.292 L 188 196.824 188 213.190" stroke="none" fill="#f9f9f9" fill-rule="evenodd"/></svg>