<svg xmlns="http://www.w3.org/2000/svg" width="175" height="195" viewBox="0 0 175 195" version="1.1"><path d="M 107.500 11.567 C 105.850 12.422, 103.150 14.389, 101.500 15.938 C 99.850 17.487, 97.971 18.558, 97.324 18.319 C 94.622 17.317, 88.064 20.163, 84.980 23.676 C 82.097 26.959, 81.824 27.812, 82.245 32.195 C 82.562 35.493, 83.485 37.892, 85.106 39.628 C 89.599 44.437, 91.899 45, 107.046 45 C 123.599 45, 125.412 44.333, 129.554 36.723 C 131.781 32.631, 132.156 30.894, 131.783 26.392 C 130.782 14.322, 117.652 6.306, 107.500 11.567 M 18 23.291 L 0.500 34.568 0.244 108.423 C 0.057 162.153, 0.295 182.650, 1.116 183.640 C 2.052 184.767, 16.838 185, 87.551 185 C 163.769 185, 173.025 184.833, 174.429 183.429 C 175.833 182.025, 175.979 173.952, 175.801 107.679 C 175.692 66.880, 175.448 36.747, 175.258 40.716 L 174.914 47.933 172.049 47.360 C 168.592 46.668, 167 48.940, 167 54.565 L 167 58.262 163.250 57.642 C 161.188 57.301, 157.838 57.017, 155.807 57.011 C 152.196 57, 152.108 56.909, 151.807 52.852 C 151.252 45.353, 144.833 44.830, 144.197 52.232 L 143.894 55.761 137.197 55.302 C 128.315 54.693, 128.185 54.631, 127.818 50.807 C 127.536 47.870, 127.165 47.500, 124.500 47.500 C 121.846 47.500, 121.464 47.875, 121.187 50.750 L 120.873 54 115.003 54 C 109.400 54, 109.118 53.880, 108.816 51.351 C 108.182 46.042, 101.957 45.636, 101.180 50.852 C 100.901 52.734, 100.215 53, 95.650 53 C 90.778 53, 90.365 52.805, 89.306 50 C 87.608 45.500, 82 46.422, 82 51.200 C 82 52.630, 81.187 53, 78.038 53 L 74.075 53 73.788 43.781 L 73.500 34.561 56 23.288 C 46.375 17.088, 37.825 12.015, 37 12.015 C 36.175 12.015, 27.625 17.089, 18 23.291 M 156 16.073 C 156 19.413, 156.315 20.086, 157.748 19.810 C 160.373 19.305, 160.485 12, 157.868 12 C 156.350 12, 156 12.763, 156 16.073 M 146.342 16.551 C 145.998 17.447, 146.727 19.145, 148.067 20.571 C 150.152 22.790, 150.543 22.886, 151.920 21.508 C 153.297 20.131, 153.181 19.723, 150.770 17.488 C 147.631 14.577, 147.140 14.473, 146.342 16.551 M 164.655 17.838 C 162.605 19.978, 162.274 20.874, 163.195 21.795 C 164.116 22.716, 164.909 22.495, 166.693 20.819 C 167.962 19.627, 169 18.081, 169 17.385 C 169 14.924, 167.275 15.104, 164.655 17.838 M 108.130 20.544 C 106.467 21.943, 104.811 24.020, 104.450 25.159 C 103.868 26.992, 103.255 27.159, 99.125 26.611 C 93.583 25.876, 90 27.796, 90 31.500 C 90 35.972, 93.204 37, 107.150 37 C 119.684 37, 119.883 36.965, 121.927 34.365 C 125.087 30.349, 124.721 24.567, 121.077 20.923 C 117.265 17.111, 112.380 16.968, 108.130 20.544 M 31 24.100 C 28.525 25.720, 22.337 29.779, 17.250 33.121 L 8 39.197 8 49.599 L 8 60 13 60 L 18 60 18 49.700 C 18 43.022, 18.422 38.978, 19.200 38.200 C 20.466 36.934, 51.312 36.415, 54.418 37.607 C 55.731 38.111, 56 40.130, 56 49.490 C 56 61.930, 56.012 61.951, 63.282 61.986 L 66.063 62 65.782 50.293 L 65.500 38.587 52 29.863 C 44.575 25.065, 37.825 21.143, 37 21.147 C 36.175 21.152, 33.475 22.481, 31 24.100 M 156 21.694 C 150.008 23.836, 151.224 33, 157.500 33 C 162.792 33, 165.116 25.596, 160.777 22.557 C 158.403 20.893, 158.295 20.874, 156 21.694 M 142 27 C 142 28.667, 142.667 29, 146 29 C 149.333 29, 150 28.667, 150 27 C 150 25.333, 149.333 25, 146 25 C 142.667 25, 142 25.333, 142 27 M 165.667 25.667 C 163.781 27.552, 165.229 29, 169 29 C 172.333 29, 173 28.667, 173 27 C 173 25.400, 172.333 25, 169.667 25 C 167.833 25, 166.033 25.300, 165.667 25.667 M 147.988 34.513 C 146.151 36.468, 145.893 37.293, 146.827 38.227 C 147.761 39.161, 148.607 38.848, 150.637 36.818 C 152.072 35.382, 152.940 33.711, 152.564 33.104 C 151.542 31.450, 150.591 31.743, 147.988 34.513 M 162.436 33.104 C 161.546 34.543, 166.457 39.454, 167.896 38.564 C 169.472 37.590, 169.277 36.674, 166.961 34.189 C 164.693 31.754, 163.454 31.457, 162.436 33.104 M 0.475 109 C 0.475 149.975, 0.599 166.738, 0.750 146.250 C 0.901 125.762, 0.901 92.238, 0.750 71.750 C 0.599 51.262, 0.475 68.025, 0.475 109 M 156 39 C 156 42.214, 156.361 43, 157.836 43 C 159.285 43, 159.705 42.157, 159.829 39 C 159.961 35.619, 159.677 35, 157.993 35 C 156.335 35, 156 35.671, 156 39 M 25 52.358 L 25 59.717 36.250 60.255 C 42.438 60.552, 47.837 60.589, 48.250 60.338 C 48.663 60.087, 49 56.534, 49 52.441 L 49 45 37 45 L 25 45 25 52.358 M 74.339 61.260 C 73.546 62.544, 74.341 63.019, 78.376 63.674 C 81.211 64.134, 82 63.930, 82 62.740 C 82 61.053, 75.270 59.753, 74.339 61.260 M 90 62.500 C 90 63.325, 89.888 64.305, 89.750 64.678 C 89.496 65.368, 91.908 66.161, 97.750 67.311 C 100.916 67.933, 101 67.860, 101 64.475 L 101 61 95.500 61 C 91.278 61, 90 61.348, 90 62.500 M 109 65.312 L 109 69.858 114.404 71.429 C 117.376 72.293, 120.076 73, 120.404 73 C 120.732 73, 121 70.525, 121 67.500 L 121 62 117.250 61.986 C 115.188 61.979, 112.487 61.701, 111.250 61.370 C 109.158 60.809, 109 61.086, 109 65.312 M 128.698 62.636 C 128.314 63.019, 128 66.125, 128 69.537 L 128 75.741 135.407 78.370 C 139.481 79.817, 143.081 81, 143.407 81 C 143.733 81, 144 76.950, 144 72 L 144 63 138.082 63 C 134.827 63, 131.541 62.761, 130.780 62.469 C 130.018 62.177, 129.082 62.252, 128.698 62.636 M 152 74.305 L 152 84.732 159.009 87.866 C 162.864 89.590, 166.239 91, 166.509 91 C 166.779 91, 167 85.411, 167 78.579 L 167 66.159 164.250 65.644 C 162.738 65.360, 159.363 64.847, 156.750 64.503 L 152 63.877 152 74.305 M 12 68.445 C 12 68.689, 14.498 73.609, 17.551 79.378 C 30.425 103.702, 36.783 129.363, 38.583 164.269 L 39.293 178.039 60.396 177.769 L 81.500 177.500 81.175 171.500 C 79.495 140.530, 62.438 104.590, 37.394 79.250 L 26.276 68 19.138 68 C 15.212 68, 12 68.200, 12 68.445 M 44.588 75.146 C 70.250 101.774, 87.193 139.079, 89.260 173.500 L 89.500 177.500 108.870 177.794 L 128.240 178.089 127.566 173.294 C 123.419 143.831, 105.231 116.422, 64.993 79 L 54.485 69.228 45.993 68.510 L 37.500 67.791 44.588 75.146 M 82.086 84.173 C 114.591 116.184, 129.880 142.003, 135.452 174.290 L 136.105 178.079 151.553 177.948 L 167 177.816 166.978 166.658 C 166.952 153.530, 165.932 150.618, 157.292 139.013 C 149.945 129.144, 122.277 101.647, 103.786 85.837 L 89.073 73.256 80.786 72.068 C 76.229 71.415, 71.384 70.648, 70.019 70.363 C 68.239 69.992, 71.648 73.893, 82.086 84.173 M 108 78.333 C 108 78.516, 113.737 83.651, 120.750 89.745 C 136.077 103.064, 154.677 121.936, 161.804 131.399 L 167 138.298 167 119.137 L 167 99.975 161.250 97.406 C 149.936 92.352, 131.310 85.177, 120.268 81.619 C 108.987 77.984, 108 77.720, 108 78.333 M 8 128.324 L 8 178.093 19.500 177.934 L 31 177.775 31 171.532 C 31 143.428, 24.865 112.743, 14.954 91.283 C 7.501 75.144, 8 72.489, 8 128.324" stroke="none" fill="#090909" fill-rule="evenodd"/><path d="M 0 17.448 L 0 34.897 17.750 23.455 C 27.512 17.162, 36.175 12.014, 37 12.014 C 37.825 12.014, 46.375 17.088, 56 23.288 L 73.500 34.561 73.788 43.781 L 74.075 53 78.038 53 C 81.187 53, 82 52.630, 82 51.200 C 82 46.422, 87.608 45.500, 89.306 50 C 90.365 52.805, 90.778 53, 95.650 53 C 100.215 53, 100.901 52.734, 101.180 50.852 C 101.957 45.636, 108.182 46.042, 108.816 51.351 C 109.118 53.880, 109.400 54, 115.003 54 L 120.873 54 121.187 50.750 C 121.464 47.875, 121.846 47.500, 124.500 47.500 C 127.165 47.500, 127.536 47.870, 127.818 50.807 C 128.185 54.631, 128.315 54.693, 137.197 55.302 L 143.894 55.761 144.197 52.232 C 144.833 44.830, 151.252 45.353, 151.807 52.852 C 152.108 56.909, 152.196 57, 155.807 57.011 C 157.838 57.017, 161.188 57.301, 163.250 57.642 L 167 58.262 167 54.565 C 167 49.010, 168.601 46.670, 171.944 47.339 L 174.703 47.891 175.351 37.290 C 175.708 31.459, 176 20.684, 176 13.344 L 176 0 88 0 L 0 0 0 17.448 M 0.411 18 C 0.411 27.625, 0.561 31.562, 0.745 26.750 C 0.928 21.937, 0.928 14.062, 0.745 9.250 C 0.561 4.437, 0.411 8.375, 0.411 18 M 107.500 11.567 C 105.850 12.422, 103.150 14.389, 101.500 15.938 C 99.850 17.487, 97.971 18.558, 97.324 18.319 C 94.622 17.317, 88.064 20.163, 84.980 23.676 C 82.097 26.959, 81.824 27.812, 82.245 32.195 C 82.562 35.493, 83.485 37.892, 85.106 39.628 C 89.599 44.437, 91.899 45, 107.046 45 C 123.599 45, 125.412 44.333, 129.554 36.723 C 131.781 32.631, 132.156 30.894, 131.783 26.392 C 130.782 14.322, 117.652 6.306, 107.500 11.567 M 156 16.073 C 156 19.413, 156.315 20.086, 157.748 19.810 C 160.373 19.305, 160.485 12, 157.868 12 C 156.350 12, 156 12.763, 156 16.073 M 146.342 16.551 C 145.998 17.447, 146.727 19.145, 148.067 20.571 C 150.152 22.790, 150.543 22.886, 151.920 21.508 C 153.297 20.131, 153.181 19.723, 150.770 17.488 C 147.631 14.577, 147.140 14.473, 146.342 16.551 M 164.655 17.838 C 162.605 19.978, 162.274 20.874, 163.195 21.795 C 164.116 22.716, 164.909 22.495, 166.693 20.819 C 167.962 19.627, 169 18.081, 169 17.385 C 169 14.924, 167.275 15.104, 164.655 17.838 M 108.130 20.544 C 106.467 21.943, 104.811 24.020, 104.450 25.159 C 103.868 26.992, 103.255 27.159, 99.125 26.611 C 93.583 25.876, 90 27.796, 90 31.500 C 90 35.972, 93.204 37, 107.150 37 C 119.684 37, 119.883 36.965, 121.927 34.365 C 125.087 30.349, 124.721 24.567, 121.077 20.923 C 117.265 17.111, 112.380 16.968, 108.130 20.544 M 31 24.100 C 28.525 25.720, 22.337 29.779, 17.250 33.121 L 8 39.197 8 49.599 L 8 60 13 60 L 18 60 18 49.700 C 18 43.022, 18.422 38.978, 19.200 38.200 C 20.466 36.934, 51.312 36.415, 54.418 37.607 C 55.731 38.111, 56 40.130, 56 49.490 C 56 61.930, 56.012 61.951, 63.282 61.986 L 66.063 62 65.782 50.293 L 65.500 38.587 52 29.863 C 44.575 25.065, 37.825 21.143, 37 21.147 C 36.175 21.152, 33.475 22.481, 31 24.100 M 156 21.694 C 150.008 23.836, 151.224 33, 157.500 33 C 162.792 33, 165.116 25.596, 160.777 22.557 C 158.403 20.893, 158.295 20.874, 156 21.694 M 142 27 C 142 28.667, 142.667 29, 146 29 C 149.333 29, 150 28.667, 150 27 C 150 25.333, 149.333 25, 146 25 C 142.667 25, 142 25.333, 142 27 M 165.667 25.667 C 163.781 27.552, 165.229 29, 169 29 C 172.333 29, 173 28.667, 173 27 C 173 25.400, 172.333 25, 169.667 25 C 167.833 25, 166.033 25.300, 165.667 25.667 M 147.988 34.513 C 146.151 36.468, 145.893 37.293, 146.827 38.227 C 147.761 39.161, 148.607 38.848, 150.637 36.818 C 152.072 35.382, 152.940 33.711, 152.564 33.104 C 151.542 31.450, 150.591 31.743, 147.988 34.513 M 162.436 33.104 C 161.546 34.543, 166.457 39.454, 167.896 38.564 C 169.472 37.590, 169.277 36.674, 166.961 34.189 C 164.693 31.754, 163.454 31.457, 162.436 33.104 M 156 39 C 156 42.214, 156.361 43, 157.836 43 C 159.285 43, 159.705 42.157, 159.829 39 C 159.961 35.619, 159.677 35, 157.993 35 C 156.335 35, 156 35.671, 156 39 M 25 52.358 L 25 59.717 36.250 60.255 C 42.438 60.552, 47.837 60.589, 48.250 60.338 C 48.663 60.087, 49 56.534, 49 52.441 L 49 45 37 45 L 25 45 25 52.358 M 74.339 61.260 C 73.546 62.544, 74.341 63.019, 78.376 63.674 C 81.211 64.134, 82 63.930, 82 62.740 C 82 61.053, 75.270 59.753, 74.339 61.260 M 90 62.500 C 90 63.325, 89.888 64.305, 89.750 64.678 C 89.496 65.368, 91.908 66.161, 97.750 67.311 C 100.916 67.933, 101 67.860, 101 64.475 L 101 61 95.500 61 C 91.278 61, 90 61.348, 90 62.500 M 109 65.312 L 109 69.858 114.404 71.429 C 117.376 72.293, 120.076 73, 120.404 73 C 120.732 73, 121 70.525, 121 67.500 L 121 62 117.250 61.986 C 115.188 61.979, 112.487 61.701, 111.250 61.370 C 109.158 60.809, 109 61.086, 109 65.312 M 128.698 62.636 C 128.314 63.019, 128 66.125, 128 69.537 L 128 75.741 135.407 78.370 C 139.481 79.817, 143.081 81, 143.407 81 C 143.733 81, 144 76.950, 144 72 L 144 63 138.082 63 C 134.827 63, 131.541 62.761, 130.780 62.469 C 130.018 62.177, 129.082 62.252, 128.698 62.636 M 152 74.305 L 152 84.732 159.009 87.866 C 162.864 89.590, 166.239 91, 166.509 91 C 166.779 91, 167 85.411, 167 78.579 L 167 66.159 164.250 65.644 C 162.738 65.360, 159.363 64.847, 156.750 64.503 L 152 63.877 152 74.305 M 12 68.445 C 12 68.689, 14.498 73.609, 17.551 79.378 C 30.425 103.702, 36.783 129.363, 38.583 164.269 L 39.293 178.039 60.396 177.769 L 81.500 177.500 81.175 171.500 C 79.495 140.530, 62.438 104.590, 37.394 79.250 L 26.276 68 19.138 68 C 15.212 68, 12 68.200, 12 68.445 M 44.588 75.146 C 70.250 101.774, 87.193 139.079, 89.260 173.500 L 89.500 177.500 108.870 177.794 L 128.240 178.089 127.566 173.294 C 123.419 143.831, 105.231 116.422, 64.993 79 L 54.485 69.228 45.993 68.510 L 37.500 67.791 44.588 75.146 M 82.086 84.173 C 114.591 116.184, 129.880 142.003, 135.452 174.290 L 136.105 178.079 151.553 177.948 L 167 177.816 166.978 166.658 C 166.952 153.530, 165.932 150.618, 157.292 139.013 C 149.945 129.144, 122.277 101.647, 103.786 85.837 L 89.073 73.256 80.786 72.068 C 76.229 71.415, 71.384 70.648, 70.019 70.363 C 68.239 69.992, 71.648 73.893, 82.086 84.173 M 108 78.333 C 108 78.516, 113.737 83.651, 120.750 89.745 C 136.077 103.064, 154.677 121.936, 161.804 131.399 L 167 138.298 167 119.137 L 167 99.975 161.250 97.406 C 149.936 92.352, 131.310 85.177, 120.268 81.619 C 108.987 77.984, 108 77.720, 108 78.333 M 8 128.324 L 8 178.093 19.500 177.934 L 31 177.775 31 171.532 C 31 143.428, 24.865 112.743, 14.954 91.283 C 7.501 75.144, 8 72.489, 8 128.324 M 0 188.805 L 0 195.011 87.750 194.755 L 175.500 194.500 175.801 188.128 C 176.078 182.250, 175.976 181.881, 174.479 183.378 C 173.008 184.849, 164.910 185, 87.629 185 C 22.673 185, 2.115 184.715, 1.200 183.800 C 0.267 182.867, 0 183.979, 0 188.805 M 0.320 189 C 0.320 192.575, 0.502 194.037, 0.723 192.250 C 0.945 190.463, 0.945 187.537, 0.723 185.750 C 0.502 183.963, 0.320 185.425, 0.320 189" stroke="none" fill="#f6f6f6" fill-rule="evenodd"/></svg>