<svg xmlns="http://www.w3.org/2000/svg" width="261" height="261" viewBox="0 0 261 261" version="1.1"><path d="M 126.517 25.683 L 122.839 30.500 87.712 31 L 52.584 31.500 49.542 35.665 L 46.500 39.829 37.039 40.165 L 27.578 40.500 14.712 58.828 C 7.282 69.413, 2.077 77.757, 2.392 78.578 C 2.697 79.375, 4.271 80, 5.969 80 L 9 80 9 107.437 L 9 134.873 5.750 135.187 L 2.500 135.500 2.217 146.750 L 1.934 158 6.967 158 L 12 158 12 183 L 12 208 6 208 L 0 208 0 214 L 0 220 25.500 220 L 51 220 51 223.393 C 51 227.293, 52.150 228, 58.500 228 C 64.850 228, 66 227.293, 66 223.393 L 66 220 73.809 220 L 81.619 220 86.757 224.953 C 96.790 234.623, 106.685 238.001, 127 238.691 C 149.636 239.459, 163.271 235.532, 174.355 225.049 L 179.693 220 187.347 220 L 195 220 195 223.481 C 195 227.552, 196.678 228.312, 204.566 227.812 C 209.477 227.501, 209.501 227.483, 209.809 223.767 L 210.119 220.034 235.809 219.767 L 261.500 219.500 261.793 213.500 L 262.086 207.500 255.543 207.835 L 249 208.171 249 183.085 L 249 158 254.033 158 L 259.066 158 258.783 146.750 L 258.500 135.500 255.250 135.187 L 252 134.873 252 107.437 L 252 80 255.031 80 C 256.775 80, 258.302 79.376, 258.627 78.531 C 258.966 77.646, 254.071 69.781, 246.335 58.781 L 233.480 40.500 223.974 40.217 L 214.468 39.933 211.642 35.467 L 208.816 31 173.490 31 L 138.163 31 136.114 27.684 C 134.987 25.861, 133.194 23.580, 132.129 22.617 C 130.259 20.925, 130.070 21.028, 126.517 25.683 M 111.750 52.845 L 93 78.497 93 106.748 L 93 135 101 135 L 109 135 109.006 116.250 C 109.009 105.938, 109.493 95.765, 110.081 93.645 C 110.670 91.525, 112.974 87.813, 115.202 85.397 C 125.354 74.383, 142.718 76.765, 149.353 90.081 C 151.948 95.288, 152 95.784, 152 115.196 L 152 135 160 135 L 168 135 168 106.682 L 168 78.363 149.540 53.055 C 139.387 39.136, 130.950 27.622, 130.790 27.470 C 130.631 27.317, 122.063 38.736, 111.750 52.845 M 53.655 36.829 C 52.745 37.835, 52 38.960, 52 39.329 C 52 39.698, 66.330 40, 83.845 40 C 113.426 40, 115.808 39.870, 117.345 38.171 C 118.255 37.165, 119 36.040, 119 35.671 C 119 35.302, 104.670 35, 87.155 35 C 57.574 35, 55.192 35.130, 53.655 36.829 M 142 35.845 C 142 36.310, 142.823 37.435, 143.829 38.345 C 145.451 39.813, 149.300 40, 177.875 40 L 210.093 40 208.297 37.531 L 206.500 35.063 174.250 35.031 C 156.512 35.014, 142 35.380, 142 35.845 M 28.532 46.250 L 26.951 48.500 33.091 48.801 C 37.781 49.030, 39.675 48.699, 41.115 47.396 C 44.184 44.619, 43.354 44, 36.557 44 C 31.010 44, 29.893 44.313, 28.532 46.250 M 123.400 49.400 C 120.677 52.123, 120 53.589, 120 56.765 C 120 61.632, 122.765 65.437, 127.415 66.972 C 134.495 69.308, 141.019 64.355, 140.978 56.673 C 140.925 46.818, 130.355 42.445, 123.400 49.400 M 21.683 56.250 C 20.353 58.038, 18.478 60.737, 17.517 62.250 L 15.770 65 22.358 65 L 28.947 65 32.473 59.763 C 34.413 56.883, 36 54.183, 36 53.763 C 36 53.344, 33.323 53, 30.051 53 C 24.502 53, 23.939 53.219, 21.683 56.250 M 225 53.741 C 225 54.149, 226.630 56.849, 228.622 59.741 L 232.244 65 239.180 65 L 246.117 65 241.500 59 L 236.883 53 230.942 53 C 227.674 53, 225 53.334, 225 53.741 M 18.274 69.797 C 13.213 70.039, 11.762 70.501, 10.524 72.270 C 8.107 75.720, 8.622 76.114, 15.148 75.798 C 20.507 75.538, 21.556 75.150, 23.331 72.766 C 24.450 71.263, 25.171 69.913, 24.933 69.766 C 24.695 69.620, 21.698 69.634, 18.274 69.797 M 62 69.762 C 30.713 70.023, 30.488 70.040, 28.772 72.262 C 27.822 73.493, 27.034 74.838, 27.022 75.250 C 27.010 75.662, 41.144 76, 58.432 76 L 89.864 76 92.041 72.942 C 93.238 71.261, 94.057 69.798, 93.859 69.692 C 93.662 69.587, 79.325 69.618, 62 69.762 M 169.158 73 L 171.376 76 202.688 76 C 219.910 76, 234 75.759, 234 75.465 C 234 75.170, 233.273 73.820, 232.385 72.465 L 230.770 70 198.855 70 L 166.940 70 169.158 73 M 13 107.500 L 13 135 21.500 135 L 30 135 30 107.500 L 30 80 21.500 80 L 13 80 13 107.500 M 34 107.500 L 34 135 38.500 135 L 43 135 43 118.316 C 43 103.358, 43.219 101.178, 45.121 97.250 C 51.686 83.689, 71.193 83.665, 78.106 97.210 C 79.745 100.421, 80 103.212, 80 117.960 L 80 135 84.500 135 L 89 135 89 107.500 L 89 80 61.500 80 L 34 80 34 107.500 M 172 107.500 L 172 135 176.437 135 L 180.874 135 181.187 117.173 C 181.497 99.533, 181.530 99.301, 184.316 95.094 C 191.371 84.444, 207.629 84.444, 214.684 95.094 C 217.470 99.301, 217.503 99.533, 217.813 117.173 L 218.126 135 222.563 135 L 227 135 227 107.500 L 227 80 199.500 80 L 172 80 172 107.500 M 231 107.500 L 231 135 239.500 135 L 248 135 248 107.500 L 248 80 239.500 80 L 231 80 231 107.500 M 121.358 85.501 C 117.095 88.057, 112.256 95.656, 113.867 97.267 C 114.324 97.724, 117.804 97.964, 121.599 97.799 L 128.500 97.500 128.651 90.250 C 128.826 81.848, 128.168 81.419, 121.358 85.501 M 133 90.500 L 133 98 140.567 98 C 147.945 98, 148.118 97.944, 147.470 95.750 C 146.186 91.403, 142.143 86.296, 138.688 84.656 C 133.221 82.062, 133 82.290, 133 90.500 M 55.005 92.752 C 52.902 93.804, 50.583 96.192, 49.180 98.750 L 46.850 103 53.425 103 L 60 103 60 97 C 60 93.700, 59.663 91.001, 59.250 91.002 C 58.837 91.002, 56.927 91.790, 55.005 92.752 M 64 97.025 L 64 103 70 103 C 73.300 103, 76 102.753, 76 102.450 C 76 101.185, 73.068 96.372, 71.351 94.817 C 70.331 93.894, 68.260 92.669, 66.748 92.094 L 64 91.050 64 97.025 M 193.500 92.403 C 189.907 93.988, 187.510 96.530, 186.094 100.252 L 185.050 103 191.025 103 L 197 103 197 97 C 197 93.700, 196.887 91.018, 196.750 91.039 C 196.613 91.061, 195.150 91.674, 193.500 92.403 M 202 97.025 L 202 103 207.948 103 L 213.896 103 212.893 100.123 C 211.686 96.661, 208.490 93.508, 204.750 92.091 L 202 91.050 202 97.025 M 113.205 109.144 L 113.500 116.374 121 116.437 L 128.500 116.500 128.500 109.500 L 128.500 102.500 120.705 102.207 L 112.911 101.914 113.205 109.144 M 133 109.250 L 133.001 116.500 140.250 116.464 L 147.500 116.428 147.794 109.214 L 148.088 102 140.544 102 L 133 102 133 109.250 M 47.710 107.623 C 47.320 108.014, 47 110.733, 47 113.667 L 47 119 53.550 119 L 60.100 119 59.800 113.250 L 59.500 107.500 53.960 107.206 C 50.913 107.045, 48.101 107.232, 47.710 107.623 M 64 113 L 64 119 70 119 L 76 119 76 113 L 76 107 70 107 L 64 107 64 113 M 185.667 107.667 C 185.300 108.033, 185 110.733, 185 113.667 L 185 119 191 119 L 197 119 197 113 L 197 107 191.667 107 C 188.733 107, 186.033 107.300, 185.667 107.667 M 202 112.950 L 202 119 208.050 119 L 214.100 119 213.800 113.250 L 213.500 107.500 207.750 107.200 L 202 106.900 202 112.950 M 113 127.958 L 113 135 120.926 135 L 128.853 135 128.676 128.250 L 128.500 121.500 120.750 121.208 L 113 120.916 113 127.958 M 133 128 L 133 135 140.500 135 L 148 135 148 128 L 148 121 140.500 121 L 133 121 133 128 M 47.710 123.623 C 47.320 124.014, 47 126.733, 47 129.667 L 47 135 53.550 135 L 60.100 135 59.800 129.250 L 59.500 123.500 53.960 123.206 C 50.913 123.045, 48.101 123.232, 47.710 123.623 M 64 129 L 64 135 70 135 L 76 135 76 129 L 76 123 70 123 L 64 123 64 129 M 185 129 L 185 135 191 135 L 197 135 197 129 L 197 123 191 123 L 185 123 185 129 M 202 129 L 202 135 208 135 L 214 135 214 129 L 214 123 208 123 L 202 123 202 129 M 52.084 156.583 C 47.910 160.095, 41.330 173.820, 39.317 183.216 C 37.302 192.616, 38.288 197.099, 43.682 203.070 C 51.326 211.530, 64.042 211.774, 72.518 203.623 C 78.541 197.830, 79.752 192.927, 77.609 183.007 C 75.596 173.684, 70.451 162.681, 65.799 157.749 C 61.362 153.043, 56.756 152.652, 52.084 156.583 M 196.666 156.434 C 186.830 165.549, 179.780 189.910, 184.405 198.800 C 188.711 207.076, 199.022 211.298, 208.325 208.594 C 216.754 206.144, 222.711 198.786, 222.924 190.564 C 223.151 181.815, 216.358 164.563, 210.093 157.977 C 205.455 153.102, 200.834 152.571, 196.666 156.434 M 16.450 159.271 C 16.181 159.970, 16.083 171.107, 16.231 184.021 L 16.500 207.500 20.250 207.810 L 24 208.121 24 183.060 L 24 158 20.469 158 C 18.526 158, 16.718 158.572, 16.450 159.271 M 28 183.012 L 28 208.024 34.500 207.883 C 38.075 207.806, 41 207.545, 41 207.304 C 41 207.064, 39.937 205.434, 38.638 203.683 C 35.768 199.815, 34 194.793, 34 190.511 C 34 185.151, 37.839 171.937, 41.475 164.779 L 44.919 158 36.460 158 L 28 158 28 183.012 M 72 158.596 C 72 158.923, 72.836 160.386, 73.857 161.846 C 76.856 166.132, 80.874 177.215, 82.116 184.625 C 83.449 192.583, 82.500 197.510, 78.498 203.407 C 77.124 205.432, 76 207.218, 76 207.377 C 76 207.535, 78.813 207.627, 82.250 207.582 L 88.500 207.500 88.767 182.750 L 89.035 158 80.517 158 C 75.833 158, 72 158.268, 72 158.596 M 93 182.842 L 93 207.685 97.499 207.592 L 101.999 207.500 101.999 182.750 L 102 158 97.500 158 L 93 158 93 182.842 M 106 182.750 L 106 207.500 109.250 207.404 L 112.500 207.309 112.767 182.654 L 113.035 158 109.517 158 L 106 158 106 182.750 M 117 162.500 L 117 167 130.500 167 L 144 167 144 162.500 L 144 158 130.500 158 L 117 158 117 162.500 M 148 182.500 C 148 205.138, 148.133 207.006, 149.750 207.077 C 150.713 207.119, 152.287 207.304, 153.250 207.488 C 154.879 207.800, 155 206.098, 155 182.912 L 155 158 151.500 158 L 148 158 148 182.500 M 159 182.392 L 159 206.783 161.280 207.355 C 162.534 207.670, 164.559 207.667, 165.780 207.347 C 167.997 206.768, 168 206.731, 168 182.383 L 168 158 163.500 158 L 159 158 159 182.392 M 172.450 159.271 C 172.181 159.970, 172.083 171.107, 172.231 184.021 L 172.500 207.500 178.750 207.543 C 182.188 207.567, 185 207.470, 185 207.328 C 185 207.186, 183.688 205.001, 182.085 202.474 C 175.798 192.560, 177.572 180.992, 188.788 158.750 C 188.996 158.338, 185.515 158, 181.052 158 C 175.412 158, 172.789 158.388, 172.450 159.271 M 219.937 165.375 C 227.680 180.788, 228.814 194.554, 223.018 202.777 C 221.358 205.132, 220 207.270, 220 207.529 C 220 207.788, 222.925 208, 226.500 208 L 233 208 233 183 L 233 158 224.616 158 L 216.232 158 219.937 165.375 M 237 183 L 237 208 241 208 L 245 208 245 183 L 245 158 241 158 L 237 158 237 183 M 117 188.950 L 117 207 120.500 207.111 C 122.425 207.172, 125.013 207.272, 126.250 207.332 L 128.500 207.442 128.500 189.471 L 128.500 171.500 122.750 171.200 L 117 170.900 117 188.950 M 133 189.306 L 133 207.613 138.250 207.497 L 143.500 207.382 143.773 189.191 L 144.045 171 138.523 171 L 133 171 133 189.306 M 0.320 214 C 0.320 217.575, 0.502 219.037, 0.723 217.250 C 0.945 215.463, 0.945 212.537, 0.723 210.750 C 0.502 208.963, 0.320 210.425, 0.320 214 M 95.620 213.453 C 96.582 215.958, 105.294 220.857, 112.033 222.680 C 121.824 225.330, 141.295 225.108, 150.560 222.242 C 157.442 220.113, 166 214.987, 166 212.994 C 166 212.354, 153.361 212, 130.531 212 C 99.927 212, 95.139 212.199, 95.620 213.453 M 55 218.500 C 55 222.976, 55.019 223, 58.500 223 C 61.981 223, 62 222.976, 62 218.500 C 62 214.024, 61.981 214, 58.500 214 C 55.019 214, 55 214.024, 55 218.500 M 199 218.391 C 199 222.664, 199.093 222.792, 202.500 223.190 L 206 223.598 206 218.799 L 206 214 202.500 214 C 199.031 214, 199 214.039, 199 218.391" stroke="none" fill="#0a0a0a" fill-rule="evenodd"/><path d="M 0 104 L 0 208 6 208 L 12 208 12 183 L 12 158 6.967 158 L 1.934 158 2.217 146.750 L 2.500 135.500 5.750 135.187 L 9 134.873 9 107.437 L 9 80 5.969 80 C 4.271 80, 2.697 79.375, 2.392 78.578 C 2.077 77.757, 7.282 69.413, 14.712 58.828 L 27.578 40.500 37.039 40.165 L 46.500 39.829 49.542 35.665 L 52.584 31.500 87.712 31 L 122.839 30.500 126.517 25.683 C 130.070 21.028, 130.259 20.925, 132.129 22.617 C 133.194 23.580, 134.987 25.861, 136.114 27.684 L 138.163 31 173.490 31 L 208.816 31 211.642 35.467 L 214.468 39.933 223.974 40.217 L 233.480 40.500 246.335 58.781 C 254.071 69.781, 258.966 77.646, 258.627 78.531 C 258.302 79.376, 256.775 80, 255.031 80 L 252 80 252 107.437 L 252 134.873 255.250 135.187 L 258.500 135.500 258.783 146.750 L 259.066 158 254.033 158 L 249 158 249 183.048 L 249 208.095 255.250 207.798 L 261.500 207.500 261.755 103.750 L 262.009 0 131.005 0 L 0 0 0 104 M 0.482 104.500 C 0.482 161.700, 0.602 184.953, 0.750 156.174 C 0.897 127.394, 0.897 80.594, 0.750 52.174 C 0.602 23.753, 0.482 47.300, 0.482 104.500 M 111.750 52.845 L 93 78.497 93 106.748 L 93 135 101 135 L 109 135 109.006 116.250 C 109.009 105.938, 109.493 95.765, 110.081 93.645 C 110.670 91.525, 112.974 87.813, 115.202 85.397 C 125.354 74.383, 142.718 76.765, 149.353 90.081 C 151.948 95.288, 152 95.784, 152 115.196 L 152 135 160 135 L 168 135 168 106.682 L 168 78.363 149.540 53.055 C 139.387 39.136, 130.950 27.622, 130.790 27.470 C 130.631 27.317, 122.063 38.736, 111.750 52.845 M 53.655 36.829 C 52.745 37.835, 52 38.960, 52 39.329 C 52 39.698, 66.330 40, 83.845 40 C 113.426 40, 115.808 39.870, 117.345 38.171 C 118.255 37.165, 119 36.040, 119 35.671 C 119 35.302, 104.670 35, 87.155 35 C 57.574 35, 55.192 35.130, 53.655 36.829 M 142 35.845 C 142 36.310, 142.823 37.435, 143.829 38.345 C 145.451 39.813, 149.300 40, 177.875 40 L 210.093 40 208.297 37.531 L 206.500 35.063 174.250 35.031 C 156.512 35.014, 142 35.380, 142 35.845 M 28.532 46.250 L 26.951 48.500 33.091 48.801 C 37.781 49.030, 39.675 48.699, 41.115 47.396 C 44.184 44.619, 43.354 44, 36.557 44 C 31.010 44, 29.893 44.313, 28.532 46.250 M 123.400 49.400 C 120.677 52.123, 120 53.589, 120 56.765 C 120 61.632, 122.765 65.437, 127.415 66.972 C 134.495 69.308, 141.019 64.355, 140.978 56.673 C 140.925 46.818, 130.355 42.445, 123.400 49.400 M 21.683 56.250 C 20.353 58.038, 18.478 60.737, 17.517 62.250 L 15.770 65 22.358 65 L 28.947 65 32.473 59.763 C 34.413 56.883, 36 54.183, 36 53.763 C 36 53.344, 33.323 53, 30.051 53 C 24.502 53, 23.939 53.219, 21.683 56.250 M 225 53.741 C 225 54.149, 226.630 56.849, 228.622 59.741 L 232.244 65 239.180 65 L 246.117 65 241.500 59 L 236.883 53 230.942 53 C 227.674 53, 225 53.334, 225 53.741 M 18.274 69.797 C 13.213 70.039, 11.762 70.501, 10.524 72.270 C 8.107 75.720, 8.622 76.114, 15.148 75.798 C 20.507 75.538, 21.556 75.150, 23.331 72.766 C 24.450 71.263, 25.171 69.913, 24.933 69.766 C 24.695 69.620, 21.698 69.634, 18.274 69.797 M 62 69.762 C 30.713 70.023, 30.488 70.040, 28.772 72.262 C 27.822 73.493, 27.034 74.838, 27.022 75.250 C 27.010 75.662, 41.144 76, 58.432 76 L 89.864 76 92.041 72.942 C 93.238 71.261, 94.057 69.798, 93.859 69.692 C 93.662 69.587, 79.325 69.618, 62 69.762 M 169.158 73 L 171.376 76 202.688 76 C 219.910 76, 234 75.759, 234 75.465 C 234 75.170, 233.273 73.820, 232.385 72.465 L 230.770 70 198.855 70 L 166.940 70 169.158 73 M 13 107.500 L 13 135 21.500 135 L 30 135 30 107.500 L 30 80 21.500 80 L 13 80 13 107.500 M 34 107.500 L 34 135 38.500 135 L 43 135 43 118.316 C 43 103.358, 43.219 101.178, 45.121 97.250 C 51.686 83.689, 71.193 83.665, 78.106 97.210 C 79.745 100.421, 80 103.212, 80 117.960 L 80 135 84.500 135 L 89 135 89 107.500 L 89 80 61.500 80 L 34 80 34 107.500 M 172 107.500 L 172 135 176.437 135 L 180.874 135 181.187 117.173 C 181.497 99.533, 181.530 99.301, 184.316 95.094 C 191.371 84.444, 207.629 84.444, 214.684 95.094 C 217.470 99.301, 217.503 99.533, 217.813 117.173 L 218.126 135 222.563 135 L 227 135 227 107.500 L 227 80 199.500 80 L 172 80 172 107.500 M 231 107.500 L 231 135 239.500 135 L 248 135 248 107.500 L 248 80 239.500 80 L 231 80 231 107.500 M 121.358 85.501 C 117.095 88.057, 112.256 95.656, 113.867 97.267 C 114.324 97.724, 117.804 97.964, 121.599 97.799 L 128.500 97.500 128.651 90.250 C 128.826 81.848, 128.168 81.419, 121.358 85.501 M 133 90.500 L 133 98 140.567 98 C 147.945 98, 148.118 97.944, 147.470 95.750 C 146.186 91.403, 142.143 86.296, 138.688 84.656 C 133.221 82.062, 133 82.290, 133 90.500 M 55.005 92.752 C 52.902 93.804, 50.583 96.192, 49.180 98.750 L 46.850 103 53.425 103 L 60 103 60 97 C 60 93.700, 59.663 91.001, 59.250 91.002 C 58.837 91.002, 56.927 91.790, 55.005 92.752 M 64 97.025 L 64 103 70 103 C 73.300 103, 76 102.753, 76 102.450 C 76 101.185, 73.068 96.372, 71.351 94.817 C 70.331 93.894, 68.260 92.669, 66.748 92.094 L 64 91.050 64 97.025 M 193.500 92.403 C 189.907 93.988, 187.510 96.530, 186.094 100.252 L 185.050 103 191.025 103 L 197 103 197 97 C 197 93.700, 196.887 91.018, 196.750 91.039 C 196.613 91.061, 195.150 91.674, 193.500 92.403 M 202 97.025 L 202 103 207.948 103 L 213.896 103 212.893 100.123 C 211.686 96.661, 208.490 93.508, 204.750 92.091 L 202 91.050 202 97.025 M 113.205 109.144 L 113.500 116.374 121 116.437 L 128.500 116.500 128.500 109.500 L 128.500 102.500 120.705 102.207 L 112.911 101.914 113.205 109.144 M 133 109.250 L 133.001 116.500 140.250 116.464 L 147.500 116.428 147.794 109.214 L 148.088 102 140.544 102 L 133 102 133 109.250 M 47.710 107.623 C 47.320 108.014, 47 110.733, 47 113.667 L 47 119 53.550 119 L 60.100 119 59.800 113.250 L 59.500 107.500 53.960 107.206 C 50.913 107.045, 48.101 107.232, 47.710 107.623 M 64 113 L 64 119 70 119 L 76 119 76 113 L 76 107 70 107 L 64 107 64 113 M 185.667 107.667 C 185.300 108.033, 185 110.733, 185 113.667 L 185 119 191 119 L 197 119 197 113 L 197 107 191.667 107 C 188.733 107, 186.033 107.300, 185.667 107.667 M 202 112.950 L 202 119 208.050 119 L 214.100 119 213.800 113.250 L 213.500 107.500 207.750 107.200 L 202 106.900 202 112.950 M 113 127.958 L 113 135 120.926 135 L 128.853 135 128.676 128.250 L 128.500 121.500 120.750 121.208 L 113 120.916 113 127.958 M 133 128 L 133 135 140.500 135 L 148 135 148 128 L 148 121 140.500 121 L 133 121 133 128 M 47.710 123.623 C 47.320 124.014, 47 126.733, 47 129.667 L 47 135 53.550 135 L 60.100 135 59.800 129.250 L 59.500 123.500 53.960 123.206 C 50.913 123.045, 48.101 123.232, 47.710 123.623 M 64 129 L 64 135 70 135 L 76 135 76 129 L 76 123 70 123 L 64 123 64 129 M 185 129 L 185 135 191 135 L 197 135 197 129 L 197 123 191 123 L 185 123 185 129 M 202 129 L 202 135 208 135 L 214 135 214 129 L 214 123 208 123 L 202 123 202 129 M 52.084 156.583 C 47.910 160.095, 41.330 173.820, 39.317 183.216 C 37.302 192.616, 38.288 197.099, 43.682 203.070 C 51.326 211.530, 64.042 211.774, 72.518 203.623 C 78.541 197.830, 79.752 192.927, 77.609 183.007 C 75.596 173.684, 70.451 162.681, 65.799 157.749 C 61.362 153.043, 56.756 152.652, 52.084 156.583 M 196.666 156.434 C 186.830 165.549, 179.780 189.910, 184.405 198.800 C 188.711 207.076, 199.022 211.298, 208.325 208.594 C 216.754 206.144, 222.711 198.786, 222.924 190.564 C 223.151 181.815, 216.358 164.563, 210.093 157.977 C 205.455 153.102, 200.834 152.571, 196.666 156.434 M 16.450 159.271 C 16.181 159.970, 16.083 171.107, 16.231 184.021 L 16.500 207.500 20.250 207.810 L 24 208.121 24 183.060 L 24 158 20.469 158 C 18.526 158, 16.718 158.572, 16.450 159.271 M 28 183.012 L 28 208.024 34.500 207.883 C 38.075 207.806, 41 207.545, 41 207.304 C 41 207.064, 39.937 205.434, 38.638 203.683 C 35.768 199.815, 34 194.793, 34 190.511 C 34 185.151, 37.839 171.937, 41.475 164.779 L 44.919 158 36.460 158 L 28 158 28 183.012 M 72 158.596 C 72 158.923, 72.836 160.386, 73.857 161.846 C 76.856 166.132, 80.874 177.215, 82.116 184.625 C 83.449 192.583, 82.500 197.510, 78.498 203.407 C 77.124 205.432, 76 207.218, 76 207.377 C 76 207.535, 78.813 207.627, 82.250 207.582 L 88.500 207.500 88.767 182.750 L 89.035 158 80.517 158 C 75.833 158, 72 158.268, 72 158.596 M 93 182.842 L 93 207.685 97.499 207.592 L 101.999 207.500 101.999 182.750 L 102 158 97.500 158 L 93 158 93 182.842 M 106 182.750 L 106 207.500 109.250 207.404 L 112.500 207.309 112.767 182.654 L 113.035 158 109.517 158 L 106 158 106 182.750 M 117 162.500 L 117 167 130.500 167 L 144 167 144 162.500 L 144 158 130.500 158 L 117 158 117 162.500 M 148 182.500 C 148 205.138, 148.133 207.006, 149.750 207.077 C 150.713 207.119, 152.287 207.304, 153.250 207.488 C 154.879 207.800, 155 206.098, 155 182.912 L 155 158 151.500 158 L 148 158 148 182.500 M 159 182.392 L 159 206.783 161.280 207.355 C 162.534 207.670, 164.559 207.667, 165.780 207.347 C 167.997 206.768, 168 206.731, 168 182.383 L 168 158 163.500 158 L 159 158 159 182.392 M 172.450 159.271 C 172.181 159.970, 172.083 171.107, 172.231 184.021 L 172.500 207.500 178.750 207.543 C 182.188 207.567, 185 207.470, 185 207.328 C 185 207.186, 183.688 205.001, 182.085 202.474 C 175.798 192.560, 177.572 180.992, 188.788 158.750 C 188.996 158.338, 185.515 158, 181.052 158 C 175.412 158, 172.789 158.388, 172.450 159.271 M 219.937 165.375 C 227.680 180.788, 228.814 194.554, 223.018 202.777 C 221.358 205.132, 220 207.270, 220 207.529 C 220 207.788, 222.925 208, 226.500 208 L 233 208 233 183 L 233 158 224.616 158 L 216.232 158 219.937 165.375 M 237 183 L 237 208 241 208 L 245 208 245 183 L 245 158 241 158 L 237 158 237 183 M 117 188.950 L 117 207 120.500 207.111 C 122.425 207.172, 125.013 207.272, 126.250 207.332 L 128.500 207.442 128.500 189.471 L 128.500 171.500 122.750 171.200 L 117 170.900 117 188.950 M 133 189.306 L 133 207.613 138.250 207.497 L 143.500 207.382 143.773 189.191 L 144.045 171 138.523 171 L 133 171 133 189.306 M 95.620 213.453 C 96.582 215.958, 105.294 220.857, 112.033 222.680 C 121.824 225.330, 141.295 225.108, 150.560 222.242 C 157.442 220.113, 166 214.987, 166 212.994 C 166 212.354, 153.361 212, 130.531 212 C 99.927 212, 95.139 212.199, 95.620 213.453 M 55 218.500 C 55 222.976, 55.019 223, 58.500 223 C 61.981 223, 62 222.976, 62 218.500 C 62 214.024, 61.981 214, 58.500 214 C 55.019 214, 55 214.024, 55 218.500 M 199 218.391 C 199 222.664, 199.093 222.792, 202.500 223.190 L 206 223.598 206 218.799 L 206 214 202.500 214 C 199.031 214, 199 214.039, 199 218.391 M -0 240.504 L -0 261.007 130.750 260.754 L 261.500 260.500 261.770 240 L 262.040 219.500 236.079 219.782 L 210.117 220.064 209.808 223.782 C 209.502 227.480, 209.473 227.502, 204.566 227.812 C 196.678 228.312, 195 227.552, 195 223.481 L 195 220 187.347 220 L 179.693 220 174.355 225.049 C 163.271 235.532, 149.636 239.459, 127 238.691 C 106.685 238.001, 96.790 234.623, 86.757 224.953 L 81.619 220 73.809 220 L 66 220 66 223.393 C 66 227.293, 64.850 228, 58.500 228 C 52.150 228, 51 227.293, 51 223.393 L 51 220 25.500 220 L 0 220 -0 240.504 M 0.423 240.500 C 0.424 252.050, 0.570 256.638, 0.747 250.696 C 0.924 244.753, 0.923 235.303, 0.745 229.696 C 0.567 224.088, 0.422 228.950, 0.423 240.500" stroke="none" fill="#f7f7f7" fill-rule="evenodd"/></svg>