<svg xmlns="http://www.w3.org/2000/svg" width="231" height="234" viewBox="0 0 231 234" version="1.1"><path d="M 64.250 68.640 C 58.026 73.166, 58 73.174, 58 70.593 L 58 68 42 68 L 26 68 26 81.808 L 26 95.617 13.500 104.362 L 1 113.107 1 121.053 L 1 129 6.500 129 L 12 129 12 150 L 12 171 115.500 171 L 219 171 219 150 L 219 129 225.016 129 L 231.032 129 230.766 101.750 L 230.500 74.500 157.977 74 L 85.454 73.500 78.798 68.750 C 75.137 66.138, 71.772 64.021, 71.321 64.047 C 70.869 64.073, 67.688 66.140, 64.250 68.640 M 49 98.347 L 27.500 113.582 27.230 134.291 L 26.959 155 49.980 155 L 73 155 73 135 L 73 115 91 115 L 109 115 109 135 L 109 155 113.020 155 L 117.041 155 116.770 134.355 L 116.500 113.709 94.500 98.408 C 82.400 89.993, 72.050 83.108, 71.500 83.109 C 70.950 83.111, 60.825 89.967, 49 98.347 M 126.307 101.500 L 142.919 113 178.459 113 L 214 113 214 101.500 L 214 90 161.848 90 L 109.695 90 126.307 101.500 M 32 130.500 L 32 144 46 144 L 60 144 60 130.500 L 60 117 46 117 L 32 117 32 130.500 M 132 142 C 132 150, 132.385 155, 133 155 C 133.611 155, 134 150.342, 134 143.026 L 134 131.051 167.972 130.776 L 201.945 130.500 202.255 143 L 202.565 155.500 202.783 142.250 L 203 129 167.500 129 L 132 129 132 142 M 88 141.500 L 88 153.133 90.750 152.816 L 93.500 152.500 93.314 141.500 L 93.128 130.500 90.564 130.184 L 88 129.867 88 141.500 M 146 146.918 C 146 149.623, 145.727 152.548, 145.393 153.418 C 144.850 154.832, 147.233 155, 167.893 155 L 191 155 191 148.500 L 191 142 168.500 142 L 146 142 146 146.918" stroke="none" fill="#080808" fill-rule="evenodd"/><path d="M -0 117.004 L -0 234.008 115.750 233.754 L 231.500 233.500 231.754 116.750 L 232.008 0 116.004 0 L 0 0 -0 117.004 M 0.478 117.500 C 0.480 181.850, 0.602 210.762, 0.750 181.750 L 1.018 129 6.509 129 L 12 129 12 150 L 12 171 115.500 171 L 219 171 219 150 L 219 129 224.991 129 L 230.982 129 231.250 181.250 C 231.398 209.988, 231.520 180.850, 231.522 116.500 C 231.523 52.150, 231.402 16.375, 231.251 37 L 230.977 74.500 158.215 74 L 85.453 73.500 78.797 68.750 C 75.137 66.138, 71.853 64, 71.500 64 C 71.147 64, 67.965 66.064, 64.429 68.588 C 58.028 73.155, 58 73.164, 58 70.588 L 58 68 42 68 L 26 68 26 81.806 L 26 95.611 13.750 104.190 L 1.500 112.768 0.987 56.634 C 0.655 20.217, 0.476 41.597, 0.478 117.500 M 0.484 117.500 C 0.484 181.850, 0.603 208.028, 0.750 175.673 C 0.896 143.318, 0.896 90.668, 0.750 58.673 C 0.603 26.678, 0.484 53.150, 0.484 117.500 M 49 98.347 L 27.500 113.582 27.230 134.291 L 26.959 155 49.980 155 L 73 155 73 135 L 73 115 91 115 L 109 115 109 135 L 109 155 113.020 155 L 117.041 155 116.770 134.355 L 116.500 113.709 94.500 98.408 C 82.400 89.993, 72.050 83.108, 71.500 83.109 C 70.950 83.111, 60.825 89.967, 49 98.347 M 126.307 101.500 L 142.919 113 178.459 113 L 214 113 214 101.500 L 214 90 161.848 90 L 109.695 90 126.307 101.500 M 32 130.500 L 32 144 46 144 L 60 144 60 130.500 L 60 117 46 117 L 32 117 32 130.500 M 132 142 C 132 150, 132.385 155, 133 155 C 133.611 155, 134 150.342, 134 143.026 L 134 131.051 167.972 130.776 L 201.945 130.500 202.255 143 L 202.565 155.500 202.783 142.250 L 203 129 167.500 129 L 132 129 132 142 M 88 141.500 L 88 153.133 90.750 152.816 L 93.500 152.500 93.314 141.500 L 93.128 130.500 90.564 130.184 L 88 129.867 88 141.500 M 146 146.918 C 146 149.623, 145.727 152.548, 145.393 153.418 C 144.850 154.832, 147.233 155, 167.893 155 L 191 155 191 148.500 L 191 142 168.500 142 L 146 142 146 146.918" stroke="none" fill="#fafafa" fill-rule="evenodd"/></svg>