<svg xmlns="http://www.w3.org/2000/svg" width="328" height="236" viewBox="0 0 328 236" version="1.1"><path d="M 144 1.221 C 142.625 1.818, 139.152 3.331, 136.282 4.583 C 130.165 7.252, 122.076 14.485, 118.642 20.356 C 113.084 29.859, 113 30.877, 113 88.682 C 113 135.057, 112.808 142, 111.522 142 C 110.709 142, 106.719 140.443, 102.654 138.540 C 88.373 131.854, 75.827 131.857, 61.736 138.548 C 47.587 145.267, 35.390 145.278, 20.874 138.584 C 14.849 135.805, 4.772 133, 0.816 133 C 0.367 133, -0 135.413, -0 138.361 L -0 143.722 6.042 144.270 C 10.005 144.629, 14.649 146.036, 19.538 148.358 C 34.837 155.623, 46.328 155.742, 61.293 148.791 C 70.446 144.539, 70.568 144.514, 82 144.507 C 93.143 144.500, 93.748 144.614, 101.500 148.182 C 118.048 155.799, 127.863 155.954, 143.186 148.839 C 152.461 144.532, 152.548 144.514, 164 144.507 C 175.147 144.500, 175.731 144.610, 183.035 148.099 C 198.304 155.391, 209.858 155.844, 223.694 149.692 C 235.834 144.294, 238.346 143.733, 248.397 144.172 C 256.373 144.521, 258.548 145.038, 265.070 148.136 C 280.941 155.673, 292.007 155.907, 306.954 149.021 C 312.840 146.310, 318.094 144.648, 322.215 144.193 L 328.500 143.500 328.803 137.658 C 329.002 133.807, 328.752 132.036, 328.067 132.459 C 327.496 132.811, 324.542 133.505, 321.502 134 C 318.462 134.494, 312.342 136.539, 307.902 138.544 C 292.743 145.389, 281.172 145.351, 266.106 138.406 C 257.510 134.443, 249.412 132.896, 241.528 133.709 L 235.930 134.287 236.215 83.394 C 236.500 32.506, 236.500 32.499, 238.793 28.205 C 244.601 17.327, 253.005 11.797, 264.674 11.173 C 275.042 10.618, 281.009 12.847, 288.064 19.910 C 293.855 25.707, 297 32.234, 297 38.456 C 297 45.217, 303.261 48.584, 306.536 43.585 C 307.888 41.523, 307.952 40.244, 306.977 34.835 C 304.145 19.111, 294.159 7.672, 278.433 2.136 C 267.926 -1.563, 258.660 -0.459, 245.995 6.003 C 240.200 8.959, 233.432 16.378, 229.797 23.757 C 226.596 30.255, 226.485 30.904, 226 45.975 L 225.500 61.500 174.250 61.759 L 123 62.018 123 49.691 C 123 34.910, 124.463 29.125, 129.956 22.175 C 141.017 8.181, 162.729 7.013, 175.229 19.738 C 180.475 25.079, 183.438 31.086, 184.483 38.500 C 185.343 44.606, 186.395 46, 190.144 46 C 194.447 46, 195.659 42.648, 194.198 34.788 C 191.254 18.957, 180.946 7.223, 165.420 2.029 C 158.914 -0.147, 148.091 -0.555, 144 1.221 M 123 87.509 L 123 103.018 174.250 102.759 L 225.500 102.500 225.776 87.250 L 226.052 72 174.526 72 L 123 72 123 87.509 M 123 128.500 C 123 137.025, 123.338 143.997, 123.750 143.994 C 128.175 143.960, 137.562 141.407, 144.077 138.465 C 158.331 132.030, 170.247 132.010, 184.077 138.400 C 197.394 144.553, 211.642 145.273, 221.800 140.308 L 225.500 138.500 225.780 125.750 L 226.060 113 174.530 113 L 123 113 123 128.500 M 0.310 138.500 C 0.315 141.800, 0.502 143.029, 0.725 141.232 C 0.947 139.435, 0.943 136.735, 0.715 135.232 C 0.486 133.729, 0.304 135.200, 0.310 138.500 M 0 179.361 L 0 184.722 5.893 185.257 C 9.624 185.595, 14.802 187.153, 20.013 189.506 C 35.781 196.625, 46.457 196.588, 62.130 189.360 C 70.307 185.589, 70.765 185.500, 82 185.500 C 93.235 185.500, 93.693 185.589, 101.870 189.360 C 106.474 191.483, 113.111 193.712, 116.620 194.313 C 125.183 195.780, 133.429 194.295, 144.130 189.360 C 152.307 185.589, 152.765 185.500, 164 185.500 C 175.235 185.500, 175.693 185.589, 183.870 189.360 C 199.638 196.633, 211.228 196.612, 226.577 189.283 C 234.323 185.584, 234.756 185.500, 246 185.500 C 257.235 185.500, 257.693 185.589, 265.870 189.360 C 281.514 196.575, 292.224 196.623, 307.893 189.548 C 312.870 187.301, 318.447 185.609, 322.263 185.188 L 328.500 184.500 328.796 178.896 L 329.091 173.292 321.296 175.011 C 317.008 175.956, 310.377 178.183, 306.561 179.960 C 292.874 186.333, 282.407 186.135, 265.944 179.190 C 250.473 172.663, 240.343 172.737, 225.739 179.485 C 211.400 186.110, 198.912 186.125, 184.643 179.534 C 169.911 172.729, 158.404 172.709, 143.788 179.462 C 129.303 186.155, 117.083 186.142, 102.534 179.421 C 88.032 172.720, 76.386 172.720, 61.874 179.420 C 47.263 186.167, 35.269 186.222, 20.932 179.611 C 14.860 176.810, 4.784 174, 0.816 174 C 0.367 174, 0 176.413, 0 179.361 M 0.310 179.500 C 0.315 182.800, 0.502 184.029, 0.725 182.232 C 0.947 180.435, 0.943 177.735, 0.715 176.232 C 0.486 174.729, 0.304 176.200, 0.310 179.500 M 0 220.500 L 0 226 4.750 226.024 C 7.593 226.038, 11.909 227.084, 15.500 228.628 C 30.012 234.869, 33.979 236, 41.356 236 C 48.725 236, 50.108 235.594, 66.500 228.605 C 71.527 226.462, 74.040 226.047, 82 226.047 C 89.995 226.047, 92.450 226.456, 97.500 228.628 C 112.012 234.869, 115.979 236, 123.356 236 C 130.725 236, 132.108 235.594, 148.500 228.605 C 153.527 226.462, 156.040 226.047, 164 226.047 C 171.995 226.047, 174.450 226.456, 179.500 228.628 C 194.012 234.869, 197.979 236, 205.356 236 C 212.725 236, 214.108 235.594, 230.500 228.605 C 235.527 226.462, 238.040 226.047, 246 226.047 C 253.995 226.047, 256.450 226.456, 261.500 228.628 C 276.012 234.869, 279.979 236, 287.356 236 C 294.678 236, 298.472 234.892, 311.500 228.947 C 314.250 227.693, 319.200 226.404, 322.500 226.083 L 328.500 225.500 328.796 219.871 L 329.093 214.242 321.796 215.726 C 317.783 216.542, 311.169 218.740, 307.098 220.610 C 293.054 227.061, 281.486 227.041, 267.086 220.539 C 251.791 213.633, 240.158 213.632, 225.214 220.537 C 211.062 227.076, 199.544 227.067, 185.013 220.506 C 169.604 213.548, 158.656 213.562, 143.307 220.556 C 128.958 227.095, 118.073 227.003, 102 220.203 C 86.285 213.556, 76.327 213.620, 61.512 220.463 C 47.417 226.973, 35.415 227.009, 21.179 220.581 C 14.211 217.435, 5.566 215, 1.364 215 C 0.377 215, 0 216.522, 0 220.500 M 0.310 220.500 C 0.315 223.800, 0.502 225.029, 0.725 223.232 C 0.947 221.435, 0.943 218.735, 0.715 217.232 C 0.486 215.729, 0.304 217.200, 0.310 220.500" stroke="none" fill="#090909" fill-rule="evenodd"/><path d="M 0 66.397 L 0 132.795 6.707 133.963 C 10.396 134.605, 16.752 136.673, 20.831 138.558 C 35.379 145.279, 47.568 145.276, 61.736 138.548 C 75.827 131.857, 88.373 131.854, 102.654 138.540 C 106.719 140.443, 110.709 142, 111.522 142 C 112.808 142, 113 135.057, 113 88.682 C 113 30.877, 113.084 29.859, 118.642 20.356 C 122.076 14.485, 130.165 7.252, 136.282 4.583 C 139.152 3.331, 142.625 1.818, 144 1.221 C 145.829 0.427, 126.853 0.117, 73.250 0.068 L 0 0 0 66.397 M 161 0.486 C 161 0.753, 163.046 1.486, 165.547 2.116 C 171.392 3.588, 180.711 9.619, 184.842 14.603 C 189.381 20.079, 192.857 27.580, 194.198 34.788 C 195.659 42.648, 194.447 46, 190.144 46 C 186.395 46, 185.343 44.606, 184.483 38.500 C 181.416 16.729, 159.239 4.544, 140.096 14.110 C 132.654 17.829, 126.765 24.686, 124.519 32.247 C 123.519 35.615, 123 41.575, 123 49.691 L 123 62.018 174.250 61.759 L 225.500 61.500 226 45.975 C 226.485 30.904, 226.596 30.255, 229.797 23.757 C 235.233 12.721, 240.591 8.280, 257 1.212 C 258.833 0.423, 246.360 0.117, 210.250 0.068 C 183.162 0.030, 161 0.219, 161 0.486 M 274 0.385 C 274 0.597, 276.349 1.538, 279.219 2.477 C 293.753 7.231, 304.198 19.407, 306.977 34.835 C 307.952 40.244, 307.888 41.523, 306.536 43.585 C 303.261 48.584, 297 45.217, 297 38.456 C 297 32.234, 293.855 25.707, 288.064 19.910 C 281.009 12.847, 275.042 10.618, 264.674 11.173 C 253.005 11.797, 244.601 17.327, 238.793 28.205 C 236.500 32.499, 236.500 32.506, 236.215 83.394 L 235.930 134.287 241.528 133.709 C 249.412 132.896, 257.510 134.443, 266.106 138.406 C 281.172 145.351, 292.743 145.389, 307.902 138.544 C 314.118 135.738, 323.560 133.103, 327.750 133.006 C 327.887 133.003, 328 103.075, 328 66.500 L 328 0 301 0 C 286.150 0, 274 0.173, 274 0.385 M 123 87.509 L 123 103.018 174.250 102.759 L 225.500 102.500 225.776 87.250 L 226.052 72 174.526 72 L 123 72 123 87.509 M 123 128.500 C 123 137.025, 123.338 143.997, 123.750 143.994 C 128.175 143.960, 137.562 141.407, 144.077 138.465 C 158.331 132.030, 170.247 132.010, 184.077 138.400 C 197.394 144.553, 211.642 145.273, 221.800 140.308 L 225.500 138.500 225.780 125.750 L 226.060 113 174.530 113 L 123 113 123 128.500 M 0 158.758 L 0 173.795 6.707 174.963 C 10.396 175.605, 16.778 177.685, 20.889 179.585 C 35.259 186.224, 47.244 186.176, 61.874 179.420 C 76.386 172.720, 88.032 172.720, 102.534 179.421 C 117.083 186.142, 129.303 186.155, 143.788 179.462 C 158.404 172.709, 169.911 172.729, 184.643 179.534 C 198.912 186.125, 211.400 186.110, 225.739 179.485 C 240.354 172.733, 250.471 172.662, 265.979 179.205 C 282.416 186.139, 292.901 186.329, 306.594 179.938 C 310.392 178.166, 316.875 175.988, 321 175.098 L 328.500 173.481 328.775 158.416 L 329.050 143.351 322.425 144.149 C 318.085 144.672, 312.725 146.363, 306.889 149.051 C 292.012 155.904, 280.917 155.661, 265.070 148.136 C 258.548 145.038, 256.373 144.521, 248.397 144.172 C 238.346 143.733, 235.834 144.294, 223.694 149.692 C 209.858 155.844, 198.304 155.391, 183.035 148.099 C 175.731 144.610, 175.147 144.500, 164 144.507 C 152.548 144.514, 152.461 144.532, 143.186 148.839 C 127.863 155.954, 118.048 155.799, 101.500 148.182 C 93.748 144.614, 93.143 144.500, 82 144.507 C 70.568 144.514, 70.446 144.539, 61.293 148.791 C 46.328 155.742, 34.837 155.623, 19.538 148.358 C 14.649 146.036, 10.005 144.629, 6.042 144.270 L -0 143.722 0 158.758 M 0.402 159 C 0.402 167.525, 0.556 171.012, 0.743 166.750 C 0.931 162.488, 0.931 155.512, 0.743 151.250 C 0.556 146.988, 0.402 150.475, 0.402 159 M 0 199.713 L 0 214.704 6.449 215.773 C 9.995 216.361, 16.549 218.490, 21.013 220.506 C 35.422 227.011, 47.362 226.999, 61.512 220.463 C 76.327 213.620, 86.285 213.556, 102 220.203 C 118.073 227.003, 128.958 227.095, 143.307 220.556 C 158.656 213.562, 169.604 213.548, 185.013 220.506 C 199.544 227.067, 211.062 227.076, 225.214 220.537 C 240.158 213.632, 251.791 213.633, 267.086 220.539 C 281.354 226.981, 293.263 227.054, 306.642 220.780 C 310.414 219.011, 316.875 216.843, 321 215.961 L 328.500 214.358 328.775 199.355 L 329.050 184.351 322.473 185.143 C 318.464 185.626, 312.744 187.358, 307.828 189.578 C 292.228 196.621, 281.493 196.566, 265.870 189.360 C 257.693 185.589, 257.235 185.500, 246 185.500 C 234.756 185.500, 234.323 185.584, 226.577 189.283 C 211.228 196.612, 199.638 196.633, 183.870 189.360 C 175.693 185.589, 175.235 185.500, 164 185.500 C 152.765 185.500, 152.307 185.589, 144.130 189.360 C 128.357 196.635, 117.643 196.635, 101.870 189.360 C 93.693 185.589, 93.235 185.500, 82 185.500 C 70.765 185.500, 70.307 185.589, 62.130 189.360 C 46.457 196.588, 35.781 196.625, 20.013 189.506 C 14.802 187.153, 9.624 185.595, 5.893 185.257 L -0 184.722 0 199.713 M 0.402 200 C 0.402 208.525, 0.556 212.012, 0.743 207.750 C 0.931 203.488, 0.931 196.512, 0.743 192.250 C 0.556 187.988, 0.402 191.475, 0.402 200 M 0 231 L 0 236 16.750 235.948 L 33.500 235.896 27.500 233.553 C 24.200 232.264, 18.800 230.048, 15.500 228.629 C 11.908 227.083, 7.593 226.038, 4.750 226.024 L 0 226 0 231 M 66.500 228.615 C 63.200 230.027, 58.250 232.081, 55.500 233.180 C 52.750 234.278, 50.312 235.362, 50.083 235.588 C 49.854 235.815, 64.479 235.977, 82.583 235.948 L 115.500 235.896 109.500 233.553 C 106.200 232.264, 100.800 230.048, 97.500 228.629 C 92.450 226.456, 89.997 226.047, 82 226.047 C 74.024 226.047, 71.537 226.459, 66.500 228.615 M 148.500 228.615 C 145.200 230.027, 140.250 232.081, 137.500 233.180 C 134.750 234.278, 132.312 235.362, 132.083 235.588 C 131.854 235.815, 146.479 235.977, 164.583 235.948 L 197.500 235.896 191.500 233.553 C 188.200 232.264, 182.800 230.048, 179.500 228.629 C 174.450 226.456, 171.997 226.047, 164 226.047 C 156.024 226.047, 153.537 226.459, 148.500 228.615 M 230.500 228.615 C 227.200 230.027, 222.250 232.081, 219.500 233.180 C 216.750 234.278, 214.312 235.362, 214.083 235.588 C 213.854 235.815, 228.479 235.977, 246.583 235.948 L 279.500 235.896 273.500 233.553 C 270.200 232.264, 264.800 230.048, 261.500 228.629 C 256.450 226.456, 253.997 226.047, 246 226.047 C 238.024 226.047, 235.537 226.459, 230.500 228.615 M 312.500 228.615 C 309.200 230.027, 304.250 232.081, 301.500 233.180 C 298.750 234.278, 296.313 235.362, 296.083 235.588 C 295.854 235.815, 302.942 236, 311.833 236 L 328 236 328 231 L 328 226 323.250 226.024 C 320.422 226.038, 316.073 227.086, 312.500 228.615" stroke="none" fill="#fafafa" fill-rule="evenodd"/></svg>