<svg xmlns="http://www.w3.org/2000/svg" width="309" height="234" viewBox="0 0 309 234" version="1.1"><path d="M 146.500 5.696 C 137.799 12.727, 118.621 29.047, 92.340 51.786 L 72.179 69.229 68.951 77.865 C 62.181 95.974, 42.958 143.229, 35.538 160 C 27.286 178.651, 14.161 205.002, 13.124 204.997 C 12.781 204.995, 12.468 203.533, 12.428 201.747 C 12.306 196.185, 11.145 193.387, 8.449 192.159 C 6.306 191.182, 5.338 191.278, 2.925 192.703 L 0 194.431 0 212.561 C 0 228.854, 0.185 230.858, 1.829 232.345 C 4.549 234.806, 8.271 234.373, 11.239 231.250 C 18.418 223.695, 43.023 177.057, 52.644 152.765 C 54.765 147.410, 56.780 143.023, 57.123 143.015 C 58.747 142.976, 46.260 187.762, 37.547 213.221 L 32.167 228.942 34.156 231.471 L 36.145 234 55.629 234 L 75.113 234 79.882 229.026 L 84.650 224.053 154.600 224.014 L 224.550 223.975 229.488 228.987 L 234.425 234 254.189 234 L 273.954 234 275.593 231.498 C 277.562 228.494, 277.464 227.995, 271.686 211.500 C 264.982 192.365, 251.365 144.302, 252.364 143.303 C 252.536 143.131, 256.890 152.330, 262.041 163.745 C 283.273 210.805, 297.133 234, 304.021 234 C 309.378 234, 310 231.655, 310 211.445 L 310 193.336 306.698 192.322 C 300.298 190.358, 297.056 193.681, 296.948 202.315 C 296.897 206.340, 296.625 205.966, 289.792 192.500 C 276.163 165.636, 264.852 139.518, 246.986 93.657 L 237.308 68.814 202.904 39.312 C 163.435 5.467, 156.742 -0.008, 154.858 0.020 C 154.111 0.030, 150.350 2.585, 146.500 5.696 M 145.284 23.216 C 139.858 27.772, 126.473 39.150, 115.539 48.500 L 95.660 65.500 145.080 66.316 C 180.896 66.907, 194.815 67.458, 195.643 68.316 C 198.094 70.856, 198.120 73.748, 195.718 76.541 C 193.394 79.243, 193.172 79.285, 178.682 79.777 C 166.141 80.203, 164 80.508, 164 81.865 C 164 87.385, 180.971 131.027, 190.482 149.965 C 202.548 173.989, 222.079 202.762, 236.833 218.250 L 240.406 222 250.703 222 C 256.366 222, 261 221.632, 261 221.182 C 261 220.732, 258.793 213.645, 256.095 205.432 C 248.468 182.212, 236.840 134.322, 230.981 102 C 229.834 95.675, 228.451 88.201, 227.906 85.390 L 226.916 80.281 217.708 79.588 C 207.846 78.846, 204 77.254, 204 73.911 C 204 70.285, 205.941 68.093, 210.155 66.958 C 213.610 66.028, 214.052 65.637, 212.888 64.539 C 211.737 63.452, 193.802 48.038, 160.824 19.792 L 155.149 14.931 145.284 23.216 M 82.571 81.250 C 82.370 81.938, 81.666 85.875, 81.008 90 C 75.628 123.691, 61.734 181.724, 52.532 208.946 C 50.589 214.692, 49 219.995, 49 220.730 C 49 221.781, 51.290 222.007, 59.687 221.784 L 70.373 221.500 79.219 211 C 105.519 179.779, 125.333 143.365, 140.949 97.551 C 143.727 89.401, 146 82.118, 146 81.366 C 146 79.440, 83.135 79.324, 82.571 81.250 M 150.037 110.750 C 137.849 144.139, 122.263 174.351, 104.110 199.778 C 100.199 205.255, 97 210.020, 97 210.368 C 97 210.716, 123.100 211, 155 211 C 186.900 211, 213 210.816, 213 210.590 C 213 210.365, 209.580 205.302, 205.399 199.340 C 187.092 173.231, 169.583 139.026, 159.327 109.334 C 157.363 103.650, 155.435 99, 155.041 99 C 154.648 99, 152.396 104.287, 150.037 110.750 M 0.417 212.500 C 0.418 222.950, 0.566 227.089, 0.746 221.698 C 0.926 216.307, 0.925 207.757, 0.744 202.698 C 0.563 197.639, 0.416 202.050, 0.417 212.500" stroke="none" fill="#080808" fill-rule="evenodd"/><path d="M 0 97 C 0 150.350, 0.241 194, 0.535 194 C 0.830 194, 2.124 193.309, 3.412 192.465 C 5.329 191.209, 6.235 191.150, 8.401 192.137 C 11.142 193.386, 12.305 196.161, 12.428 201.747 C 12.468 203.533, 12.781 204.995, 13.124 204.997 C 14.161 205.002, 27.286 178.651, 35.538 160 C 42.958 143.229, 62.181 95.974, 68.951 77.865 L 72.179 69.229 92.691 51.468 C 114.760 32.358, 144.420 7.186, 150.039 2.797 L 153.500 0.094 76.750 0.047 L 0 0 0 97 M 157.550 0.903 C 158.072 1.399, 161.453 4.211, 165.061 7.153 C 168.670 10.094, 186.445 25.208, 204.561 40.741 L 237.500 68.982 241.376 79.241 C 256.927 120.405, 271.896 155.829, 285.822 184.425 L 296.500 206.351 297.128 200.583 C 297.987 192.688, 300.675 190.401, 306.750 192.396 L 309 193.135 309 96.567 L 309 0 232.800 0 C 187.449 0, 156.985 0.365, 157.550 0.903 M 145.284 23.216 C 139.858 27.772, 126.473 39.150, 115.539 48.500 L 95.660 65.500 145.080 66.316 C 180.896 66.907, 194.815 67.458, 195.643 68.316 C 198.094 70.856, 198.120 73.748, 195.718 76.541 C 193.394 79.243, 193.172 79.285, 178.682 79.777 C 166.141 80.203, 164 80.508, 164 81.865 C 164 87.385, 180.971 131.027, 190.482 149.965 C 202.548 173.989, 222.079 202.762, 236.833 218.250 L 240.406 222 250.703 222 C 256.366 222, 261 221.632, 261 221.182 C 261 220.732, 258.793 213.645, 256.095 205.432 C 248.468 182.212, 236.840 134.322, 230.981 102 C 229.834 95.675, 228.451 88.201, 227.906 85.390 L 226.916 80.281 217.708 79.588 C 207.846 78.846, 204 77.254, 204 73.911 C 204 70.285, 205.941 68.093, 210.155 66.958 C 213.610 66.028, 214.052 65.637, 212.888 64.539 C 211.737 63.452, 193.802 48.038, 160.824 19.792 L 155.149 14.931 145.284 23.216 M 82.571 81.250 C 82.370 81.938, 81.666 85.875, 81.008 90 C 75.628 123.691, 61.734 181.724, 52.532 208.946 C 50.589 214.692, 49 219.995, 49 220.730 C 49 221.781, 51.290 222.007, 59.687 221.784 L 70.373 221.500 79.219 211 C 105.519 179.779, 125.333 143.365, 140.949 97.551 C 143.727 89.401, 146 82.118, 146 81.366 C 146 79.440, 83.135 79.324, 82.571 81.250 M 150.037 110.750 C 137.849 144.139, 122.263 174.351, 104.110 199.778 C 100.199 205.255, 97 210.020, 97 210.368 C 97 210.716, 123.100 211, 155 211 C 186.900 211, 213 210.816, 213 210.590 C 213 210.365, 209.580 205.302, 205.399 199.340 C 187.092 173.231, 169.583 139.026, 159.327 109.334 C 157.363 103.650, 155.435 99, 155.041 99 C 154.648 99, 152.396 104.287, 150.037 110.750 M 52.644 152.765 C 43.023 177.057, 18.418 223.695, 11.239 231.250 L 8.626 234 22.385 234 L 36.145 234 34.156 231.471 L 32.167 228.942 37.547 213.221 C 46.260 187.762, 58.747 142.976, 57.123 143.015 C 56.780 143.023, 54.765 147.410, 52.644 152.765 M 252.414 144.500 C 258.460 169.309, 265.047 192.303, 271.129 209.832 C 277.527 228.270, 277.570 228.481, 275.593 231.498 L 273.954 234 287.536 234 L 301.119 234 297.163 229.250 C 289.143 219.622, 277.389 197.808, 263.080 166 C 254.365 146.628, 251.550 140.952, 252.414 144.500 M 80.364 228.479 C 77.964 230.914, 76 233.152, 76 233.453 C 76 233.754, 111.646 234, 155.212 234 L 234.425 234 229.488 228.987 L 224.550 223.975 154.639 224.014 L 84.728 224.053 80.364 228.479 M 0 232.500 C 0 233.325, 0.730 234, 1.622 234 C 2.951 234, 3.020 233.729, 2 232.500 C 1.315 231.675, 0.585 231, 0.378 231 C 0.170 231, 0 231.675, 0 232.500" stroke="none" fill="#fafafa" fill-rule="evenodd"/></svg>