<svg xmlns="http://www.w3.org/2000/svg" width="179" height="195" viewBox="0 0 179 195" version="1.1"><path d="M 79.500 17.763 C 63.541 23.517, 44.410 42.544, 12.706 84.192 C -3.007 104.834, -3.188 105.607, 6.796 109.422 C 10.534 110.851, 16.654 112.660, 20.396 113.443 C 24.138 114.226, 27.373 115.040, 27.585 115.252 C 27.797 115.464, 27.335 119.253, 26.558 123.672 C 22.894 144.508, 22.368 163.010, 25.182 172 C 28.844 183.697, 38.321 187.171, 70.616 188.652 L 84.732 189.300 85.466 183.400 C 87.978 163.192, 96.772 143, 103.060 143 C 108.579 143, 116.047 156.096, 120.451 173.500 C 121.843 179, 122.986 184.287, 122.991 185.250 C 123.002 187.321, 122.903 187.316, 134.239 185.862 C 140.147 185.104, 144.153 184.018, 146.220 182.612 C 155.609 176.228, 157.047 158.158, 150.971 122.872 C 149.894 116.617, 149.010 111.030, 149.007 110.456 C 149.003 109.881, 151.588 108.629, 154.750 107.671 C 157.912 106.714, 164.662 103.853, 169.750 101.314 C 178.908 96.742, 178.999 96.660, 178.903 93.098 C 178.813 89.750, 177.197 87.958, 155.653 67.315 C 122.769 35.805, 111.132 26.137, 98.244 19.618 C 91.196 16.054, 85.738 15.513, 79.500 17.763" stroke="none" fill="#050505" fill-rule="evenodd"/><path d="M 0 50.214 C 0 92.592, 0.212 100.200, 1.359 98.964 C 2.107 98.159, 7.827 90.750, 14.069 82.500 C 45.052 41.556, 66.236 21.101, 81.909 16.993 C 87.253 15.592, 91.748 16.334, 98.445 19.720 C 111.113 26.127, 122.921 35.951, 155.653 67.315 C 177.197 87.958, 178.813 89.750, 178.903 93.098 C 178.999 96.660, 178.908 96.742, 169.750 101.314 C 164.662 103.853, 157.912 106.714, 154.750 107.671 C 151.588 108.629, 149.003 109.881, 149.007 110.456 C 149.010 111.030, 149.894 116.617, 150.971 122.872 C 157.047 158.158, 155.609 176.228, 146.220 182.612 C 144.153 184.018, 140.147 185.104, 134.239 185.862 C 122.903 187.316, 123.002 187.321, 122.991 185.250 C 122.986 184.287, 121.843 179, 120.451 173.500 C 116.047 156.096, 108.579 143, 103.060 143 C 96.772 143, 87.978 163.192, 85.466 183.400 L 84.732 189.300 70.616 188.652 C 38.321 187.171, 28.844 183.697, 25.182 172 C 22.368 163.010, 22.894 144.508, 26.558 123.672 C 27.335 119.253, 27.794 115.461, 27.579 115.245 C 27.363 115.030, 24.075 114.209, 20.271 113.422 C 16.467 112.635, 10.490 110.868, 6.988 109.495 C 3.486 108.123, 0.481 107, 0.310 107 C 0.140 107, -0 126.802, -0 151.005 L -0 195.011 89.750 194.755 L 179.500 194.500 179.738 97.250 L 179.976 0 89.988 0 L 0 0 0 50.214 M 0.464 50.500 C 0.464 78, 0.592 89.106, 0.749 75.180 C 0.906 61.255, 0.906 38.755, 0.749 25.180 C 0.592 11.606, 0.464 23, 0.464 50.500 M 0.460 151 C 0.460 175.475, 0.590 185.488, 0.749 173.250 C 0.908 161.013, 0.908 140.988, 0.749 128.750 C 0.590 116.513, 0.460 126.525, 0.460 151" stroke="none" fill="#fafafa" fill-rule="evenodd"/></svg>