<svg xmlns="http://www.w3.org/2000/svg" width="275" height="276" viewBox="0 0 275 276" version="1.1"><path d="M 113.607 1.582 C 113.273 2.452, 113 4.022, 113 5.071 C 113 6.857, 112.657 6.810, 107.616 4.338 C 101.706 1.439, 98.999 1.716, 99.002 5.219 C 99.004 6.961, 100.272 8.162, 104.366 10.301 C 107.315 11.842, 112.523 15.356, 115.941 18.110 C 122.350 23.274, 124.486 23.803, 126.393 20.697 C 127.318 19.190, 126.884 18.325, 123.750 15.433 C 120.421 12.361, 120 11.436, 120 7.187 C 120 4.554, 119.460 1.860, 118.800 1.200 C 117.106 -0.494, 114.325 -0.290, 113.607 1.582 M 155.607 1.582 C 155.273 2.452, 155 13.169, 155 25.398 L 155 47.632 137.500 47.632 L 120 47.632 120 42.819 C 120 38.220, 119.683 37.672, 112.867 30.497 C 105.581 22.827, 95.721 15.470, 91.208 14.337 C 89.434 13.892, 88.312 14.221, 87.413 15.450 C 85.463 18.116, 86.664 19.703, 93.307 23.244 C 96.659 25.031, 102.461 29.510, 106.201 33.198 C 112.772 39.679, 113 40.068, 113 44.830 L 113 49.757 106.374 51.421 C 90.727 55.352, 74.849 63.391, 61.463 74.159 C 55.725 78.774, 53.967 80.763, 54.197 82.374 C 54.455 84.187, 55.274 84.545, 59.750 84.802 L 65 85.105 65 119.618 C 65 141.497, 65.379 154.840, 66.035 156.066 C 66.978 157.827, 68.256 158.002, 80.285 158.021 L 93.500 158.042 103.250 172.805 L 113 187.567 113 202.323 C 113 226.586, 110.299 244.372, 103.812 262.835 C 100.362 272.653, 100.403 275.500, 103.995 275.500 C 106.090 275.500, 106.842 274.612, 108.690 269.952 C 112.003 261.603, 115.868 247.651, 117.672 237.530 C 118.873 230.792, 119.397 219.553, 119.737 193.250 L 120.192 158 127.096 158 L 134 158 134 173.031 C 134 186.025, 134.222 188.148, 135.636 188.691 C 136.536 189.036, 137.998 188.861, 138.886 188.302 C 140.229 187.456, 140.546 184.830, 140.777 172.643 L 141.053 158 147.943 158 L 154.832 158 155.282 195.250 C 155.762 234.900, 156.316 240.175, 161.935 258.620 C 165.995 271.942, 168.006 276, 170.549 276 C 173.973 276, 174.523 272.734, 172.117 266.683 C 165.076 248.974, 162 230.255, 162 205.114 L 162 186.986 169.750 175.348 L 177.500 163.711 178 219.592 C 178.472 272.363, 178.600 275.492, 180.298 275.819 C 183.179 276.374, 185 274.072, 185 269.878 L 185 266 193.500 266 L 202 266 202.015 269.750 C 202.035 274.594, 203.154 276.256, 206.113 275.837 L 208.500 275.500 209 180.500 L 209.500 85.500 214.244 85.195 C 221.342 84.740, 222.062 82.428, 216.700 77.305 C 204.875 66.005, 182.293 54.261, 165.250 50.549 C 162.379 49.924, 162 49.454, 162 46.524 C 162 42.461, 166.490 38.124, 173.446 35.467 C 177.508 33.916, 178.064 33.357, 177.801 31.095 C 177.306 26.828, 173.545 27.250, 162.750 32.782 C 162.338 32.994, 162 26.575, 162 18.518 C 162 10.332, 161.543 3.015, 160.965 1.934 C 159.716 -0.399, 156.450 -0.614, 155.607 1.582 M 125.191 56.076 C 121.170 57.101, 115.727 59.112, 113.095 60.545 C 107.212 63.747, 96.738 72.224, 94.562 75.545 L 92.954 78 113.477 78 L 134 78 134 66.559 C 134 60.266, 133.662 54.914, 133.250 54.665 C 132.838 54.415, 129.211 55.050, 125.191 56.076 M 141 66.097 L 141 77.921 161.501 78.211 C 172.777 78.370, 182.002 78.205, 182.001 77.844 C 182 77.483, 178.783 74.209, 174.851 70.568 C 166.794 63.109, 154.733 56.615, 146.250 55.168 L 141 54.273 141 66.097 M 89.261 64.961 C 81.513 68.635, 68.044 76.899, 68.011 78 C 68.003 78.275, 71.484 78.275, 75.748 78 L 83.500 77.500 91.423 69.250 C 95.781 64.713, 98.931 61.012, 98.423 61.028 C 97.916 61.043, 93.792 62.813, 89.261 64.961 M 183.667 69.526 L 192.018 78.087 199.259 77.794 L 206.500 77.500 200 73.217 C 193.648 69.031, 181.582 62.818, 177.408 61.584 C 176.172 61.219, 178.734 64.470, 183.667 69.526 M 72.667 85.667 C 72.300 86.033, 72 100.883, 72 118.667 L 72 151 137 151 L 202 151 202 118 L 202 85 137.667 85 C 102.283 85, 73.033 85.300, 72.667 85.667 M 77.200 90.200 C 75.934 91.466, 75.415 122.312, 76.607 125.418 C 77.504 127.756, 96.496 127.756, 97.393 125.418 C 98.585 122.312, 98.066 91.466, 96.800 90.200 C 96.053 89.453, 92.356 89, 87 89 C 81.644 89, 77.947 89.453, 77.200 90.200 M 120.444 90.285 C 120.173 90.992, 120.074 99.429, 120.225 109.035 L 120.500 126.500 137.500 126.500 L 154.500 126.500 154.774 109.132 C 154.963 97.170, 154.691 91.333, 153.902 90.382 C 152.297 88.448, 121.184 88.358, 120.444 90.285 M 177.458 90.249 C 177.179 90.976, 177.074 99.429, 177.225 109.035 L 177.500 126.500 187.500 126.500 L 197.500 126.500 197.500 108 L 197.500 89.500 187.733 89.214 C 180.351 88.997, 177.841 89.250, 177.458 90.249 M 83 108 L 83 120 87 120 L 91 120 91 108 L 91 96 87 96 L 83 96 83 108 M 127 108 L 127 120 137.500 120 L 148 120 148 108 L 148 96 137.500 96 L 127 96 127 108 M 184 108 L 184 120 187.500 120 L 191 120 191 108 L 191 96 187.500 96 L 184 96 184 108 M 103.556 160.750 C 109.250 169.515, 112.325 174, 112.642 174 C 112.839 174, 113 170.400, 113 166 L 113 158 107.385 158 L 101.770 158 103.556 160.750 M 162.018 166.250 L 162.036 174.500 167.018 166.729 C 169.758 162.455, 172 158.743, 172 158.479 C 172 158.216, 169.750 158, 167 158 L 162 158 162.018 166.250 M 185 161 L 185 164 193.500 164 L 202 164 202 161 L 202 158 193.500 158 L 185 158 185 161 M 193.250 170.744 L 185 171.081 185 175.540 L 185 180 193.500 180 L 202 180 202 175 C 202 172.250, 201.887 170.092, 201.750 170.204 C 201.613 170.315, 197.787 170.559, 193.250 170.744 M 185.001 190.750 L 185 195 193.500 195 L 202 195 202 190.478 L 202 185.956 193.501 186.228 L 185.001 186.500 185.001 190.750 M 185 206.500 L 185 211 193.500 211 L 202 211 202 206.500 L 202 202 193.500 202 L 185 202 185 206.500 M 185 222.500 L 185 227 193.500 227 L 202 227 202 222.500 L 202 218 193.500 218 L 185 218 185 222.500 M 185 238.500 L 185 243 193.500 243 L 202 243 202 238.500 L 202 234 193.500 234 L 185 234 185 238.500 M 185 254.500 L 185 259 193.500 259 L 202 259 202 254.500 L 202 250 193.500 250 L 185 250 185 254.500" stroke="none" fill="#0d0d0d" fill-rule="evenodd"/><path d="M 0 138 L 0 276 50.861 276 L 101.723 276 101.276 273.662 C 101.030 272.377, 102.159 267.539, 103.785 262.912 C 110.301 244.369, 113 226.620, 113 202.323 L 113 187.567 103.250 172.805 L 93.500 158.042 80.285 158.021 C 68.256 158.002, 66.978 157.827, 66.035 156.066 C 65.379 154.840, 65 141.497, 65 119.618 L 65 85.105 59.750 84.802 C 55.274 84.545, 54.455 84.187, 54.197 82.374 C 53.967 80.763, 55.725 78.774, 61.463 74.159 C 74.849 63.391, 90.727 55.352, 106.374 51.421 L 113 49.757 113 44.830 C 113 40.068, 112.772 39.679, 106.201 33.198 C 102.461 29.510, 96.659 25.031, 93.307 23.244 C 86.664 19.703, 85.463 18.116, 87.413 15.450 C 88.312 14.221, 89.434 13.892, 91.208 14.337 C 95.721 15.470, 105.581 22.827, 112.867 30.497 C 119.683 37.672, 120 38.220, 120 42.819 L 120 47.632 137.500 47.632 L 155 47.632 155 25.398 C 155 13.169, 155.273 2.452, 155.607 1.582 C 156.148 0.173, 154.102 0, 136.907 0 C 121.890 -0, 117.867 0.267, 118.800 1.200 C 119.460 1.860, 120 4.554, 120 7.187 C 120 11.436, 120.421 12.361, 123.750 15.433 C 126.884 18.325, 127.318 19.190, 126.393 20.697 C 124.486 23.803, 122.350 23.274, 115.941 18.110 C 112.523 15.356, 107.315 11.842, 104.366 10.301 C 100.272 8.162, 99.004 6.961, 99.002 5.219 C 98.999 1.716, 101.706 1.439, 107.616 4.338 C 112.657 6.810, 113 6.857, 113 5.071 C 113 4.022, 113.273 2.452, 113.607 1.582 C 114.156 0.151, 108.770 0, 57.107 0 L 0 0 0 138 M 160.965 1.934 C 161.543 3.015, 162 10.332, 162 18.518 C 162 26.575, 162.338 32.994, 162.750 32.782 C 173.545 27.250, 177.306 26.828, 177.801 31.095 C 178.064 33.357, 177.508 33.916, 173.446 35.467 C 166.490 38.124, 162 42.461, 162 46.524 C 162 49.454, 162.379 49.924, 165.250 50.549 C 182.293 54.261, 204.875 66.005, 216.700 77.305 C 222.062 82.428, 221.342 84.740, 214.244 85.195 L 209.500 85.500 209 180.750 L 208.500 276 241.750 276 L 275 276 275 138 L 275 0 217.465 0 C 160.891 0, 159.947 0.032, 160.965 1.934 M 125.191 56.076 C 121.170 57.101, 115.727 59.112, 113.095 60.545 C 107.212 63.747, 96.738 72.224, 94.562 75.545 L 92.954 78 113.477 78 L 134 78 134 66.559 C 134 60.266, 133.662 54.914, 133.250 54.665 C 132.838 54.415, 129.211 55.050, 125.191 56.076 M 141 66.097 L 141 77.921 161.501 78.211 C 172.777 78.370, 182.002 78.205, 182.001 77.844 C 182 77.483, 178.783 74.209, 174.851 70.568 C 166.794 63.109, 154.733 56.615, 146.250 55.168 L 141 54.273 141 66.097 M 89.261 64.961 C 81.513 68.635, 68.044 76.899, 68.011 78 C 68.003 78.275, 71.484 78.275, 75.748 78 L 83.500 77.500 91.423 69.250 C 95.781 64.713, 98.931 61.012, 98.423 61.028 C 97.916 61.043, 93.792 62.813, 89.261 64.961 M 183.667 69.526 L 192.018 78.087 199.259 77.794 L 206.500 77.500 200 73.217 C 193.648 69.031, 181.582 62.818, 177.408 61.584 C 176.172 61.219, 178.734 64.470, 183.667 69.526 M 72.667 85.667 C 72.300 86.033, 72 100.883, 72 118.667 L 72 151 137 151 L 202 151 202 118 L 202 85 137.667 85 C 102.283 85, 73.033 85.300, 72.667 85.667 M 77.200 90.200 C 75.934 91.466, 75.415 122.312, 76.607 125.418 C 77.504 127.756, 96.496 127.756, 97.393 125.418 C 98.585 122.312, 98.066 91.466, 96.800 90.200 C 96.053 89.453, 92.356 89, 87 89 C 81.644 89, 77.947 89.453, 77.200 90.200 M 120.444 90.285 C 120.173 90.992, 120.074 99.429, 120.225 109.035 L 120.500 126.500 137.500 126.500 L 154.500 126.500 154.774 109.132 C 154.963 97.170, 154.691 91.333, 153.902 90.382 C 152.297 88.448, 121.184 88.358, 120.444 90.285 M 177.458 90.249 C 177.179 90.976, 177.074 99.429, 177.225 109.035 L 177.500 126.500 187.500 126.500 L 197.500 126.500 197.500 108 L 197.500 89.500 187.733 89.214 C 180.351 88.997, 177.841 89.250, 177.458 90.249 M 83 108 L 83 120 87 120 L 91 120 91 108 L 91 96 87 96 L 83 96 83 108 M 127 108 L 127 120 137.500 120 L 148 120 148 108 L 148 96 137.500 96 L 127 96 127 108 M 184 108 L 184 120 187.500 120 L 191 120 191 108 L 191 96 187.500 96 L 184 96 184 108 M 103.556 160.750 C 109.250 169.515, 112.325 174, 112.642 174 C 112.839 174, 113 170.400, 113 166 L 113 158 107.385 158 L 101.770 158 103.556 160.750 M 119.737 193.250 C 119.250 230.966, 118.542 237.992, 113.467 255.530 C 112.039 260.463, 109.827 267.087, 108.551 270.250 L 106.232 276 137.223 276 C 166.358 276, 168.169 275.895, 167.462 274.250 C 164.676 267.764, 159.700 251.194, 157.834 242.189 C 155.838 232.552, 155.582 227.882, 155.234 194.750 L 154.848 158 147.951 158 L 141.053 158 140.777 172.643 C 140.546 184.830, 140.229 187.456, 138.886 188.302 C 137.998 188.861, 136.536 189.036, 135.636 188.691 C 134.222 188.148, 134 186.025, 134 173.031 L 134 158 127.096 158 L 120.192 158 119.737 193.250 M 162.018 166.250 L 162.036 174.500 167.018 166.729 C 169.758 162.455, 172 158.743, 172 158.479 C 172 158.216, 169.750 158, 167 158 L 162 158 162.018 166.250 M 185 161 L 185 164 193.500 164 L 202 164 202 161 L 202 158 193.500 158 L 185 158 185 161 M 169.635 175.520 L 161.770 187.331 162.284 209.915 C 162.851 234.832, 164.258 243.916, 170.121 260.500 C 171.871 265.450, 173.313 270.962, 173.326 272.750 C 173.347 275.569, 173.691 276, 175.925 276 L 178.500 276.001 178.247 239.750 C 178.109 219.813, 177.884 194.547, 177.747 183.604 L 177.500 163.708 169.635 175.520 M 193.250 170.744 L 185 171.081 185 175.540 L 185 180 193.500 180 L 202 180 202 175 C 202 172.250, 201.887 170.092, 201.750 170.204 C 201.613 170.315, 197.787 170.559, 193.250 170.744 M 185.001 190.750 L 185 195 193.500 195 L 202 195 202 190.478 L 202 185.956 193.501 186.228 L 185.001 186.500 185.001 190.750 M 185 206.500 L 185 211 193.500 211 L 202 211 202 206.500 L 202 202 193.500 202 L 185 202 185 206.500 M 185 222.500 L 185 227 193.500 227 L 202 227 202 222.500 L 202 218 193.500 218 L 185 218 185 222.500 M 185 238.500 L 185 243 193.500 243 L 202 243 202 238.500 L 202 234 193.500 234 L 185 234 185 238.500 M 185 254.500 L 185 259 193.500 259 L 202 259 202 254.500 L 202 250 193.500 250 L 185 250 185 254.500 M 185 269.800 C 185 271.890, 184.460 274.140, 183.800 274.800 C 182.867 275.733, 184.890 276, 192.907 276 C 201.895 276, 203.136 275.798, 202.607 274.418 C 202.273 273.548, 202 271.298, 202 269.418 L 202 266 193.500 266 L 185 266 185 269.800" stroke="none" fill="#fafafa" fill-rule="evenodd"/></svg>